<?xml version="1.0" encoding="UTF-8" standalone="no"?>
<!-- Created with Inkscape (http://www.inkscape.org/) -->

<svg
   xmlns:osb="http://www.openswatchbook.org/uri/2009/osb"
   xmlns:dc="http://purl.org/dc/elements/1.1/"
   xmlns:cc="http://creativecommons.org/ns#"
   xmlns:rdf="http://www.w3.org/1999/02/22-rdf-syntax-ns#"
   xmlns:svg="http://www.w3.org/2000/svg"
   xmlns="http://www.w3.org/2000/svg"
   xmlns:sodipodi="http://sodipodi.sourceforge.net/DTD/sodipodi-0.dtd"
   xmlns:inkscape="http://www.inkscape.org/namespaces/inkscape"
   width="64px"
   height="64px"
   id="svg3323"
   version="1.1"
   inkscape:version="0.48.4 r9939"
   sodipodi:docname="berry4.svg">
  <defs
     id="defs3325">
    <inkscape:perspective
       sodipodi:type="inkscape:persp3d"
       inkscape:vp_x="67.726054 : 45.900725 : 1"
       inkscape:vp_y="-465.81028 : -1349.0528 : 0"
       inkscape:vp_z="6.9459621 : 68.946201 : 1"
       inkscape:persp3d-origin="22.859264 : 46.508264 : 1"
       id="perspective4955" />
    <linearGradient
       id="linearGradient4105"
       osb:paint="solid">
      <stop
         style="stop-color:#000000;stop-opacity:1;"
         offset="0"
         id="stop4107" />
    </linearGradient>
  </defs>
  <sodipodi:namedview
     id="base"
     pagecolor="#ffffff"
     bordercolor="#666666"
     borderopacity="1.0"
     inkscape:pageopacity="0.0"
     inkscape:pageshadow="2"
     inkscape:zoom="5.6568542"
     inkscape:cx="36.572239"
     inkscape:cy="29.768985"
     inkscape:current-layer="layer1"
     showgrid="true"
     inkscape:document-units="px"
     inkscape:grid-bbox="true"
     inkscape:window-width="1366"
     inkscape:window-height="705"
     inkscape:window-x="-8"
     inkscape:window-y="-8"
     inkscape:window-maximized="1" />
  <metadata
     id="metadata3328">
    <rdf:RDF>
      <cc:Work
         rdf:about="">
        <dc:format>image/svg+xml</dc:format>
        <dc:type
           rdf:resource="http://purl.org/dc/dcmitype/StillImage" />
        <dc:title></dc:title>
      </cc:Work>
    </rdf:RDF>
  </metadata>
  <g
     id="layer1"
     inkscape:label="Layer 1"
     inkscape:groupmode="layer">
    <path
       sodipodi:type="arc"
       style="fill:#550000;fill-opacity:1;fill-rule:nonzero;stroke:none"
       id="path5095-4"
       sodipodi:cx="27.512882"
       sodipodi:cy="40.601192"
       sodipodi:rx="24.298759"
       sodipodi:ry="21.213203"
       d="m 51.811642,40.601192 a 24.298759,21.213203 0 1 1 -48.5975192,0 24.298759,21.213203 0 1 1 48.5975192,0 z"
       transform="matrix(0.38257545,0.25842675,-0.14419199,0.37262289,7.3170806,30.073179)" />
    <path
       sodipodi:type="arc"
       style="fill:#d45500;fill-opacity:1;fill-rule:nonzero;stroke:none"
       id="path5095-6-3"
       sodipodi:cx="27.512882"
       sodipodi:cy="40.601192"
       sodipodi:rx="24.298759"
       sodipodi:ry="21.213203"
       d="m 51.811642,40.601192 a 24.298759,21.213203 0 1 1 -48.5975192,0 24.298759,21.213203 0 1 1 48.5975192,0 z"
       transform="matrix(0.66182144,0.43634094,-0.4278405,0.40062677,19.751456,19.500692)" />
    <path
       sodipodi:type="arc"
       style="fill:#550000;fill-opacity:1;fill-rule:nonzero;stroke:none"
       id="path5095"
       sodipodi:cx="27.512882"
       sodipodi:cy="40.601192"
       sodipodi:rx="24.298759"
       sodipodi:ry="21.213203"
       d="m 51.811642,40.601192 a 24.298759,21.213203 0 1 1 -48.5975192,0 24.298759,21.213203 0 1 1 48.5975192,0 z"
       transform="matrix(0.94796142,0.65395379,-0.63197776,0.61920028,28.348995,-3.254028)" />
    <path
       sodipodi:type="arc"
       style="fill:#d45500;fill-opacity:1;fill-rule:nonzero;stroke:none"
       id="path5095-6"
       sodipodi:cx="27.512882"
       sodipodi:cy="40.601192"
       sodipodi:rx="24.298759"
       sodipodi:ry="21.213203"
       d="m 51.811642,40.601192 a 24.298759,21.213203 0 1 1 -48.5975192,0 24.298759,21.213203 0 1 1 48.5975192,0 z"
       transform="matrix(1.0662625,0.82428092,-0.68929508,0.75681414,30.797069,-23.496264)" />
    <path
       sodipodi:type="arc"
       style="fill:#550000;fill-opacity:1;fill-rule:nonzero;stroke:none"
       id="path5095-6-1"
       sodipodi:cx="27.512882"
       sodipodi:cy="40.601192"
       sodipodi:rx="24.298759"
       sodipodi:ry="21.213203"
       d="m 51.811642,40.601192 a 24.298759,21.213203 0 1 1 -48.5975192,0 24.298759,21.213203 0 1 1 48.5975192,0 z"
       transform="matrix(1.0576094,0.77142847,-0.66475539,0.68866049,32.909672,-23.661528)" />
    <path
       sodipodi:type="arc"
       style="fill:#d45500;fill-opacity:1;fill-rule:nonzero;stroke:none"
       id="path5095-6-2"
       sodipodi:cx="27.512882"
       sodipodi:cy="40.601192"
       sodipodi:rx="24.298759"
       sodipodi:ry="21.213203"
       d="m 51.811642,40.601192 a 24.298759,21.213203 0 1 1 -48.5975192,0 24.298759,21.213203 0 1 1 48.5975192,0 z"
       transform="matrix(0.91138329,0.66151293,-0.50618713,0.52182071,31.645317,-17.837022)" />
    <path
       sodipodi:type="arc"
       style="fill:#550000;fill-opacity:1;fill-rule:nonzero;stroke:none"
       id="path5095-6-1-2"
       sodipodi:cx="27.512882"
       sodipodi:cy="40.601192"
       sodipodi:rx="24.298759"
       sodipodi:ry="21.213203"
       d="m 51.811642,40.601192 a 24.298759,21.213203 0 1 1 -48.5975192,0 24.298759,21.213203 0 1 1 48.5975192,0 z"
       transform="matrix(0.62736018,0.47239345,-0.39003657,0.41712401,34.75266,-10.509615)" />
    <path
       sodipodi:type="arc"
       style="fill:#d45500;fill-opacity:1;fill-rule:nonzero;stroke:none"
       id="path5095-6-2-1"
       sodipodi:cx="27.512882"
       sodipodi:cy="40.601192"
       sodipodi:rx="24.298759"
       sodipodi:ry="21.213203"
       d="m 51.811642,40.601192 a 24.298759,21.213203 0 1 1 -48.5975192,0 24.298759,21.213203 0 1 1 48.5975192,0 z"
       transform="matrix(0.50373868,0.38431399,-0.24471572,0.26516469,33.485923,-3.7814466)" />
    <path
       style="fill:#ffffff;stroke:none;fill-opacity:0.15183246"
       d="m 35.178562,7.9617875 c 0,0 -16.970563,-7.42462117 -23.157747,0.7071068 C 5.833631,16.800622 5.4800776,27.937554 6.1871844,32.887301 6.8942912,37.837049 5.3033009,39.251262 7.9549513,44.554563 10.606602,49.857864 10.429825,39.958369 16.086679,29.351767 21.743533,18.745166 30.052038,19.098719 35.355339,17.154175 40.65864,15.209632 35.178562,7.9617875 35.178562,7.9617875 z"
       id="path5303"
       inkscape:connector-curvature="0" />
    <path
       style="fill:#009b00;fill-opacity:1;fill-rule:nonzero;stroke:none"
       id="path5187"
       d="M 34.880828,15.019076 C 34.70857,14.933211 34.531037,14.856951 34.364052,14.761483 33.725845,14.396628 32.970538,13.885005 32.386438,13.470822 31.480153,12.828187 30.734334,12.262131 29.881747,11.546947 29.473047,11.204104 29.080085,10.84341 28.679254,10.491641 27.102338,9.0234797 25.638,7.4196187 24.448539,5.6270704 24.144865,5.1305354 24.282515,5.3618206 24.03325,4.9345773 23.278841,3.9075801 24.751035,2.8550351 25.505443,3.8820319 l 0,0 c 0.31035,0.3358021 0.142908,0.1557869 0.502825,0.5395889 1.397732,1.4462386 2.85864,2.8315689 4.370859,4.1610619 0.387227,0.331226 0.772691,0.664469 1.161679,0.993678 1.547641,1.3098013 3.148755,2.5816193 4.470405,4.1240663 0.945137,0.788549 -0.185245,2.107197 -1.130383,1.318647 z"
       inkscape:connector-curvature="0" />
    <path
       style="fill:#00be00;fill-opacity:1;fill-rule:nonzero;stroke:none"
       id="path5189"
       d="m 39.606837,15.612896 c 0.04291,-0.108218 0.07312,-0.22136 0.128745,-0.324659 0.177427,-0.329504 0.525443,-0.716059 0.782005,-0.958423 0.665171,-0.628355 1.336381,-1.110766 2.153631,-1.583425 0.524194,-0.303169 1.080595,-0.557358 1.620892,-0.836037 0.613918,-0.238757 1.215948,-0.504718 1.841755,-0.716271 1.187795,-0.401536 2.819333,-0.831741 4.077624,-0.989265 0.733291,-0.0918 1.475619,-0.135738 2.215782,-0.132143 1.991128,0.0097 2.400236,0.193867 4.315192,0.591556 2.403354,0.788019 1.27366,0.353064 3.400521,1.279892 1.543782,0.599797 0.613404,2.590292 -0.930381,1.990495 l 0,0 c -1.950224,-0.658164 -0.936094,-0.337317 -3.0453,-0.954856 -1.55517,-0.318842 -1.976739,-0.477903 -3.592187,-0.51223 -0.60861,-0.01294 -1.220476,0.0057 -1.824461,0.07519 -0.626477,0.07207 -1.241878,0.212135 -1.855444,0.348151 -1.671184,0.370467 -1.906689,0.496659 -3.493655,1.032543 -1.307519,0.518853 -1.562131,0.587392 -2.756981,1.174956 -0.305989,0.150472 -0.600432,0.319688 -0.900971,0.479027 -0.176812,0.09378 -0.355127,0.185203 -0.531077,0.280311 -0.06334,0.03421 -0.113236,0.1025 -0.186639,0.107661 -0.0345,0.0025 -0.01154,-0.06221 -0.01731,-0.09331 -0.201003,0.903678 -1.602751,0.644511 -1.401747,-0.259168 z"
       inkscape:connector-curvature="0" />
    <path
       style="fill:#008000;fill-opacity:1;fill-rule:nonzero;stroke:none"
       id="path5193"
       d="m 37.223528,15.628921 c 0.692367,0.394184 1.150703,1.041985 1.548664,1.71114 0.576746,0.969777 0.988593,1.950257 1.311332,3.03364 0.179529,0.602653 0.285168,1.224376 0.427752,1.836562 0.08732,0.597816 0.200015,1.192554 0.261948,1.793445 0.201164,1.951741 0.135629,3.962678 -0.271903,5.885835 -0.07067,0.333465 -0.171484,0.66001 -0.257226,0.990016 -0.30413,1.504162 -2.46034,1.079841 -2.156208,-0.424324 l 0,0 c 0.102362,-0.755199 0.166207,-1.110255 0.200295,-1.899297 0.08367,-1.936601 -0.06822,-3.882124 -0.434503,-5.785533 -0.150843,-0.760487 -0.464148,-2.413163 -0.671936,-3.182691 -0.11068,-0.409896 -0.262016,-0.808049 -0.396231,-1.211043 -0.168646,-0.506377 -0.304528,-1.046321 -0.646648,-1.472484 -0.914045,-0.756658 0.170621,-2.031925 1.084664,-1.275266 z"
       inkscape:connector-curvature="0" />
    <path
       style="fill:#008000;fill-opacity:1;fill-rule:nonzero;stroke:none"
       id="path5195"
       d="m 35.517191,16.77411 c -0.03142,0.01451 -0.06119,0.03313 -0.09424,0.04355 -0.07222,0.02277 -0.148096,0.033 -0.220363,0.05564 -0.320563,0.10042 -0.45702,0.179164 -0.795455,0.320545 -0.226672,0.09469 -0.462972,0.168382 -0.682424,0.278387 -0.28292,0.141817 -0.547423,0.316862 -0.821134,0.475294 -0.324579,0.209104 -0.654235,0.410734 -0.973739,0.627314 -0.351854,0.23851 -0.695603,0.488503 -1.039829,0.737612 -0.862926,0.624483 -1.715499,1.267593 -2.496359,1.991663 -0.167586,0.155399 -0.323029,0.323069 -0.484544,0.484603 -0.954741,1.118648 -2.558324,-0.213339 -1.603629,-1.331986 l 0,0 c 0.17589,-0.233807 0.339082,-0.477454 0.527662,-0.701427 1.086554,-1.290475 2.438539,-2.385853 3.909593,-3.222083 0.39383,-0.223876 0.809834,-0.407438 1.21475,-0.611156 0.365528,-0.13217 0.726731,-0.276618 1.096584,-0.39651 0.379443,-0.123002 1.03887,-0.279021 1.444135,-0.350658 0.308743,-0.05458 0.585784,-0.08819 0.896203,-0.07356 0.102685,0.0048 0.20407,0.02473 0.306107,0.03707 1.172391,0.127895 0.989055,1.763608 -0.183337,1.635713 z"
       inkscape:connector-curvature="0" />
    <path
       style="fill:#009600;fill-opacity:1;fill-rule:nonzero;stroke:none"
       id="path5197"
       d="m 38.760888,15.484971 c 0.465091,-0.130097 0.642209,-0.195704 1.192106,-0.244714 1.615444,-0.143968 3.272112,0.02702 4.856642,0.332357 0.774706,0.149282 1.535265,0.362792 2.302897,0.544186 0.796162,0.258443 1.606905,0.476697 2.388488,0.775327 2.37216,0.906362 4.625793,2.142048 6.67264,3.629806 1.420481,1.032482 1.774384,1.426986 3.002371,2.573128 0.329108,0.344011 0.658216,0.688022 0.987322,1.032033 1.282827,1.160399 -0.3806,2.950187 -1.663425,1.789787 l 0,0 C 58.148133,25.644972 57.79634,25.373061 57.444546,25.101151 56.37337,24.301729 55.68736,23.763112 54.537886,23.026094 53.921671,22.63099 53.290133,22.259316 52.656052,21.892756 51.976316,21.499804 51.297394,21.10387 50.597039,20.747899 48.686937,19.77705 48.310613,19.709401 46.299606,18.978548 45.896717,18.849499 42.926297,17.890463 42.383413,17.743435 41.923471,17.618867 41.453767,17.53224 40.987035,17.435324 c -0.61345,-0.127377 -1.234172,-0.245648 -1.859444,-0.301479 -1.181828,0.255806 -1.548529,-1.393067 -0.366702,-1.648876 z"
       inkscape:connector-curvature="0" />
    <path
       style="fill:#00cf00;fill-opacity:1;fill-rule:nonzero;stroke:none"
       id="path5199"
       d="m 38.666177,13.474082 c 0.04173,-0.09304 0.25554,-0.567082 0.29201,-0.659986 0.149767,-0.381618 0.281817,-0.782771 0.431523,-1.164453 0.14221,-0.36246 0.640575,-1.579612 0.776128,-1.9116518 0.658738,-1.7007743 1.393493,-3.3088304 2.051385,-5.0095625 0.04004,-0.1132728 0.08008,-0.2265527 0.120126,-0.3398248 0.803995,-2.6959344 2.558492,-1.4857244 1.754497,1.2102097 l 0,0 c -0.06062,0.2241417 -0.121185,0.4483374 -0.181751,0.6725246 -0.61987,1.9785546 -1.34714,3.8629218 -2.13888,5.6579838 -0.583942,1.292069 -1.166375,2.67443 -1.86501,3.746261 -1.084117,2.166422 -2.324132,-0.03507 -1.240015,-2.20149 z"
       inkscape:connector-curvature="0" />
    <path
       style="fill:#00ff00;fill-opacity:1;fill-rule:nonzero;stroke:none"
       id="path5191"
       d="m 36.831684,16.091004 c -0.05627,-0.740843 -0.04044,-0.387418 -0.04618,-1.326614 -0.0069,-1.113418 -0.0163,-1.393279 0.0495,-2.568038 0.06077,-1.084718 0.152601,-1.956805 0.253837,-3.0387427 0.116916,-1.6338404 0.43762,-3.2665502 0.345541,-4.9103887 C 37.392846,3.5056223 37.315261,3.2104181 37.181917,2.4943187 37.030472,1.7890956 36.775598,1.116812 36.507595,0.44906696 c -0.574415,-1.3203496 1.318299,-2.12176876 1.892714,-0.8014188 l 0,0 c 0.362652,0.7810669 0.719663,1.56569264 0.932694,2.40300254 0.222742,0.9550038 0.290375,1.1114855 0.391232,2.1107353 0.175585,1.7396383 0.04313,3.4929923 -0.08728,5.2300843 -0.07542,0.7936447 -0.206536,2.2406497 -0.307284,3.0311617 -0.143792,1.128234 -0.29604,2.285777 -0.711568,3.354385 -0.02725,0.07006 -0.07366,0.131314 -0.110492,0.196966 0.08387,1.169124 -1.592063,1.286143 -1.675934,0.117018 z"
       inkscape:connector-curvature="0" />
    <path
       style="fill:#008000;fill-opacity:1;fill-rule:nonzero;stroke:none"
       id="path5193-4"
       d="m 39.143102,16.394994 c 0.794227,-0.0629 1.53734,0.215482 2.242507,0.545454 1.021965,0.478216 1.913531,1.057931 2.789196,1.772836 0.487105,0.397681 0.923799,0.852651 1.385697,1.278974 0.408108,0.445486 0.835477,0.874168 1.224311,1.33646 1.262963,1.501561 2.338557,3.201931 3.081916,5.02183 0.12889,0.315564 0.228954,0.64234 0.343432,0.96351 0.593494,1.415191 -1.428631,2.275597 -2.022125,0.860403 l 0,0 c -0.339616,-0.682249 -0.486282,-1.01184 -0.901391,-1.683728 -1.018828,-1.649065 -2.237535,-3.173165 -3.609939,-4.541974 -0.55205,-0.544366 -1.739758,-1.73552 -2.343996,-2.255372 -0.321853,-0.276903 -0.670741,-0.52125 -1.008185,-0.779222 -0.424012,-0.32415 -0.839778,-0.694477 -1.362229,-0.854807 -1.181259,-0.112406 -1.000453,-1.776773 0.180806,-1.664364 z"
       inkscape:connector-curvature="0" />
    <path
       style="fill:#00c200;fill-opacity:1;fill-rule:nonzero;stroke:none"
       id="path5187-3"
       d="M 36.111692,13.699546 C 35.967812,13.571702 35.816333,13.451753 35.68005,13.316014 35.159178,12.797247 34.563567,12.106237 34.1078,11.553972 33.400634,10.697089 32.828387,9.9560092 32.191992,9.0431052 31.886929,8.6054832 31.601717,8.1547352 31.30658,7.7105502 30.167465,5.8817313 29.172441,3.9512953 28.492011,1.910447 28.328444,1.3518677 28.400964,1.6110609 28.271837,1.1335709 27.811593,-0.05471788 29.507457,-0.68658108 29.9677,0.50170752 l 0,0 c 0.211959,0.4051587 0.0973,0.1876836 0.344581,0.65211458 0.971861,1.7608942 2.020605,3.4794772 3.133454,5.1575492 0.287366,0.420804 0.572504,0.843095 0.862096,1.2624119 1.152183,1.668306 2.365898,3.3139008 3.239206,5.1478138 0.706592,1.007879 -0.728752,1.985828 -1.435345,0.977947 z"
       inkscape:connector-curvature="0" />
    <path
       style="fill:#008000;fill-opacity:1;fill-rule:nonzero;stroke:none"
       id="path5193-4-6"
       d="m 20.445127,15.311762 c 0.459801,-0.650642 1.149191,-1.043651 1.853952,-1.374489 1.021379,-0.479467 2.037336,-0.793777 3.147019,-1.009372 0.617283,-0.119928 1.246343,-0.16446 1.869512,-0.24669 0.603482,-0.02863 1.206372,-0.08281 1.810438,-0.08588 1.962056,-0.01 3.957027,0.251294 5.8313,0.844352 0.324988,0.102843 0.640152,0.235005 0.960228,0.352507 1.467353,0.449305 0.834868,2.553884 -0.632487,2.104576 l 0,0 c -0.741623,-0.175493 -1.088766,-0.273642 -1.870728,-0.384477 -1.919223,-0.272051 -3.870287,-0.310529 -5.800336,-0.131532 -0.771569,0.07599 -2.446915,0.226706 -3.233033,0.358491 -0.418732,0.0702 -0.829741,0.182002 -1.2439,0.276294 -0.520405,0.118482 -1.071023,0.201084 -1.528506,0.500032 -0.842152,0.835935 -2.005616,-0.367877 -1.16346,-1.203809 z"
       inkscape:connector-curvature="0" />
    <path
       sodipodi:type="arc"
       style="fill:#003d00;fill-opacity:1;fill-rule:nonzero;stroke:none"
       id="path5263"
       sodipodi:cx="29.248508"
       sodipodi:cy="10.581297"
       sodipodi:rx="6.7496557"
       sodipodi:ry="5.7211366"
       d="m 35.998164,10.581297 a 6.7496557,5.7211366 0 1 1 -13.499311,0 6.7496557,5.7211366 0 1 1 13.499311,0 z"
       transform="matrix(0.46452892,0.38454332,-0.35826296,0.42121844,28.638027,-0.70898963)" />
    <path
       sodipodi:type="arc"
       style="fill:#00ff00;fill-opacity:0.55497383;fill-rule:nonzero;stroke:none"
       id="path5265"
       sodipodi:cx="7.9710221"
       sodipodi:cy="21.380745"
       sodipodi:rx="3.2141218"
       sodipodi:ry="2.6355798"
       d="m 11.185144,21.380745 a 3.2141218,2.6355798 0 1 1 -6.4282437,0 3.2141218,2.6355798 0 1 1 6.4282437,0 z"
       transform="matrix(0.70274044,0.58303907,-0.44944303,0.52960281,42.313193,-1.6576022)" />
  </g>
</svg>
