<?xml version="1.0" encoding="UTF-8" standalone="no"?>
<!-- Created with Inkscape (http://www.inkscape.org/) -->

<svg
   xmlns:osb="http://www.openswatchbook.org/uri/2009/osb"
   xmlns:dc="http://purl.org/dc/elements/1.1/"
   xmlns:cc="http://creativecommons.org/ns#"
   xmlns:rdf="http://www.w3.org/1999/02/22-rdf-syntax-ns#"
   xmlns:svg="http://www.w3.org/2000/svg"
   xmlns="http://www.w3.org/2000/svg"
   xmlns:sodipodi="http://sodipodi.sourceforge.net/DTD/sodipodi-0.dtd"
   xmlns:inkscape="http://www.inkscape.org/namespaces/inkscape"
   width="64px"
   height="64px"
   id="svg3323"
   version="1.1"
   inkscape:version="0.48.4 r9939"
   sodipodi:docname="berry1.svg">
  <defs
     id="defs3325">
    <linearGradient
       id="linearGradient4105"
       osb:paint="solid">
      <stop
         style="stop-color:#000000;stop-opacity:1;"
         offset="0"
         id="stop4107" />
    </linearGradient>
  </defs>
  <sodipodi:namedview
     id="base"
     pagecolor="#ffffff"
     bordercolor="#666666"
     borderopacity="1.0"
     inkscape:pageopacity="0.0"
     inkscape:pageshadow="2"
     inkscape:zoom="5.5"
     inkscape:cx="1.8181818"
     inkscape:cy="32"
     inkscape:current-layer="layer1"
     showgrid="true"
     inkscape:document-units="px"
     inkscape:grid-bbox="true"
     inkscape:window-width="1366"
     inkscape:window-height="705"
     inkscape:window-x="-8"
     inkscape:window-y="-8"
     inkscape:window-maximized="1" />
  <metadata
     id="metadata3328">
    <rdf:RDF>
      <cc:Work
         rdf:about="">
        <dc:format>image/svg+xml</dc:format>
        <dc:type
           rdf:resource="http://purl.org/dc/dcmitype/StillImage" />
        <dc:title></dc:title>
      </cc:Work>
    </rdf:RDF>
  </metadata>
  <g
     id="layer1"
     inkscape:label="Layer 1"
     inkscape:groupmode="layer">
    <path
       style="fill:#00ffa3;fill-opacity:1;stroke:none"
       d="M 18.813235,62.545453 C 70.599462,31.818182 46.864108,1.0909094 46.864108,1.0909094 c 0,0 -72.439068,5.6902358 -28.050873,61.4545436 z"
       id="path4159"
       inkscape:connector-curvature="0" />
    <path
       style="fill:#ffff00;fill-opacity:1;stroke:none"
       d="m 25.36663,40.260956 c 0,0 -20.4913488,-3.564137 -23.6952448,-9.158047 -3.2038949,-5.593908 23.6952448,9.158047 23.6952448,9.158047 z"
       id="path4219"
       inkscape:connector-curvature="0" />
    <path
       style="fill:#ffff00;fill-opacity:1;stroke:none"
       d="m 15.776758,44.049397 c 0,0 20.507849,1.092557 24.67615,6.231892 4.168302,5.139334 -24.67615,-6.231892 -24.67615,-6.231892 z"
       id="path4219-7"
       inkscape:connector-curvature="0" />
    <path
       style="fill:#ffff00;fill-opacity:1;stroke:none"
       d="m 25.827952,30.46888 c 0,0 -19.5364,-7.136351 -21.699115,-13.209195 C 1.966122,11.186842 25.827952,30.46888 25.827952,30.46888 z"
       id="path4219-4"
       inkscape:connector-curvature="0" />
    <path
       style="fill:#ffff00;fill-opacity:1;stroke:none"
       d="m 35.646134,22.287062 c 0,0 -19.5364,-7.136351 -21.699115,-13.209195 -2.162715,-6.072843 21.699115,13.209195 21.699115,13.209195 z"
       id="path4219-4-6"
       inkscape:connector-curvature="0" />
    <path
       style="fill:#ffff00;fill-opacity:1;stroke:none"
       d="m 40.343952,17.395923 c 0,0 -11.103003,-10.5664146 -10.809173,-15.3693063 0.293828,-4.8028915 10.809173,15.3693063 10.809173,15.3693063 z"
       id="path4219-4-6-3"
       inkscape:connector-curvature="0" />
    <path
       style="fill:#ffff00;fill-opacity:1;stroke:none"
       d="m 25.098074,52.602672 c 0,0 -18.2554507,-1.687632 -21.4407032,-6.132219 -3.18525225,-4.444585 21.4407032,6.132219 21.4407032,6.132219 z"
       id="path4219-4-6-3-8"
       inkscape:connector-curvature="0" />
    <path
       style="fill:#e0ffa3;fill-opacity:0.53926703;stroke:none"
       d="M 17.94732,40.763356 C 43.668177,29.411062 35.604974,11.17152 35.604974,11.17152 c 0,0 -32.8782014,-3.6292855 -17.657654,29.591836 z"
       id="path4159-2-1"
       inkscape:connector-curvature="0" />
    <path
       style="fill:#ffff00;fill-opacity:1;stroke:none"
       d="m 13.637811,54.944496 c 0,0 13.076611,0.90876 15.734484,5.183522 2.657873,4.274761 -15.734484,-5.183522 -15.734484,-5.183522 z"
       id="path4219-7-2"
       inkscape:connector-curvature="0" />
    <path
       style="fill:#ffff00;fill-opacity:1;stroke:none"
       d="m 22.878378,33.073121 c 0,0 16.830095,11.769173 23.279224,10.287204 6.44913,-1.481967 -23.279224,-10.287204 -23.279224,-10.287204 z"
       id="path4219-7-4"
       inkscape:connector-curvature="0" />
    <path
       style="fill:#ffff00;fill-opacity:1;stroke:none"
       d="m 27.357068,24.973682 c 0,0 16.830095,11.769173 23.279224,10.287204 6.44913,-1.481967 -23.279224,-10.287204 -23.279224,-10.287204 z"
       id="path4219-7-4-1"
       inkscape:connector-curvature="0" />
    <path
       style="fill:#ffff00;fill-opacity:1;stroke:none"
       d="m 35.902523,18.791864 c 0,0 13.541788,8.687673 18.730869,7.593725 5.189082,-1.093947 -18.730869,-7.593725 -18.730869,-7.593725 z"
       id="path4219-7-4-1-8"
       inkscape:connector-curvature="0" />
    <path
       style="fill:#008000;stroke:none"
       d="m 50.01471,19.189549 c 0,0 12.299377,-8.1616 2.459874,-15.8697792 C 42.635083,-4.388409 50.01471,19.189549 50.01471,19.189549 z"
       id="path3335"
       inkscape:connector-curvature="0" />
    <path
       style="fill:#009000;fill-opacity:1;stroke:none"
       d="m 34.619274,11.938946 c 0,0 0.0806,-13.1639603 13.427414,-11.46779082 C 61.393501,2.1673241 34.619274,11.938946 34.619274,11.938946 z"
       id="path3335-3-2"
       inkscape:connector-curvature="0" />
    <path
       style="fill:#00b400;fill-opacity:1;stroke:none"
       d="m 38.754151,18.19442 c 0,0 16.224784,-0.247711 13.992455,-13.8755893 C 50.514278,-9.3090452 38.754151,18.19442 38.754151,18.19442 z"
       id="path3335-3"
       inkscape:connector-curvature="0" />
  </g>
</svg>
