<?xml version="1.0" encoding="UTF-8" standalone="no"?>
<!-- Created with Inkscape (http://www.inkscape.org/) -->

<svg
   xmlns:dc="http://purl.org/dc/elements/1.1/"
   xmlns:cc="http://creativecommons.org/ns#"
   xmlns:rdf="http://www.w3.org/1999/02/22-rdf-syntax-ns#"
   xmlns:svg="http://www.w3.org/2000/svg"
   xmlns="http://www.w3.org/2000/svg"
   xmlns:sodipodi="http://sodipodi.sourceforge.net/DTD/sodipodi-0.dtd"
   xmlns:inkscape="http://www.inkscape.org/namespaces/inkscape"
   width="64px"
   height="64px"
   id="svg5371"
   version="1.1"
   inkscape:version="0.48.4 r9939"
   sodipodi:docname="New document 63">
  <defs
     id="defs5373" />
  <sodipodi:namedview
     id="base"
     pagecolor="#ffffff"
     bordercolor="#666666"
     borderopacity="1.0"
     inkscape:pageopacity="0.0"
     inkscape:pageshadow="2"
     inkscape:zoom="8.09375"
     inkscape:cx="32"
     inkscape:cy="30.963756"
     inkscape:current-layer="layer1"
     showgrid="true"
     inkscape:document-units="px"
     inkscape:grid-bbox="true"
     inkscape:window-width="1366"
     inkscape:window-height="705"
     inkscape:window-x="-8"
     inkscape:window-y="-8"
     inkscape:window-maximized="1" />
  <metadata
     id="metadata5376">
    <rdf:RDF>
      <cc:Work
         rdf:about="">
        <dc:format>image/svg+xml</dc:format>
        <dc:type
           rdf:resource="http://purl.org/dc/dcmitype/StillImage" />
        <dc:title></dc:title>
      </cc:Work>
    </rdf:RDF>
  </metadata>
  <g
     id="layer1"
     inkscape:label="Layer 1"
     inkscape:groupmode="layer">
    <path
       style="fill:#552200;stroke:none"
       d="m 5.6363637,60.181819 c 0,0 62.0969463,-6.96874 48.6185373,-33.01583 C 40.776495,1.1188991 49.922556,21.56815 45.429755,30.02203 40.936953,38.475909 19.275228,57.211536 5.6363637,60.181819 z"
       id="path5379"
       inkscape:connector-curvature="0" />
    <path
       style="fill:#ffb380;fill-opacity:1;fill-rule:nonzero;stroke:none"
       id="path5931"
       d="m 10.803389,62.344788 c -0.522501,-0.566308 -0.635716,-1.308908 -0.259998,-2.00991 0.274237,-0.511665 0.661108,-0.691293 1.116398,-0.996387 0.835636,-0.374529 1.791607,-0.74426 2.726034,-0.730232 0.764462,0.01148 0.89169,0.116028 1.597289,0.35761 0.709347,0.369764 1.872501,1.07325 2.100241,1.91423 0.06287,0.232155 0.0497,0.478459 0.07456,0.717688 -0.112735,0.249205 -0.178675,0.525439 -0.338205,0.747616 -0.441044,0.614239 -1.459837,0.773325 -2.156925,0.851932 -0.280701,0.0077 -0.571331,0.06371 -0.852121,0.0165 -0.448136,-0.07534 -1.195971,-0.295072 -1.140839,-0.964256 0.0432,-0.524308 0.589748,-0.871353 0.884622,-1.307029 1.258694,-0.299768 2.567818,-0.316201 3.847848,-0.166108 0.533314,0.09339 1.287775,0.308613 1.62292,0.778168 0.12286,0.172134 0.322663,0.354739 0.290904,0.563822 -0.07108,0.467932 -0.382551,0.865855 -0.573827,1.298782 -0.261254,0.07201 -0.514637,0.184253 -0.783764,0.216035 -0.37032,0.04373 -1.144355,-0.08519 -1.502078,-0.154885 -0.686585,-0.133766 -1.350744,-0.336883 -2.013887,-0.555085 -0.857409,-0.30521 -1.770544,-0.715542 -2.074419,-1.659523 -0.06242,-0.193915 -0.05577,-0.403595 -0.08366,-0.605392 0.03927,-0.207329 0.04013,-0.425796 0.117823,-0.621988 0.37943,-0.95811 1.343929,-1.492603 2.253564,-1.839132 0.217118,-0.08271 0.442337,-0.142351 0.663505,-0.213526 0.788977,-0.184575 1.810018,-0.508702 2.592322,-0.110948 0.19623,0.09977 0.354357,0.261292 0.531536,0.391938 0.101857,0.155544 0.219967,0.301585 0.305571,0.466633 0.288396,0.556042 0.284679,1.294765 -0.06566,1.822881 -0.110272,0.166229 -0.277551,0.28659 -0.416326,0.429885 -0.139226,0.07835 -0.271881,0.169747 -0.417678,0.235065 -0.538095,0.241069 -1.225351,0.326487 -1.789666,0.131535 -0.184902,-0.06388 -0.349134,-0.176585 -0.523701,-0.264878 -0.120392,-0.105113 -0.26267,-0.189484 -0.361176,-0.31534 -0.613233,-0.783492 -0.518036,-1.592416 0.187271,-2.293487 0.530006,-0.526823 1.122701,-0.674498 1.794666,-0.936706 1.225224,-0.353068 2.49249,-0.572286 3.767174,-0.629913 0.575881,-0.02604 0.819771,-0.0064 1.373106,0.01492 0.887859,0.06934 2.013083,0.218433 2.329485,1.233553 0.07442,0.238781 0.01121,0.500097 0.01682,0.750145 -0.123116,0.219375 -0.19899,0.473028 -0.369349,0.658125 -0.544646,0.591765 -1.672618,0.746959 -2.434025,0.771279 -0.209172,0.0067 -0.418477,-0.0082 -0.627715,-0.01236 -0.828388,-0.08851 -1.763021,-0.248155 -2.392966,-0.852355 -0.133805,-0.128338 -0.234665,-0.287107 -0.351998,-0.43066 -0.07549,-0.174979 -0.176859,-0.340936 -0.226455,-0.524936 -0.166333,-0.617089 -0.04745,-1.236864 0.286215,-1.775088 0.251728,-0.406057 0.459677,-0.527198 0.82036,-0.822977 0.476006,-0.290863 0.99707,-0.560529 1.553491,-0.660029 0.135327,-0.0242 0.273379,-0.05991 0.409999,-0.04461 0.234371,0.02623 0.458268,0.111637 0.687403,0.167456 0.174819,0.159936 0.391002,0.284026 0.524457,0.479809 0.251214,0.368541 0.29148,0.865372 0.158086,1.281562 -0.217004,0.677058 -0.828919,1.16357 -1.323889,1.62542 -1.17804,1.024419 -2.441465,1.951409 -3.782106,2.75121 -0.351591,0.185276 -0.705683,0.381015 -1.084625,0.507221 -0.07621,0.02538 -0.19474,0.132754 -0.232845,0.06204 -1.092918,-2.028113 -1.385938,-1.702253 -0.327573,-2.192453 1.088767,-0.357081 2.243278,-0.47847 3.380347,-0.319886 0.182451,0.02545 0.361795,0.06962 0.542693,0.104438 0.58255,0.17193 1.592468,0.508692 1.416386,1.412765 -0.09585,0.492137 -0.565146,0.852258 -0.966935,1.152178 -0.246443,0.183959 -1.539503,0.230744 -1.765068,0.246885 -1.855011,0.04195 -3.713835,-0.107388 -5.5206,-0.533734 -0.664508,-0.180944 -1.763287,-0.489614 -2.03423,-1.226082 -0.08871,-0.241132 -0.07012,-0.509058 -0.105175,-0.763588 0.142306,-0.247781 0.239914,-0.527297 0.426918,-0.743344 0.115537,-0.133481 0.2894,-0.20838 0.453408,-0.273705 0.688874,-0.274377 1.258077,-0.04446 1.85221,0.289768 0.478951,0.356677 0.955988,0.874629 0.684752,1.583167 -0.130583,0.341117 -0.470051,0.571503 -0.77068,0.778951 -0.19141,0.132082 -0.925149,0.204105 -1.150412,0.233948 -1.369675,0.0994 -2.711272,-0.203811 -4.0186797,-0.57617 -0.866682,-0.285135 -1.9263972,-0.691869 -1.5317001,-1.982158 0.2510513,-0.820702 1.4986781,-1.018267 2.1097841,-1.206918 3.4315577,-0.746677 6.9522927,-0.904859 10.4489197,-1.083205 1.173103,-0.0265 2.340495,-0.115251 3.50409,-0.260471 0.522239,0.292926 -0.619064,-0.353405 -0.512352,1.65179 0.01357,0.254996 0.464438,0.237409 0.636856,0.425768 0.04601,0.05026 -0.130509,0.03965 -0.196945,0.05481 -0.303817,0.06933 -0.557828,0.108662 -0.867587,0.162341 -0.668619,0.106692 -1.949412,0.363103 -2.28233,-0.540655 -0.410889,-1.115419 0.157651,-1.432254 0.74742,-2.037514 1.663222,-1.362746 3.419606,-2.601081 5.242779,-3.738992 0.22616,-0.115798 0.442205,-0.253952 0.67848,-0.347395 0.473617,-0.187306 1.339707,-0.376762 1.732839,0.136462 0.317802,0.414883 0.322097,1.013449 0.314354,1.536006 -0.004,0.273268 -0.717572,1.546828 -0.819021,1.737931 -0.829959,1.422409 -1.761637,2.791374 -2.82849,4.047246 -0.06313,0.06952 -0.09917,0.182463 -0.189378,0.208572 -0.06329,0.01832 0.12286,-0.12439 0.08512,-0.178394 -0.355258,-0.508299 -0.822653,-0.929398 -1.20216,-1.419858 -0.02066,-0.0267 0.0037,-0.07404 0.02824,-0.09727 0.180917,-0.171604 0.69273,-0.50142 0.876606,-0.625119 0.172674,-0.106288 0.342566,-0.217235 0.518022,-0.318865 0.138647,-0.08031 0.281266,-0.153634 0.423859,-0.226705 0.04285,-0.02196 0.128382,-0.106244 0.132199,-0.05824 0.04664,0.586666 -0.01816,1.177432 0.0035,1.765549 0.0024,0.06504 0.128758,0.158677 0.06835,0.182901 -0.22317,0.08949 -0.478122,0.05152 -0.717182,0.07728 -1.874712,0.13141 -3.756738,0.318403 -5.637564,0.235436 -0.629733,-0.1242 -1.53015,-0.200572 -1.333216,-1.408837 0.08584,-0.52665 0.798498,-0.7363 1.285963,-0.95334 0.278685,-0.124082 0.609839,-0.03445 0.914797,-0.02653 0.887602,0.02304 1.313198,0.11277 2.196461,0.241723 1.578257,0.284491 3.164708,0.646575 4.572659,1.438082 0.596112,0.494428 0.985281,0.66366 0.353008,1.92864 -0.158552,0.317214 -0.651938,0.292703 -0.998851,0.366286 -0.221204,0.04692 -0.452475,0.0012 -0.678294,-0.01055 -0.257525,-0.01341 -1.283193,-0.116683 -1.520693,-0.139879 -1.222281,-0.105585 -2.441614,-0.260446 -3.666072,-0.340228 1.010999,-0.3114 0.266973,0.06779 0.746419,-1.670199 0.01214,-0.04401 0.09365,-0.0078 0.136779,0.0072 0.132321,0.046 0.25501,0.116061 0.382829,0.173394 0.524437,0.235235 0.363676,0.164223 0.884072,0.380847 1.185719,0.522772 1.912532,0.783277 0.623459,2.559339 -0.182981,0.252108 -1.752499,0.08399 -1.915877,0.0737 -2.015661,-0.255329 -4.002613,-0.753766 -5.886582,-1.515506 -0.140441,-0.0757 -0.301964,-0.121242 -0.421324,-0.22711 -0.854443,-0.757854 -0.857199,-1.080839 0.287201,-2.213641 0.200123,-0.198095 0.559549,-0.07595 0.841126,-0.07827 0.699095,-0.0057 1.211898,0.132082 1.905693,0.263583 1.952905,0.428957 3.876668,0.975385 5.805783,1.497713 0.795703,0.228548 1.620765,0.316128 2.439808,0.416128 0.380607,0.05487 0.765484,0.05984 1.148233,0.08809 -1.296208,0.585154 -0.583627,-0.0093 -0.993555,1.400288 -0.0112,0.03851 -0.08053,-0.01501 -0.114886,-0.03569 -0.371744,-0.223694 -0.724738,-0.533466 -1.074973,-0.791719 -0.459615,-0.358863 -1.227427,-0.839838 -1.453828,-1.400956 -0.07964,-0.19738 -0.107457,-0.411895 -0.161186,-0.617843 0.05998,-0.244707 0.05022,-0.518128 0.179935,-0.734123 0.398455,-0.663492 1.188026,-0.876735 1.872984,-1.059179 0.548763,-0.146168 0.943671,-0.218401 1.507048,-0.334494 1.347935,-0.279776 2.71392,-0.452484 4.060979,-0.736479 0.294368,-0.07652 0.22049,-0.05417 0.488432,-0.134694 0.03704,-0.01113 0.138872,-0.06104 0.110791,-0.03445 -0.06384,0.06046 -0.235711,0.05376 -0.223057,0.140767 0.291866,2.00679 1.119764,1.595438 0.392191,1.914751 -1.808025,0.423575 -3.649187,0.665569 -5.494837,0.848625 -0.805255,0.06963 -1.612552,0.11317 -2.420406,0.13649 -0.0773,0.0022 -0.784823,0.02534 -0.907074,-0.0044 -0.232086,-0.05655 -0.448431,-0.164791 -0.672646,-0.247187 -0.04137,-0.610257 -0.248529,-1.231898 -0.124123,-1.830771 0.05691,-0.273937 0.400696,-0.392333 0.621604,-0.56403 1.024797,-0.796504 2.372505,-1.389135 3.526733,-1.987352 1.390011,-0.742986 2.722282,-1.586884 4.045365,-2.441517 0.850823,-0.520965 0.628086,-0.322516 1.457686,1.628647 0.04489,0.105587 -0.188394,0.131408 -0.287276,0.189599 -0.390559,0.229841 -0.555345,0.290977 -0.982787,0.487197 -1.018948,0.424366 -2.103523,0.641952 -3.172309,0.897248 -0.199874,0.04774 -1.301415,0.318456 -1.522201,0.372653 -0.865931,0.246812 -1.748673,0.418058 -2.629451,0.598791 -0.34234,0.06087 -0.662763,0.200727 -0.98926,0.315247 -0.448611,0.123101 -0.892957,0.262387 -1.342846,0.380977 -0.609678,0.144246 -1.205416,0.337354 -1.795217,0.547048 -0.479508,0.209718 -0.947772,0.444383 -1.428239,0.651954 -0.27676,0.13031 -0.543095,0.28011 -0.81819,0.413428 -0.375725,0.18972 -0.769071,0.340014 -1.165521,0.479884 -0.30576,0.08067 -0.602107,0.187245 -0.883206,0.331777 -0.140362,0.08214 -0.07185,0.03942 -0.205642,0.128001 -1.283425,0.820315 -2.443525,-0.994722 -1.1601,-1.815037 l 0,0 c 0.271092,-0.170245 0.134012,-0.08965 0.411067,-0.242073 0.357028,-0.172178 0.721232,-0.335267 1.107043,-0.432243 0.335895,-0.124054 0.673391,-0.244067 0.99304,-0.407193 0.28753,-0.120239 0.55686,-0.272437 0.829529,-0.422947 0.525121,-0.255404 1.033781,-0.546414 1.579902,-0.757644 0.659107,-0.236485 1.326924,-0.451953 2.012698,-0.597788 0.384052,-0.08592 0.767717,-0.180003 1.145408,-0.290125 0.394004,-0.141443 0.785499,-0.2918 1.191974,-0.39485 0.858503,-0.238004 1.71495,-0.482291 2.567074,-0.742828 1.461235,-0.392237 2.944997,-0.688969 4.400494,-1.099963 0.275784,-0.102241 0.499578,-0.180685 0.764643,-0.292941 0.06747,-0.02857 0.147181,-0.142624 0.199787,-0.09163 1.568259,1.520218 1.870267,1.238817 1.020002,2.002811 -1.337622,1.027764 -2.74063,1.969933 -4.241256,2.746109 -2.606858,1.331278 0.664261,-0.33233 -1.817796,0.909024 -0.26775,0.13391 -0.532808,0.273138 -0.799212,0.409707 -0.213765,0.113303 -0.425205,0.231105 -0.641295,0.339909 -0.100038,0.05037 -0.247628,0.232584 -0.306638,0.137387 -0.260057,-0.419537 -0.318096,-0.934548 -0.477144,-1.401822 -0.147015,-0.03703 -0.328878,-0.0091 -0.441044,-0.111096 -0.07235,-0.06579 0.195037,-0.01464 0.292363,-0.02411 0.159741,-0.01553 0.319238,-0.03349 0.478789,-0.05087 0.777497,-0.08471 1.55426,-0.176011 2.331671,-0.2615 1.840985,-0.206231 3.678418,-0.45072 5.523254,-0.618258 1.04842,-0.01787 0.831646,-0.161448 1.22509,1.867111 0.03034,0.156438 -1.112709,0.556999 -1.222949,0.590395 -1.37082,0.39644 -2.772248,0.643568 -4.180608,0.867173 -0.60685,0.09868 -1.209935,0.212025 -1.815531,0.317363 -0.07221,0.01256 -0.200984,0.107435 -0.216919,0.0359 -0.0549,-0.246455 0.495034,-0.424907 0.186122,-0.734265 -0.0429,-0.0967 -0.0813,-0.195528 -0.128713,-0.290101 -0.0026,-0.0052 -0.02061,-0.0059 -0.0173,-0.0012 0.196968,0.281476 0.699319,0.471579 0.944102,0.70015 0.381668,0.273119 0.523044,0.362671 0.88488,0.669682 0.653703,0.554653 1.361666,1.188814 0.848693,2.230832 -0.151562,0.307873 -0.604934,0.324164 -0.9074,0.486245 -0.443364,0.01537 -0.887102,-0.0125 -1.329491,-0.03934 -0.922774,-0.07191 -1.844828,-0.174176 -2.75351,-0.353413 -1.951905,-0.395568 -3.885783,-0.87616 -5.801534,-1.420426 -0.27206,-0.0743 -0.541959,-0.157029 -0.816181,-0.22291 -0.204118,-0.04904 -0.416599,-0.06215 -0.617922,-0.121627 -0.05511,-0.01628 -0.149335,-0.04547 -0.138979,-0.101995 0.570967,-3.116158 0.755395,-0.528348 -0.0094,-1.858207 -0.043,-0.07477 0.163903,0.05378 0.245854,0.08067 1.786265,0.510316 3.595401,0.942777 5.410943,1.334786 0.223495,0.04439 0.451682,0.06957 0.670484,0.133178 0.06658,0.01936 0.173167,0.04328 0.174907,0.112592 0.01437,0.572539 -0.140209,1.140692 -0.12908,1.713304 0.0013,0.06601 0.230359,0.115174 0.164524,0.110264 -0.258438,-0.01928 -0.45931,-0.291023 -0.723292,-0.285136 -0.519568,-0.213093 -1.055609,-0.425158 -1.530801,-0.729787 -0.182196,-0.1168 -0.476325,-0.171529 -0.524634,-0.382488 -0.418794,-1.828839 -0.32733,-1.624495 0.706815,-2.063051 1.33151,-0.104182 2.672449,0.09984 3.996413,0.219543 0.546994,0.07447 0.904455,0.117041 1.436022,0.21043 0.1272,0.02235 0.391916,-0.05131 0.379665,0.07726 -0.05117,0.536905 -2.374987,0.389904 -0.245325,1.859684 -1.255643,-0.536402 -2.616126,-0.750272 -3.946868,-1.01696 -1.731107,-0.295469 -0.298773,-0.05459 -1.920909,-0.318193 -0.181298,-0.02946 -0.539603,0.09307 -0.543536,-0.09056 -0.0072,-0.33541 0.587311,-0.530492 0.523181,-0.859792 -0.264735,-1.359388 -1.523027,-1.170189 -0.757623,-1.254643 1.849074,-0.119595 3.696186,-0.303826 5.551824,-0.282139 0.224905,0.0037 1.654738,-0.01717 1.775248,0.192151 0.992174,1.723383 0.159215,1.983741 -0.862941,2.611549 -0.155102,0.09842 -0.790732,0.505312 -0.949057,0.591401 -0.1821,0.09902 -0.376644,0.36892 -0.559518,0.271339 -1.63752,-0.873771 -1.714779,-1.06014 -1.106316,-2.031259 0.883404,-1.259081 1.732067,-2.543787 2.540158,-3.852377 0.153462,-0.24438 0.30376,-0.490776 0.460385,-0.73314 0.09455,-0.146312 0.13441,-0.504713 0.293045,-0.432726 0.291543,0.132299 0.259578,0.625516 0.525309,0.804086 0.852757,0.573045 1.060005,-0.08111 0.695429,0.138613 -0.174096,0.104925 -0.341428,0.220684 -0.512142,0.331026 -1.692108,1.176718 -3.358146,2.395056 -5.100519,3.496809 -0.66218,0.222752 0.187762,0.02612 -0.40196,-0.880945 -0.145831,-0.224306 -0.471976,-0.252194 -0.710561,-0.373261 -0.0053,-0.0027 0.0012,0.01704 0.0071,0.01629 0.278303,-0.03563 0.550819,-0.109732 0.829724,-0.141617 0.302602,-0.04637 0.663677,-0.106588 0.968659,-0.133527 0.157312,-0.01389 0.320748,-0.06648 0.473116,-0.02496 0.352159,0.09597 0.920885,0.07399 1.007679,0.42852 0.352125,1.43835 -0.04757,1.526055 -0.696046,1.771113 -1.223413,0.344939 -2.491612,0.501287 -3.750981,0.647541 -3.380515,0.380288 -6.77189,0.628869 -10.161235,0.91327 -0.235975,0.01062 -0.5178557,0.172128 -0.7079237,0.03187 -0.127282,-0.09392 0.158224,-0.298779 0.134317,-0.455146 -0.0542,-0.354512 -0.208264,-0.688814 -0.358973,-1.014242 -0.02206,-0.04764 -0.194242,-0.07439 -0.142149,-0.06784 0.197071,0.02479 0.357693,0.203635 0.570291,0.172724 1.0672937,0.248006 2.1446537,0.507906 3.2456797,0.527626 0.1266,-0.0042 0.253294,-0.01916 0.379802,-0.01272 0.0346,0.0018 0.1118,0.0056 0.09712,0.03701 -0.103664,0.221672 -0.359133,0.373474 -0.401773,0.614443 -0.09198,0.519807 0.03037,0.662323 0.291571,0.899667 0.01299,0.01181 -0.02342,-0.02616 -0.03513,-0.03925 -0.0619,-0.04908 -0.104113,-0.08166 -0.100851,-0.08467 0.03134,-0.02887 0.08362,-0.01889 0.1227,-0.03586 0.308746,-0.13412 0.370954,-0.451533 0.475643,-0.753268 -0.04462,-0.177393 -0.05778,-0.365833 -0.133868,-0.532178 -0.04028,-0.08806 -0.133351,-0.14061 -0.204097,-0.206731 -0.0033,-0.0031 -0.01706,0.0016 -0.01306,0.0038 0.255373,0.136395 0.550882,0.174365 0.830064,0.228804 1.653312,0.278229 3.330155,0.324295 5.001262,0.420587 0.236556,0.0083 0.47324,0.01349 0.709667,0.02488 0.112561,0.0054 0.343286,-0.087 0.33711,0.02552 -0.01847,0.336441 -0.41767,0.596915 -0.389707,0.9327 0.06305,0.757135 0.958432,0.910566 0.341085,0.754018 -0.94702,-0.132066 -1.894885,-0.08215 -2.835723,0.08341 -0.716624,-0.206561 -1.063334,-1.910905 -1.046852,-1.921016 0.253561,-0.155545 0.538389,-0.259317 0.776825,-0.441274 1.203717,-0.807814 2.323,-1.732528 3.496138,-2.583063 0.150935,-0.114346 0.30337,-0.226739 0.452804,-0.34304 0.08095,-0.063 0.139537,-0.166876 0.238247,-0.194785 0.03935,-0.01113 0.02161,0.07897 0.02937,0.119119 0.01615,0.08351 0.01175,0.172265 0.0423,0.25165 0.126283,0.328152 0.190922,0.299638 0.487047,0.489284 0.122881,0.0083 0.489159,-0.01387 0.36922,0.01412 -0.283229,0.06611 -0.548279,0.197382 -0.806227,0.327252 -0.07919,0.04346 -0.148404,0.110515 -0.235709,0.133684 -0.01599,0.0042 -0.03004,-0.01636 -0.04656,-0.01716 -0.05629,-0.0028 -0.09299,0.03741 -0.148223,-0.01302 -0.01879,-0.0036 -0.03793,-0.01586 -0.05636,-0.01075 -0.0089,0.0025 -0.01123,0.02235 -0.0035,0.02734 0.313147,0.202803 0.732828,0.219739 1.087046,0.267394 0.432353,0.01731 0.383389,0.02851 0.828189,-0.0096 0.132044,-0.01132 0.263005,-0.03339 0.395004,-0.04522 0.06836,-0.0061 0.159673,-0.0595 0.205722,-0.0086 0.117704,0.130086 -0.568252,0.372616 -0.174715,0.496451 0.09213,0.452437 0.01125,0.408644 0.382182,0.73434 0.03041,0.0267 0.07565,0.0332 0.116045,0.03567 0.02988,0.0018 -0.05382,-0.02818 -0.08324,-0.03366 -0.216209,-0.0403 -0.454899,-0.03964 -0.670967,-0.04846 -1.473105,0.03235 -2.935639,0.219585 -4.367578,0.574581 -0.207162,0.05178 -0.413272,0.107964 -0.621484,0.155347 -0.0929,0.02114 -0.190971,0.0801 -0.281413,0.05012 -0.05194,-0.01722 -0.03031,-0.105167 -0.04429,-0.158074 -0.04054,-0.153507 -0.05389,-0.316442 -0.119229,-0.461143 -0.129831,-0.287526 -0.143137,-0.207625 -0.164492,-0.127071 -0.08673,0.0097 -0.151022,0.05977 3e-4,0.05681 0.04029,-7.89e-4 0.257675,-0.0746 0.235211,0.01504 -0.07323,0.135809 -0.184371,0.31059 -0.105939,0.471466 0.01412,0.02896 0.108729,-0.312991 0.12797,0.04099 0.07547,0.03132 0.147403,0.07314 0.226417,0.09397 0.03643,0.0096 0.148478,0.008 0.112931,-0.0045 -0.247557,-0.08692 -1.015471,0.212405 -1.258396,0.254847 -0.293006,0.09226 -0.650936,0.197489 -0.937431,0.315518 -0.116872,0.04815 -0.227825,0.109574 -0.342102,0.163594 -0.06147,0.02906 -0.117275,0.08122 -0.18512,0.08563 -0.02495,0.0016 -0.08733,-0.15182 -0.08981,-0.157331 -0.02064,-0.0338 -0.03537,-0.07201 -0.06191,-0.101409 -0.02829,-0.03133 -0.06124,-0.06089 -0.09992,-0.07781 -0.0096,-0.0042 -0.02166,0.01965 -0.01487,0.02759 0.190955,0.22287 0.604381,0.198704 0.83464,0.336072 0.782748,0.225124 1.576738,0.398968 2.362442,0.611185 0.09441,0.0255 0.241847,6.36e-4 0.278852,0.09116 0.03002,0.07343 -0.117463,0.10664 -0.176194,0.15996 -0.103274,0.376336 -0.28535,0.739526 -0.309823,1.129007 -0.02511,0.399634 0.512892,0.374799 0.196035,0.308228 -0.09104,-0.01913 -0.184193,-0.02625 -0.276289,-0.03938 -0.509408,-0.03285 -1.012519,-0.03884 -1.523099,-0.02348 -0.248387,0.0075 -0.935313,0.04263 -1.202503,0.03675 -0.07966,-0.0018 -0.158149,-0.01952 -0.237224,-0.02928 0.171408,-0.395119 0.551353,-0.756263 0.514224,-1.185356 -0.07333,-0.84745 -0.446867,-0.693572 -0.833896,-0.746995 -0.02495,-0.0034 0.05035,0.0036 0.07551,0.0024 0.122861,-0.0058 0.296522,-0.02573 0.416672,-0.03819 0.22216,-0.02935 0.443734,-0.07689 0.666179,-0.101548 0.02582,-0.0029 0.07416,-0.02414 0.07791,0.0016 0.02635,0.180647 -0.477045,0.285256 -0.140692,0.529296 0.03354,0.108818 0.0578,0.220942 0.100616,0.326453 0.0073,0.01797 0.05637,0.05189 0.04622,0.03536 -0.202076,-0.329272 -0.664977,-0.516244 -0.9701,-0.725868 -0.183345,-0.08545 -0.390609,-0.204428 -0.60055,-0.219458 -0.611211,-0.04376 -1.206653,0.249265 -1.781006,0.405809 -0.08042,0.03041 -0.155777,0.08212 -0.241275,0.09124 -0.129716,0.01383 0.0065,-0.501435 -0.25168,-0.525857 1.062633,1.062633 -0.440157,2.565422 -1.502789,1.502789 z"
       inkscape:connector-curvature="0" />
    <path
       style="fill:#a05a2c;stroke:none"
       d="m 4.5592898,60.887525 c 0,0 68.6462572,-20.348435 47.0017032,-46.867016 C 29.916444,-12.498072 45.282796,8.6109434 42.261641,19.006569 39.240485,29.402194 19.284305,54.802213 4.5592898,60.887525 z"
       id="path5379-0"
       inkscape:connector-curvature="0" />
    <path
       style="fill:#a05a2c;fill-opacity:1;fill-rule:nonzero;stroke:none"
       id="path5927"
       d="m 4.2048054,60.329609 c 0.038899,-0.175511 0.068159,-0.35344 0.1166973,-0.526534 0.4176264,-1.48929 1.0303729,-2.917635 1.6831208,-4.316297 0.969803,-2.078025 1.1622037,-2.36242 2.259869,-4.395436 0.95514,-1.69181 1.9706295,-3.350007 3.0373575,-4.973737 0.476703,-0.725619 0.960622,-1.409644 1.535905,-2.057372 0.66534,-0.583637 0.579872,-0.619859 2.06884,0.739932 0.159615,0.145767 -0.105963,0.419564 -0.174709,0.624501 -0.248095,0.739587 -0.643263,1.469629 -0.972138,2.174756 -1.109128,2.282559 -2.240187,4.554249 -3.442684,6.789173 -0.7585305,1.28832 -1.4437435,2.63961 -2.3887385,3.806412 0.201363,-0.665199 0.05947,-0.120216 -1.0807048,-1.558886 -0.016265,-0.02052 -0.097139,0.0058 -0.077683,-0.01171 0.057174,-0.05151 0.1373956,-0.06935 0.2061123,-0.103992 0.091343,-0.04604 0.1820339,-0.09341 0.2740658,-0.138058 0.1308412,-0.06348 0.2630008,-0.124205 0.3945007,-0.186308 0.818194,-0.351985 2.007676,-1.038087 2.7386005,0.03212 0.222695,0.326065 0.03925,0.788736 0.05888,1.183104 -0.103984,0.195498 -0.18953,0.401981 -0.311952,0.586494 C 9.6038755,58.790957 8.7242125,59.506642 7.9598535,60.06631 7.5003583,60.389758 6.454734,61.237623 5.8894246,60.473101 5.1078143,59.416054 5.721503,58.814008 6.201785,58.107404 c 1.9110115,-2.559332 4.297098,-4.698098 6.707461,-6.771828 0.70902,-0.545193 1.366523,-1.185219 2.140502,-1.644761 0.12068,-0.07165 0.247479,-0.222961 0.380903,-0.179421 1.978404,0.645613 1.694626,0.423521 1.420701,1.814966 -0.112767,0.190631 -0.2178,0.386054 -0.338299,0.571894 -0.189156,0.291725 -0.715025,0.99751 -0.905775,1.251844 -0.577317,0.769757 -1.181994,1.513059 -1.795305,2.25418 -0.756292,0.868264 -1.421255,1.812443 -2.1742,2.682889 -0.06312,0.06181 -0.1014,0.193705 -0.189351,0.185425 -0.609665,-0.0574 -1.376694,0.07094 -1.7988975,-0.372606 -0.302043,-0.317308 0.06873,-0.882526 0.209144,-1.297493 0.09581,-0.283142 0.3123685,-0.510247 0.4851025,-0.754196 0.478035,-0.675119 0.932152,-1.187009 1.467725,-1.825408 1.366596,-1.591032 2.858211,-3.068003 4.441081,-4.442383 0.45591,-0.344021 1.388704,-1.075131 1.992183,-0.397815 0.347693,0.390233 0.287598,1.018227 0.29024,1.540879 0.001,0.203916 -0.180629,0.365835 -0.279701,0.54407 -0.125369,0.225547 -0.262228,0.444513 -0.393342,0.66677 -1.067614,1.600562 -2.403083,3.000411 -3.708808,4.406254 -0.31431,0.336871 -0.606464,0.695823 -0.947837,1.006684 -0.04655,0.04239 -0.110137,0.170346 -0.146637,0.119047 -1.287847,-1.810025 -0.326441,-1.804671 -1.206566,-1.761021 0.925792,-0.927419 1.990846,-1.69915 3.071594,-2.433757 0.592508,-0.391977 1.217205,-0.730616 1.853262,-1.045058 -0.08453,-0.07029 -0.220257,0.283412 -0.219697,0.191908 3.67e-4,-0.05991 0.310956,-0.838958 0.312953,-0.844227 0.441598,-1.214537 1.078504,-2.339513 1.750803,-3.438014 0.677818,-1.033382 0.438483,-1.203459 1.607857,0.785796 0.05495,0.09347 -0.0354,0.224075 -0.103681,0.308295 -0.222116,0.27397 -0.5005,0.497072 -0.75075,0.745608 -1.964687,1.881088 -4.028365,3.661934 -6.163536,5.346947 -0.227956,0.162683 -1.464739,1.081142 -1.798442,0.739344 -0.44016,-0.450837 -0.631475,-1.116426 -0.749231,-1.7354 -0.01646,-0.08652 0.636529,-0.981495 0.674184,-1.034682 0.615968,-0.854031 1.407785,-1.546031 2.161689,-2.270657 0.153316,-0.141846 0.303501,-0.287125 0.452714,-0.433274 0.01787,-0.0175 0.05285,-0.07905 0.05206,-0.05404 -8.89e-4,0.02818 -0.06461,0.04092 -0.05245,0.06635 0.264756,0.553638 0.574738,1.084489 0.862107,1.626734 0.09011,0.0158 0.297844,-0.03986 0.270339,0.0474 -0.05158,0.163632 -0.260777,0.223024 -0.390851,0.334902 -0.200397,0.172364 -0.39923,0.34655 -0.600559,0.517822 -0.711959,0.605666 -1.441557,1.184154 -2.181741,1.754691 -0.495636,0.367146 -1.9902405,1.500359 -2.6531285,0.737648 -0.829966,-0.95495 -0.425539,-1.380714 -0.03746,-2.086001 0.638514,-0.927933 1.4627985,-1.695383 2.2857285,-2.454352 0.210217,-0.225685 0.591791,-0.52862 0.736769,-0.803229 0.141864,-0.169684 0.244006,-0.376887 0.396819,-0.53793 0.02759,-0.02908 -0.06756,0.05944 -0.0675,0.09952 5.01e-4,0.353204 0.04609,0.704903 0.06914,1.057355 0.518898,0.07898 1.051468,0.09468 1.556694,0.236944 0.06506,0.01832 -0.07259,0.114043 -0.109759,0.170498 -0.06874,0.104422 -0.145362,0.203903 -0.20796,0.31212 -0.299072,0.517021 -0.541378,1.09761 -0.806069,1.633023 -0.618259,1.267779 -1.317523,2.490784 -2.080038,3.676551 -0.08024,0.118577 -0.160486,0.237153 -0.240728,0.35573 -0.8399335,1.326633 -2.7160755,0.138789 -1.8761435,-1.187844 l 0,0 c 0.06377,-0.10888 0.127534,-0.217759 0.1913,-0.326639 0.663011,-1.185294 1.3128875,-2.37741 1.9357325,-3.584402 0.417678,-0.778865 0.804862,-1.578966 1.387732,-2.250994 0.07575,-0.08734 0.119922,-0.242128 0.234787,-0.255315 0.579969,-0.06658 1.167416,0.01821 1.751125,0.02732 0.03139,0.364598 0.109412,0.728165 0.09417,1.093795 -0.0057,0.136276 -0.362504,0.525568 -0.439466,0.674101 -0.291942,0.41953 -0.62136,0.813916 -0.973329,1.184525 -0.665893,0.698666 -1.346039,1.383761 -1.983696,2.109049 -0.517999,0.428294 0.313951,-0.180203 -0.670771,-0.940079 -0.241691,-0.186506 -0.6116985,-0.01158 -0.9144385,-0.05092 -0.03415,-0.0044 0.05838,-0.03662 0.08638,-0.05667 0.4369235,-0.312859 0.35281,-0.260782 0.8635555,-0.681477 0.72514,-0.595855 1.450709,-1.195241 2.201246,-1.759154 0.242296,-0.182048 1.008595,-0.74753 1.336305,-0.894763 0.259654,-0.116657 0.540507,-0.178797 0.810761,-0.268195 0.32038,0.541854 0.708148,1.049155 0.961141,1.625561 0.03586,0.0817 -0.09687,0.150058 -0.150496,0.221373 -0.155529,0.206825 -0.353823,0.382173 -0.516125,0.583213 -0.64075,0.711561 -1.339669,1.370724 -1.935417,2.122984 -0.113804,0.138811 -0.22316,0.281392 -0.341412,0.416435 -0.06078,0.06941 -0.129589,0.261219 -0.195122,0.196284 -0.386472,-0.38294 -0.511399,-1.003916 -0.947821,-1.328784 -0.305155,-0.227154 -0.982707,0.452964 -0.437294,-0.03464 0.145843,-0.130385 0.290742,-0.261823 0.436113,-0.392734 1.97366,-1.852061 3.98202,-3.667734 6.099853,-5.355335 0.115405,-0.09272 1.632039,-1.369367 1.84306,-1.301971 2.120092,0.677107 1.533533,1.394367 0.971803,2.405292 -0.576053,1.052016 -1.163561,2.098797 -1.664147,3.189828 -0.238463,0.479719 -0.110266,0.21217 -0.300873,0.626654 -0.07196,0.156493 -0.190283,0.420674 -0.27903,0.543286 -0.195536,0.270147 -0.270052,0.301793 -0.506197,0.472267 -0.540467,0.325767 -1.064919,0.677036 -1.575475,1.048416 -1.032025,0.759234 -2.069358,1.510862 -3.090017,2.285387 -1.129506,0.595194 -0.538271,0.517338 -1.643442,-1.461286 -0.01853,-0.03317 0.03921,-0.06519 0.06151,-0.09596 0.141994,-0.195941 0.294111,-0.384348 0.442482,-0.575505 0.12781,-0.164667 0.25609,-0.328968 0.384135,-0.493451 1.156505,-1.397571 2.3957,-2.725185 3.518713,-4.150236 0.138639,-0.187649 0.274874,-0.377098 0.415918,-0.562946 0.07311,-0.09634 0.148475,-0.375926 0.22645,-0.283479 0.263007,0.311823 0.156326,0.880031 0.482897,1.124485 0.70496,0.527697 1.491688,-0.386892 0.770635,0.301191 -1.404143,1.454569 -2.779462,2.936342 -4.15996,4.413298 -1.108719,1.194908 -0.473192,0.502511 -1.450846,1.581773 -0.13654,0.15073 -0.211524,0.494871 -0.41025,0.451619 -0.199478,-0.04342 -0.0031,-0.49989 -0.189941,-0.582247 -1.532006,-0.675442 -2.1115985,0.239149 -1.6950085,-0.373513 0.6659255,-0.951522 1.3145175,-1.916333 2.0517335,-2.815573 0.943128,-1.197298 1.925276,-2.362141 2.900508,-3.533222 0.224399,0.970571 -0.06571,0.201874 1.661802,1.011413 0.03218,0.01508 -0.04212,0.05769 -0.06767,0.0824 -0.13218,0.127797 -0.270108,0.249511 -0.40492,0.374528 -0.206867,0.191839 -0.414414,0.382952 -0.620117,0.57604 -0.278352,0.261282 -0.554689,0.524703 -0.832033,0.787055 -2.211109,2.095766 -4.448811,4.163988 -6.6009615,6.321125 -0.122263,0.122926 -0.23793,0.484781 -0.366784,0.368782 -0.3044,-0.274033 -0.1519446,-0.885882 -0.4800064,-1.131094 -0.7034166,-0.525774 -1.5438456,0.311902 -0.8309559,-0.252794 0.09519,-0.0754 0.1887767,-0.152808 0.283165,-0.229212 0.3555936,-0.283769 0.69944,-0.575796 1.0299703,-0.888869 0.08431,-0.07986 0.498154,-0.489866 0.621962,-0.600135 0.03902,-0.03475 0.08307,-0.0634 0.124607,-0.09511 0.07416,0.235521 0.03718,0.54338 0.222492,0.706563 0.270617,0.238297 0.677805,0.246657 1.012466,0.3809 0.01194,0.0048 -0.02513,0.0058 -0.03717,0.01032 -0.09282,0.03487 -0.185422,0.07039 -0.277244,0.107812 -0.124004,0.05054 -0.246693,0.104251 -0.370173,0.156057 -0.135218,0.05673 -0.270616,0.113036 -0.405924,0.169554 -0.304944,0.119438 -0.606376,0.260797 -0.916538,0.366272 -0.1268572,0.04314 -0.2808406,0.204277 -0.3840208,0.118793 -1.4325539,-1.186864 -1.444728,-0.919985 -1.121329,-1.732937 0.6602367,-1.258489 1.3840973,-2.484188 2.0227828,-3.754516 1.160421,-2.240594 2.2892405,-4.497717 3.4952535,-6.714502 0.15755,-0.288167 0.3151,-0.576335 0.47265,-0.864502 0.119577,-0.209385 0.241941,-0.417202 0.35873,-0.628155 0.08253,-0.149077 0.14153,-0.312144 0.239162,-0.451799 0.02006,-0.0287 0.06676,-0.04474 0.09973,-0.03296 1.95101,0.69689 2.14545,0.122747 1.837683,0.858874 -1.354591,2.314498 -2.539752,4.72544 -3.877968,7.049394 -0.645383,1.170758 -1.6796295,3.043627 -2.3232735,4.224156 -0.680144,1.24748 -1.3601669,2.498125 -1.9698617,3.782323 -0.055762,0.117452 -0.1023308,0.239052 -0.1534961,0.358578 -0.3432906,1.487592 -2.4470638,1.002106 -2.1037733,-0.485486 z"
       inkscape:connector-curvature="0" />
  </g>
</svg>
