<?xml version="1.0" encoding="UTF-8" standalone="no"?>
<!-- Created with Inkscape (http://www.inkscape.org/) -->

<svg
   xmlns:dc="http://purl.org/dc/elements/1.1/"
   xmlns:cc="http://creativecommons.org/ns#"
   xmlns:rdf="http://www.w3.org/1999/02/22-rdf-syntax-ns#"
   xmlns:svg="http://www.w3.org/2000/svg"
   xmlns="http://www.w3.org/2000/svg"
   xmlns:sodipodi="http://sodipodi.sourceforge.net/DTD/sodipodi-0.dtd"
   xmlns:inkscape="http://www.inkscape.org/namespaces/inkscape"
   width="64px"
   height="64px"
   id="svg5371"
   version="1.1"
   inkscape:version="0.48.4 r9939"
   sodipodi:docname="ear2.svg">
  <defs
     id="defs5373" />
  <sodipodi:namedview
     id="base"
     pagecolor="#ffffff"
     bordercolor="#666666"
     borderopacity="1.0"
     inkscape:pageopacity="0.0"
     inkscape:pageshadow="2"
     inkscape:zoom="8.09375"
     inkscape:cx="32"
     inkscape:cy="32.621746"
     inkscape:current-layer="layer1"
     showgrid="true"
     inkscape:document-units="px"
     inkscape:grid-bbox="true"
     inkscape:window-width="1366"
     inkscape:window-height="705"
     inkscape:window-x="-8"
     inkscape:window-y="-8"
     inkscape:window-maximized="1" />
  <metadata
     id="metadata5376">
    <rdf:RDF>
      <cc:Work
         rdf:about="">
        <dc:format>image/svg+xml</dc:format>
        <dc:type
           rdf:resource="http://purl.org/dc/dcmitype/StillImage" />
        <dc:title />
      </cc:Work>
    </rdf:RDF>
  </metadata>
  <g
     id="layer1"
     inkscape:label="Layer 1"
     inkscape:groupmode="layer">
    <path
       style="fill:#a05a2c;stroke:none"
       d="m 4.6953741,57.622985 c 0,0 17.2673879,-57.37865211 39.1644369,-57.49944927 C 65.756859,0.00273847 65.881986,15.102384 61.002073,21.504633 c -4.879914,6.40225 -43.043343,38.051106 -48.17351,38.171903 -5.1301649,0.120798 -7.7578108,0 -8.0080629,-1.087175 -0.2502519,-1.087173 -0.125126,-0.966376 -0.125126,-0.966376 z"
       id="path5935"
       inkscape:connector-curvature="0" />
    <path
       style="fill:#782121;stroke:none;stroke-width:1px;stroke-linecap:butt;stroke-linejoin:miter;stroke-opacity:1"
       d="m 13.96139,53.150579 c 0,0 6.42471,-37.683398 19.768339,-41.142857 13.34363,-3.4594594 17.667954,5.189189 18.03861,9.266409 0.370657,4.07722 -31.258687,31.752896 -37.806949,31.876448 z"
       id="path5937"
       inkscape:connector-curvature="0" />
    <path
       style="fill:#d35f5f;stroke:none"
       d="m 16.060161,49.136811 c 0,0 5.857872,-32.910068 18.024223,-35.931319 12.166352,-3.021253 16.10915,4.531878 16.447103,8.092639 0.337956,3.560761 -28.500802,27.730779 -34.471326,27.83868 z"
       id="path5937-2"
       inkscape:connector-curvature="0" />
  </g>
</svg>
