<?xml version="1.0" encoding="UTF-8" standalone="no"?>
<!-- Created with Inkscape (http://www.inkscape.org/) -->

<svg
   xmlns:dc="http://purl.org/dc/elements/1.1/"
   xmlns:cc="http://creativecommons.org/ns#"
   xmlns:rdf="http://www.w3.org/1999/02/22-rdf-syntax-ns#"
   xmlns:svg="http://www.w3.org/2000/svg"
   xmlns="http://www.w3.org/2000/svg"
   xmlns:sodipodi="http://sodipodi.sourceforge.net/DTD/sodipodi-0.dtd"
   xmlns:inkscape="http://www.inkscape.org/namespaces/inkscape"
   width="64px"
   height="64px"
   id="svg5371"
   version="1.1"
   inkscape:version="0.48.4 r9939"
   sodipodi:docname="ear3.svg">
  <defs
     id="defs5373" />
  <sodipodi:namedview
     id="base"
     pagecolor="#ffffff"
     bordercolor="#666666"
     borderopacity="1.0"
     inkscape:pageopacity="0.0"
     inkscape:pageshadow="2"
     inkscape:zoom="8.09375"
     inkscape:cx="32"
     inkscape:cy="32.621746"
     inkscape:current-layer="layer1"
     showgrid="true"
     inkscape:document-units="px"
     inkscape:grid-bbox="true"
     inkscape:window-width="1366"
     inkscape:window-height="705"
     inkscape:window-x="-8"
     inkscape:window-y="-8"
     inkscape:window-maximized="1" />
  <metadata
     id="metadata5376">
    <rdf:RDF>
      <cc:Work
         rdf:about="">
        <dc:format>image/svg+xml</dc:format>
        <dc:type
           rdf:resource="http://purl.org/dc/dcmitype/StillImage" />
        <dc:title></dc:title>
      </cc:Work>
    </rdf:RDF>
  </metadata>
  <g
     id="layer1"
     inkscape:label="Layer 1"
     inkscape:groupmode="layer">
    <path
       style="fill:#552200;stroke:none"
       d="m 0.67072298,49.594565 c 0,0 -2.42274238,-33.603335 19.34003402,-31.48187 21.762776,2.121464 26.461203,17.222587 25.165718,24.180071 -1.295486,6.957486 -19.632825,20.540437 -19.632825,20.540437 0,0 -17.5377688,6.236927 -24.87292702,-13.238638 z"
       id="path5959"
       inkscape:connector-curvature="0" />
    <path
       style="fill:#c87137;stroke:none"
       d="m 4.0772201,49.525269 c 0,0 0.310726,-16.69301 7.7681499,-17.566482 7.457424,-0.873471 14.086245,2.329257 14.086245,2.329257 0,0 11.393287,5.240829 8.389602,12.228601 -3.003684,6.987772 -14.811272,12.810914 -14.811272,12.810914 0,0 -6.110945,1.649891 -15.4327249,-9.80229 z"
       id="path5961"
       inkscape:connector-curvature="0" />
    <path
       style="fill:#552200;fill-opacity:1;fill-rule:nonzero;stroke:none"
       id="path5993"
       d="m 21.260424,18.418462 c 2.510993,0.123868 5.018252,0.331453 7.524429,0.530898 1.832386,0.142927 3.664397,0.291455 5.498245,0.41473 0.262137,0.01668 0.52439,0.03236 0.786928,0.04125 0.07318,0.0025 0.311069,0.0032 0.366212,0.02721 0.176216,0.07668 0.333812,0.190522 0.500718,0.285784 -0.04355,0.373983 0.01866,0.776309 -0.130643,1.121949 -0.06817,0.157821 -0.299874,0.16935 -0.457152,0.238769 -0.241315,0.106511 -0.742612,0.247463 -0.976701,0.316195 -0.25434,0.07468 -0.909937,0.262829 -1.166992,0.336751 -0.457622,0.131055 -0.918571,0.24974 -1.382337,0.356886 -0.08456,0.01954 -0.247149,0.143216 -0.254105,0.05671 -0.0076,-0.09434 0.232088,-0.0458 0.247473,-0.139186 0.06584,-0.399632 -0.01627,-0.809875 -0.0244,-1.214812 1.667712,0.180341 3.325487,0.439264 4.977634,0.727179 0.415809,0.128028 1.100206,0.151456 1.480992,0.394576 0.153085,0.09774 0.394141,0.177366 0.41055,0.358249 0.116555,1.284902 -0.164011,1.151108 -0.993288,1.432337 -1.537729,0.20011 -3.123488,0.144101 -4.635763,-0.213418 -0.273131,-0.06457 -0.540056,-0.153034 -0.810085,-0.229551 -0.916111,-0.304783 -1.765367,-0.760545 -2.468998,-1.422895 -0.274452,-0.343355 -0.571599,-0.666928 -0.856799,-1.001117 -0.09838,-0.09883 -0.733173,-0.844636 -0.503649,-1.007803 0.37843,-0.269022 0.887329,-0.27382 1.330993,-0.410731 0.241978,0.393917 0.479211,0.773844 0.817916,1.091711 0.221561,0.217089 0.483046,0.373214 0.759113,0.50773 0.326824,0.0965 0.597222,0.302192 0.859697,0.510807 0.146707,0.148102 0.286179,0.292451 0.476528,0.379843 0.191111,0.105542 0.377397,0.21624 0.546251,0.355622 0.165659,0.136744 0.0701,0.08188 0.172255,0.135798 0.185342,0.143705 0.382347,0.242629 0.608707,0.299008 0.163316,0.02616 0.319918,0.08183 0.479885,0.122509 0.516454,0.130233 0.148099,1.590986 -0.368355,1.460752 l 0,0 c -0.166564,-0.04176 -0.330791,-0.0929 -0.500851,-0.119438 -0.396986,-0.108584 -0.765281,-0.27247 -1.091327,-0.527809 -0.180441,-0.135239 -0.336744,-0.290711 -0.54508,-0.384538 -0.265296,-0.144081 -0.521209,-0.313153 -0.720865,-0.543183 -0.178387,-0.144029 -0.343216,-0.262885 -0.572495,-0.323867 -0.42152,-0.199616 -0.821263,-0.43666 -1.163139,-0.758729 -0.321112,-0.307654 -0.591565,-0.626427 -0.805332,-1.018607 -0.03357,-0.06159 -0.08039,-0.119408 -0.09414,-0.188187 -0.0051,-0.02543 0.04336,0.02844 0.06504,0.04266 0.409636,-0.172052 0.886116,-0.233496 1.228907,-0.516158 0.205232,-0.169232 -0.315285,-0.632767 0.01503,-0.281305 0.05532,0.05886 0.11111,0.117261 0.166664,0.175891 0.248785,0.287429 0.497111,0.575025 0.730179,0.875504 0.531868,0.469333 1.202301,0.739225 1.867948,0.959028 0.63954,0.167409 0.806443,0.228861 1.482809,0.327621 1.06571,0.155609 2.150216,0.172048 3.224906,0.159237 0.438286,0.27745 -0.121996,-0.126072 0.123944,1.06533 0.01824,0.08838 0.181631,0.06436 0.232311,0.139035 0.03444,0.05074 -0.115451,-0.04271 -0.175472,-0.05529 -0.142155,-0.0298 -0.286357,-0.04886 -0.429813,-0.07158 -0.199367,-0.03158 -0.399088,-0.06089 -0.598632,-0.09134 -1.727711,-0.23707 -3.46594,-0.45896 -5.160422,-0.877964 -0.182761,-0.456517 -0.490051,-0.88127 -0.548284,-1.369551 -0.01693,-0.141971 0.229622,-0.172606 0.356502,-0.238516 0.08293,-0.04308 0.177504,-0.05861 0.267039,-0.08539 0.44217,-0.132237 0.888409,-0.251363 1.328375,-0.39117 0.616523,-0.177912 0.572612,-0.170621 1.193178,-0.32828 0.165119,-0.04195 0.331168,-0.08016 0.496426,-0.121563 0.121267,-0.03038 0.23855,-0.08337 0.363131,-0.09376 0.02132,-0.0018 0.0108,0.04141 0.0162,0.06212 -8.96e-4,0.337329 -0.0018,0.674658 -0.0027,1.011987 0.146436,0.07242 0.294946,0.140797 0.439308,0.217272 0.01165,0.0062 -0.026,-0.0052 -0.03918,-0.0053 -0.05614,-3.87e-4 -0.11225,0.0026 -0.168378,0.0039 -0.275011,0.0061 -0.550051,0.01109 -0.825133,0.01251 -1.862534,0.0037 -3.724615,-0.06292 -5.583358,-0.181223 -2.471288,-0.173984 -4.956301,-0.338122 -7.388569,-0.832482 -0.534066,0 -0.534066,-1.510566 0,-1.510566 z"
       inkscape:connector-curvature="0" />
    <path
       style="fill:#ff9955;stroke:none"
       d="m 6.1238866,50.093092 c 0,0 0.2570384,-14.451392 6.4259594,-15.20757 6.168921,-0.756178 11.652406,2.016473 11.652406,2.016473 0,0 9.424741,4.537065 6.940037,10.586486 -2.484705,6.04942 -12.252162,11.090603 -12.252162,11.090603 0,0 -5.055089,1.428335 -12.7662404,-8.485992 z"
       id="path5961-6"
       inkscape:connector-curvature="0" />
  </g>
</svg>
