<?xml version="1.0" encoding="UTF-8" standalone="no"?>
<!-- Created with Inkscape (http://www.inkscape.org/) -->

<svg
   xmlns:dc="http://purl.org/dc/elements/1.1/"
   xmlns:cc="http://creativecommons.org/ns#"
   xmlns:rdf="http://www.w3.org/1999/02/22-rdf-syntax-ns#"
   xmlns:svg="http://www.w3.org/2000/svg"
   xmlns="http://www.w3.org/2000/svg"
   xmlns:sodipodi="http://sodipodi.sourceforge.net/DTD/sodipodi-0.dtd"
   xmlns:inkscape="http://www.inkscape.org/namespaces/inkscape"
   width="419.46393"
   height="131.0256"
   id="svg2"
   version="1.1"
   inkscape:version="0.48.4 r9939"
   sodipodi:docname="mouth2_sad.svg">
  <defs
     id="defs4" />
  <sodipodi:namedview
     id="base"
     pagecolor="#ffffff"
     bordercolor="#666666"
     borderopacity="1.0"
     inkscape:pageopacity="0.0"
     inkscape:pageshadow="2"
     inkscape:zoom="1.0990218"
     inkscape:cx="102.614"
     inkscape:cy="10.20618"
     inkscape:document-units="px"
     inkscape:current-layer="layer1"
     showgrid="false"
     inkscape:window-width="1366"
     inkscape:window-height="705"
     inkscape:window-x="-8"
     inkscape:window-y="-8"
     inkscape:window-maximized="1"
     fit-margin-top="0"
     fit-margin-left="0"
     fit-margin-right="0"
     fit-margin-bottom="0"
     showguides="true"
     inkscape:guide-bbox="true">
    <inkscape:grid
       type="xygrid"
       id="grid3129"
       empspacing="5"
       visible="true"
       enabled="true"
       snapvisiblegridlinesonly="true"
       originx="-147.40381px"
       originy="-784.33386px" />
  </sodipodi:namedview>
  <metadata
     id="metadata7">
    <rdf:RDF>
      <cc:Work
         rdf:about="">
        <dc:format>image/svg+xml</dc:format>
        <dc:type
           rdf:resource="http://purl.org/dc/dcmitype/StillImage" />
        <dc:title></dc:title>
      </cc:Work>
    </rdf:RDF>
  </metadata>
  <g
     inkscape:label="Layer 1"
     inkscape:groupmode="layer"
     id="layer1"
     transform="translate(-147.40381,-137.00272)">
    <path
       sodipodi:type="arc"
       style="fill:#000000;fill-opacity:1;fill-rule:nonzero;stroke:none"
       id="path3911"
       sodipodi:cx="106.45831"
       sodipodi:cy="65.512802"
       sodipodi:rx="40.945503"
       sodipodi:ry="40.035603"
       d="m 147.40382,65.512802 a 40.945503,40.035603 0 1 1 -81.89101,0 40.945503,40.035603 0 1 1 81.89101,0 z"
       transform="translate(109.36821,135.18292)" />
    <path
       sodipodi:type="arc"
       style="fill:#000000;fill-opacity:1;fill-rule:nonzero;stroke:none"
       id="path3913"
       sodipodi:cx="350.76648"
       sodipodi:cy="71.882103"
       sodipodi:rx="39.580654"
       sodipodi:ry="39.125702"
       d="m 390.34713,71.882103 a 39.580654,39.125702 0 1 1 -79.1613,0 39.580654,39.125702 0 1 1 79.1613,0 z"
       transform="translate(143.76421,129.72352)" />
    <path
       sodipodi:type="arc"
       style="fill:#ffff00;fill-opacity:1;fill-rule:nonzero;stroke:none"
       id="path3911-1"
       sodipodi:cx="106.45831"
       sodipodi:cy="65.512802"
       sodipodi:rx="40.945503"
       sodipodi:ry="40.035603"
       d="m 147.40382,65.512802 a 40.945503,40.035603 0 1 1 -81.89101,0 40.945503,40.035603 0 1 1 81.89101,0 z"
       transform="matrix(0.77777778,0,0,0.72727273,133.02561,152.14015)" />
    <path
       sodipodi:type="arc"
       style="fill:#000000;fill-opacity:1;fill-rule:nonzero;stroke:none"
       id="path3911-1-7-4-0"
       sodipodi:cx="106.45831"
       sodipodi:cy="65.512802"
       sodipodi:rx="40.945503"
       sodipodi:ry="40.035603"
       d="m 147.40382,65.512802 a 40.945503,40.035603 0 1 1 -81.89101,0 40.945503,40.035603 0 1 1 81.89101,0 z"
       transform="matrix(0.35555556,0,0,0.34090908,177.97467,176.54201)" />
    <path
       sodipodi:type="arc"
       style="fill:#ffff00;fill-opacity:1;fill-rule:nonzero;stroke:none"
       id="path3911-1-4"
       sodipodi:cx="106.45831"
       sodipodi:cy="65.512802"
       sodipodi:rx="40.945503"
       sodipodi:ry="40.035603"
       d="m 147.40382,65.512802 a 40.945503,40.035603 0 1 1 -81.89101,0 40.945503,40.035603 0 1 1 81.89101,0 z"
       transform="matrix(0.75555556,0,0,0.72727273,414.55047,152.86984)" />
    <path
       sodipodi:type="arc"
       style="fill:#000000;fill-opacity:1;fill-rule:nonzero;stroke:none"
       id="path3911-1-7-4-0-8"
       sodipodi:cx="106.45831"
       sodipodi:cy="65.512802"
       sodipodi:rx="40.945503"
       sodipodi:ry="40.035603"
       d="m 147.40382,65.512802 a 40.945503,40.035603 0 1 1 -81.89101,0 40.945503,40.035603 0 1 1 81.89101,0 z"
       transform="matrix(0.35555556,0,0,0.34090908,458.04369,179.27171)" />
    <path
       sodipodi:type="arc"
       style="fill:#ffffff;fill-opacity:0.76190479;fill-rule:nonzero;stroke:none"
       id="path4043-2"
       sodipodi:cx="182.43497"
       sodipodi:cy="46.4049"
       sodipodi:rx="22.292551"
       sodipodi:ry="20.927702"
       d="m 204.72752,46.4049 a 22.292551,20.927702 0 1 1 -44.5851,0 22.292551,20.927702 0 1 1 44.5851,0 z"
       transform="matrix(0.65306122,0,0,0.65217392,86.676409,157.2381)" />
    <path
       sodipodi:type="arc"
       style="fill:#ffffff;fill-opacity:0.76190479;fill-rule:nonzero;stroke:none"
       id="path4043-2-4"
       sodipodi:cx="182.43497"
       sodipodi:cy="46.4049"
       sodipodi:rx="22.292551"
       sodipodi:ry="20.927702"
       d="m 204.72752,46.4049 a 22.292551,20.927702 0 1 1 -44.5851,0 22.292551,20.927702 0 1 1 44.5851,0 z"
       transform="matrix(0.5510204,0,0,0.58695653,385.81619,162.53926)" />
  </g>
</svg>
