<?xml version="1.0" encoding="UTF-8" standalone="no"?>
<!-- Created with Inkscape (http://www.inkscape.org/) -->

<svg
   xmlns:dc="http://purl.org/dc/elements/1.1/"
   xmlns:cc="http://creativecommons.org/ns#"
   xmlns:rdf="http://www.w3.org/1999/02/22-rdf-syntax-ns#"
   xmlns:svg="http://www.w3.org/2000/svg"
   xmlns="http://www.w3.org/2000/svg"
   xmlns:sodipodi="http://sodipodi.sourceforge.net/DTD/sodipodi-0.dtd"
   xmlns:inkscape="http://www.inkscape.org/namespaces/inkscape"
   width="419.46393"
   height="131.0256"
   id="svg2"
   version="1.1"
   inkscape:version="0.48.4 r9939"
   sodipodi:docname="eyes1_happy.svg">
  <defs
     id="defs4" />
  <sodipodi:namedview
     id="base"
     pagecolor="#ffffff"
     bordercolor="#666666"
     borderopacity="1.0"
     inkscape:pageopacity="0.0"
     inkscape:pageshadow="2"
     inkscape:zoom="1.0990218"
     inkscape:cx="102.614"
     inkscape:cy="10.20618"
     inkscape:document-units="px"
     inkscape:current-layer="layer1"
     showgrid="false"
     inkscape:window-width="1366"
     inkscape:window-height="705"
     inkscape:window-x="-8"
     inkscape:window-y="-8"
     inkscape:window-maximized="1"
     fit-margin-top="0"
     fit-margin-left="0"
     fit-margin-right="0"
     fit-margin-bottom="0"
     showguides="true"
     inkscape:guide-bbox="true">
    <inkscape:grid
       type="xygrid"
       id="grid3129"
       empspacing="5"
       visible="true"
       enabled="true"
       snapvisiblegridlinesonly="true"
       originx="-147.40381px"
       originy="-784.33386px" />
  </sodipodi:namedview>
  <metadata
     id="metadata7">
    <rdf:RDF>
      <cc:Work
         rdf:about="">
        <dc:format>image/svg+xml</dc:format>
        <dc:type
           rdf:resource="http://purl.org/dc/dcmitype/StillImage" />
        <dc:title></dc:title>
      </cc:Work>
    </rdf:RDF>
  </metadata>
  <g
     inkscape:label="Layer 1"
     inkscape:groupmode="layer"
     id="layer1"
     transform="translate(-147.40381,-137.00272)">
    <path
       style="fill:#000000;fill-opacity:1;fill-rule:nonzero;stroke:none"
       id="path4300"
       d="m 191.56274,203.32879 c -0.66246,-2.35021 -0.79947,-4.7612 -0.78339,-7.15197 0.10151,-3.6159 1.65465,-7.03485 3.5913,-10.33754 1.93535,-2.85774 4.5147,-5.47835 7.82957,-7.61159 0.68166,-0.43867 1.41734,-0.83273 2.12601,-1.24908 3.26013,-1.72047 6.86997,-3.19073 10.85514,-3.85549 0.77626,-0.12949 1.57053,-0.19628 2.35579,-0.29443 4.89527,-0.30933 8.74395,0.89736 12.00865,3.49667 0.5886,0.46863 1.08765,0.99069 1.63148,1.48604 2.94892,3.07796 4.9286,6.531 6.71359,10.01293 1.77493,3.4632 3.06642,7.0339 3.96975,10.66068 0.50328,2.52635 0.96003,5.05462 1.19262,7.60146 1.72742,12.9735 -9.97393,13.76491 -11.70134,0.79142 l 0,0 c -0.42008,-2.29101 -0.99312,-4.56536 -1.48385,-6.84886 -0.81275,-3.13776 -2.04619,-6.20445 -3.50877,-9.21944 -1.3703,-2.7068 -2.82337,-5.40512 -4.87322,-7.89544 -0.38526,-0.42271 -0.83852,-0.81369 -1.20264,-1.24581 -0.32019,-0.37999 0.45514,-0.47928 -0.80913,-0.45604 -2.79155,0.26889 -5.26597,1.34963 -7.50714,2.51117 -2.67641,1.48739 -4.87931,3.2452 -6.36938,5.44368 -1.33712,2.30558 -2.61855,4.64792 -2.78728,7.17167 -0.10664,1.94572 0.0657,3.88642 0.12763,5.83177 2.52799,12.61211 -8.84739,13.77031 -11.37539,1.1582 z"
       inkscape:connector-curvature="0" />
    <path
       style="fill:#000000;fill-opacity:1;fill-rule:nonzero;stroke:none"
       id="path4302"
       d="m 470.25925,207.63925 c 0.0113,-2.03213 0.1741,-4.0628 0.32419,-6.09254 0.20491,-3.39175 1.44321,-6.68318 3.16005,-9.89387 1.91801,-3.20457 5.01294,-6.0242 8.56257,-8.62305 2.63055,-1.76832 5.70993,-3.43161 9.5553,-4.09356 0.74492,-0.12823 1.52033,-0.17678 2.2805,-0.26517 5.38325,-0.24243 8.80061,1.11374 12.65509,3.21903 3.55691,2.27155 6.0303,5.03854 8.24746,7.85129 2.03036,2.70768 3.46568,5.55872 4.88189,8.40328 1.07268,2.26588 1.82401,4.57997 2.62539,6.88546 0.3387,1.17593 0.83034,2.33621 1.09389,3.51931 2.78272,9.4594 -7.13058,10.55663 -9.9133,1.09724 l 0,0 c -0.52229,-1.03773 -0.91544,-2.09637 -1.32748,-3.15191 -0.88615,-2.13397 -1.6438,-4.28912 -2.6867,-6.39838 -1.31616,-2.53721 -2.58456,-5.09365 -4.39416,-7.51959 -1.58694,-2.08991 -3.34936,-4.14436 -5.72477,-5.94438 -1.08953,-0.67032 -2.22516,-1.51815 -3.82089,-1.69792 -2.08502,-0.002 -3.92282,1.46505 -5.2137,2.287 -2.64161,1.98907 -5.03683,4.1044 -6.5369,6.51925 -1.46315,2.68109 -2.43149,5.44237 -2.75902,8.26827 -0.29153,1.87637 -0.4702,3.77865 -1.02375,5.63024 0,9.52843 -9.98566,9.52843 -9.98566,0 z"
       inkscape:connector-curvature="0" />
  </g>
</svg>
