<?xml version="1.0" encoding="UTF-8" standalone="no"?>
<!-- Created with Inkscape (http://www.inkscape.org/) -->

<svg
   xmlns:dc="http://purl.org/dc/elements/1.1/"
   xmlns:cc="http://creativecommons.org/ns#"
   xmlns:rdf="http://www.w3.org/1999/02/22-rdf-syntax-ns#"
   xmlns:svg="http://www.w3.org/2000/svg"
   xmlns="http://www.w3.org/2000/svg"
   xmlns:sodipodi="http://sodipodi.sourceforge.net/DTD/sodipodi-0.dtd"
   xmlns:inkscape="http://www.inkscape.org/namespaces/inkscape"
   width="64px"
   height="64px"
   id="svg3985"
   version="1.1"
   inkscape:version="0.48.4 r9939"
   sodipodi:docname="hand.svg">
  <defs
     id="defs3987">
    <clipPath
       clipPathUnits="userSpaceOnUse"
       id="clipPath4821">
      <g
         id="g4823"
         transform="matrix(0.44096998,0.89752185,-0.89752185,0.44096998,47.098411,-0.32970295)"
         style="fill:#d40000">
        <path
           sodipodi:nodetypes="cscscssssc"
           inkscape:connector-curvature="0"
           id="path4825"
           d="m 13.303449,52.816152 c 0,0 -1.830091,-0.01244 -5.1712338,-11.752805 -3.3552608,-11.789978 4.3930528,-11.38648 4.3930528,-11.38648 0,0 2.525961,-0.05972 3.380669,1.621977 0.854712,1.681695 1.098182,9.069208 1.098182,9.069208 0,0 2.23912,5.384875 3.43223,7.5159 1.720639,3.07325 1.130135,2.567227 2.868214,4.4633 1.738082,1.896071 1.622844,0.204396 2.153318,2.398808 0.680632,2.81556 -0.876211,3.162022 -3.363725,2.85564 -1.902643,-0.234345 -8.790707,-4.785548 -8.790707,-4.785548 z"
           style="fill:#d40000;stroke:none" />
        <path
           transform="matrix(2.2161258,-0.58643586,0.70346721,1.5364394,-49.39697,30.040218)"
           d="m 33.482625,22.424711 c 0,4.947107 -2.876441,8.957529 -6.42471,8.957529 -3.54827,0 -6.424711,-4.010422 -6.424711,-8.957529 0,-4.947106 2.876441,-8.957529 6.424711,-8.957529 3.548269,0 6.42471,4.010423 6.42471,8.957529 z"
           sodipodi:ry="8.9575291"
           sodipodi:rx="6.4247103"
           sodipodi:cy="22.424711"
           sodipodi:cx="27.057915"
           id="path4827"
           style="fill:#d40000;fill-opacity:1;fill-rule:nonzero;stroke:none"
           sodipodi:type="arc" />
        <path
           sodipodi:nodetypes="cscscssssc"
           inkscape:connector-curvature="0"
           id="path4829"
           d="m 17.604673,43.500008 c 0,0 -1.946103,-0.501064 -1.795793,-13.761187 0.150945,-13.316153 8.279541,-10.82508 8.279541,-10.82508 0,0 2.710381,0.610586 3.089622,2.61026 0.379245,1.999673 -1.696075,9.847826 -1.696075,9.847826 0,0 0.684032,6.27035 1.281848,8.833651 0.862136,3.696653 0.392856,3.006075 1.645609,5.467145 1.252758,2.46107 1.664604,0.648048 1.536325,3.10145 -0.164591,3.147859 -1.932961,3.097774 -4.486672,2.111726 -1.953275,-0.754205 -7.854405,-7.385791 -7.854405,-7.385791 z"
           style="fill:#d40000;stroke:none" />
        <path
           sodipodi:nodetypes="cscscssssc"
           inkscape:connector-curvature="0"
           id="path4831"
           d="m 26.160137,42.819448 c 0,0 -2.149931,-0.445246 -0.785741,-14.896 1.369951,-14.511817 10.314029,-12.218368 10.314029,-12.218368 0,0 3.002115,0.525065 3.249718,2.68353 0.247604,2.158466 -2.800283,10.813902 -2.800283,10.813902 0,0 0.206625,6.794368 0.649984,9.55545 0.639389,3.981884 0.172289,3.253941 1.363583,5.869846 1.191299,2.615905 1.819177,0.619882 1.453452,3.298764 -0.469249,3.437165 -2.459339,3.473947 -5.250917,2.531837 -2.135212,-0.720598 -8.193825,-7.638961 -8.193825,-7.638961 z"
           style="fill:#d40000;stroke:none" />
      </g>
    </clipPath>
    <clipPath
       clipPathUnits="userSpaceOnUse"
       id="clipPath4935">
      <path
         style="opacity:0.43805309;fill:#792ca0;fill-opacity:1;stroke:none"
         d="m 20.096024,22.862211 c 0,0 7.893241,-7.164674 24.201645,-11.39892 16.612638,-4.3132375 19.251486,-2.0885153 19.251486,-2.0885153 0,0 1.587448,1.2452333 0.12604,5.6276493 -0.81864,2.454909 -14.420054,11.237636 -14.420054,11.237636 0,0 -6.832026,4.175204 -9.428164,6.295216 -3.74401,3.057368 -3.235197,2.08595 -5.308022,5.002889 -2.072823,2.916945 -6.021547,5.837306 -8.939561,6.956787 -3.743986,1.436359 -8.362647,-2.121862 -8.801024,-5.955052 -0.335304,-2.931917 3.317654,-15.67769 3.317654,-15.67769 z"
         id="path4937"
         inkscape:connector-curvature="0"
         sodipodi:nodetypes="cscscssssc" />
    </clipPath>
  </defs>
  <sodipodi:namedview
     id="base"
     pagecolor="#ffffff"
     bordercolor="#666666"
     borderopacity="1.0"
     inkscape:pageopacity="0.0"
     inkscape:pageshadow="2"
     inkscape:zoom="8.4375"
     inkscape:cx="32"
     inkscape:cy="32"
     inkscape:current-layer="layer1"
     showgrid="true"
     inkscape:document-units="px"
     inkscape:grid-bbox="true"
     showguides="true"
     inkscape:guide-bbox="true"
     inkscape:window-width="1366"
     inkscape:window-height="705"
     inkscape:window-x="-8"
     inkscape:window-y="-8"
     inkscape:window-maximized="1" />
  <metadata
     id="metadata3990">
    <rdf:RDF>
      <cc:Work
         rdf:about="">
        <dc:format>image/svg+xml</dc:format>
        <dc:type
           rdf:resource="http://purl.org/dc/dcmitype/StillImage" />
        <dc:title></dc:title>
      </cc:Work>
    </rdf:RDF>
  </metadata>
  <g
     id="layer1"
     inkscape:label="Layer 1"
     inkscape:groupmode="layer">
    <g
       id="g4941"
       transform="matrix(1.0943022,-0.7463206,0.95508349,0.85510878,-33.219934,40.342534)">
      <path
         sodipodi:nodetypes="cscscssssc"
         inkscape:connector-curvature="0"
         id="path4655-6-5-4"
         d="m 19.979776,19.337908 c 0,0 5.959227,-7.097775 22.607019,-9.6946793 17.353951,-2.7070585 15.656924,-3.1749945 15.656924,-3.1749945 0,0 2.699416,0.1332632 1.238008,4.5156788 -0.81864,2.45491 -10.342834,11.731846 -10.342834,11.731846 0,0 -6.832026,4.175204 -9.428164,6.295216 -3.74401,3.057368 -3.235197,2.08595 -5.308022,5.002889 -2.072823,2.916945 -6.021547,5.837306 -8.939561,6.956787 -3.743986,1.436359 -7.250678,-0.515684 -7.689055,-4.348874 -0.335304,-2.931917 2.205685,-17.283869 2.205685,-17.283869 z"
         style="fill:#a05a2c;stroke:none" />
      <path
         sodipodi:nodetypes="cscscssssc"
         inkscape:connector-curvature="0"
         id="path4655-6-5-4-6"
         d="m 20.233946,22.946064 c 0,0 7.893241,-7.164674 24.201645,-11.39892 16.612638,-4.313237 19.251486,-2.0885148 19.251486,-2.0885148 0,0 1.587448,1.2452328 0.12604,5.6276488 -0.81864,2.454909 -14.420054,11.237637 -14.420054,11.237637 0,0 -6.832026,4.175204 -9.428164,6.295216 -3.74401,3.057368 -3.235197,2.08595 -5.308022,5.002889 -2.072823,2.916945 -6.021547,5.837306 -8.939561,6.956787 -3.743986,1.436359 -8.362647,-2.121862 -8.801024,-5.955052 -0.335304,-2.931917 3.317654,-15.677691 3.317654,-15.677691 z"
         style="fill:#a05a2c;stroke:none" />
      <path
         transform="translate(0.1328125,0.09375)"
         clip-path="url(#clipPath4935)"
         inkscape:connector-curvature="0"
         id="path4897"
         d="m 17.667954,36.571429 c 0,0 13.467181,4.07722 15.567567,-1.606178 2.100386,-5.683398 1.359074,1.359073 8.15444,-6.177606 6.795367,-7.53668 5.80695,-7.783784 5.80695,-7.783784 0,0 4.324325,3.335907 7.53668,-0.864865 3.212355,-4.200772 3.953668,-5.683398 3.953668,-5.683398 0,0 -0.247105,3.583012 3.583011,0.123553 3.830116,-3.45946 3.335908,-7.2895757 3.335908,-7.2895757 L 68.571429,19.027027 55.351351,34.34749 32.370656,49.667954 16.185328,44.602317 13.467181,33.482625 z"
         style="fill:#784421;stroke:none" />
      <path
         sodipodi:nodetypes="cscsc"
         inkscape:connector-curvature="0"
         id="path4939"
         d="m 59.851852,9.0074075 c 0,0 -12.918518,4.2666665 -16.237037,6.9925925 -3.318518,2.725926 -3.318518,-0.711111 -3.318518,-0.711111 0,0 -2.251852,0.474075 -4.622223,-0.592592 -1.677847,-0.755031 12.562963,-4.9777784 24.177778,-5.6888895 z"
         style="fill:#784421;stroke:none" />
    </g>
    <path
       style="fill:#502d16;fill-opacity:1;fill-rule:nonzero;stroke:none"
       id="path4949"
       d="m 2.9664715,43.233649 c -0.017886,-0.391835 0.067534,-0.794032 0.1505655,-1.176079 0.1657678,-0.610968 0.3389239,-1.217969 0.5489976,-1.81535 0.2178011,-0.59219 0.4658704,-1.170794 0.6652889,-1.76985 0.1769807,-0.526649 0.3384051,-1.058224 0.5307226,-1.579573 0.200874,-0.562015 0.4099506,-1.121235 0.6712716,-1.65821 0.2533259,-0.494738 0.5005103,-0.99292 0.7705982,-1.478768 0.3045083,-0.593149 0.6896692,-1.140665 1.0675032,-1.688638 0.3507775,-0.492395 0.727127,-0.96681 1.1220381,-1.424548 0.2302311,-0.190007 0.3984256,-0.455637 0.6429766,-0.629235 0.068452,-0.04859 0.1444503,-0.08557 0.2166754,-0.128349 0.4324161,0.107227 0.9329268,0.06526 1.2972478,0.32168 0.412605,0.290402 0.03823,1.277681 -0.09945,1.653402 -0.207777,0.524891 -0.384961,1.059292 -0.5533712,1.597964 -0.1889009,0.628409 -0.4039759,1.248901 -0.5591059,1.886834 -0.1568185,0.678464 -0.3212653,1.355762 -0.5125105,2.025393 -0.1637449,0.61061 -0.3179163,1.224303 -0.4930481,1.83176 -0.1384418,0.522309 -0.3172763,1.032134 -0.5057105,1.538112 -0.1489967,0.340346 -0.2475626,0.69913 -0.3520127,1.054777 -0.1116666,0.33432 -0.1967957,0.675658 -0.2994709,1.012561 -0.08694,0.33788 -0.2261693,0.659209 -0.3814531,0.970483 -0.017261,0.03284 -0.030115,0.06841 -0.051782,0.09853 -0.010187,0.01416 0.013443,-0.03247 0.016602,-0.04963 0.015187,-0.08247 0.054493,-0.166349 0.038323,-0.248631 C 6.8592855,43.384496 6.8354847,43.163553 6.7003723,43.019507 6.3218089,42.615916 6.166222,42.660979 5.7809711,42.668046 c -0.02037,-0.0032 -0.059581,0.01103 -0.061109,-0.0095 -9.065e-4,-0.0122 0.1749081,-0.204224 0.1774049,-0.206761 0.2318134,-0.235587 0.4769586,-0.460448 0.7183057,-0.686132 0.5405102,-0.485894 1.0990577,-0.950521 1.6159785,-1.461932 0.456682,-0.409818 0.8609726,-0.872058 1.2942527,-1.305388 0.3875,-0.419087 0.8078721,-0.798248 1.2752211,-1.125176 0.388842,-0.219889 0.750535,-0.475612 1.11453,-0.733051 0.409255,-0.320247 0.810184,-0.650959 1.221462,-0.968811 0.37271,-0.305882 0.782293,-0.553543 1.206478,-0.779514 0.226951,-0.112109 0.459902,-0.214256 0.702883,-0.280508 0.308168,0.574378 0.667962,1.123914 0.924504,1.723133 0.02373,0.05542 -0.08991,0.08036 -0.135481,0.119835 -0.295073,0.255604 -0.625136,0.462527 -0.957982,0.664942 -0.59903,0.344519 -1.215467,0.657554 -1.811382,1.00741 -0.546879,0.327063 -1.08056,0.677145 -1.609382,1.032743 -0.505912,0.360244 -1.005102,0.730527 -1.4972652,1.109424 -0.4377766,0.328494 -0.8978288,0.625786 -1.3513813,0.931798 -0.3898985,0.268006 -0.7908704,0.519585 -1.1952412,0.765059 -0.325865,0.233434 -0.642169,0.479895 -0.9588941,0.725497 -0.2496776,0.188324 -0.4737331,0.40591 -0.7000729,0.620602 -0.01178,0.0077 -0.041083,0.03584 -0.035339,0.02301 0.171493,-0.383097 0.3382887,-0.38874 0.1187176,-0.953405 -0.070444,-0.181159 -0.2516246,-0.296944 -0.3894718,-0.433981 -0.090305,-0.08977 -0.1774331,-0.05253 -0.062297,-0.08346 0.4788967,-0.01528 0.9443899,-0.124617 1.408233,-0.23606 0.739957,-0.192539 1.4932382,-0.325622 2.2394693,-0.490234 0.7354715,-0.15386 1.4365041,-0.424484 2.1351021,-0.694354 0.634209,-0.249039 1.269166,-0.495155 1.917936,-0.703882 0.45738,-0.13301 0.924267,-0.227554 1.381271,-0.361686 0.483717,-0.136092 0.968387,-0.264042 1.456844,-0.382162 0.337197,-0.09141 0.684297,-0.129645 1.024433,-0.206903 0.808435,-0.05853 0.505742,-0.0023 0.894317,1.746082 0.008,0.0362 -0.65248,0.403702 -0.683925,0.420379 -0.928101,0.448459 -1.922749,0.722462 -2.916541,0.980556 -1.069047,0.29007 -2.158209,0.489765 -3.255701,0.632754 -0.920073,0.09647 -1.8462719,0.134716 -2.7604225,0.281595 -0.7864386,0.111223 -1.5227892,0.386219 -2.2370685,0.722051 -0.6324533,0.323181 -1.2558616,0.664526 -1.8950363,0.974354 -0.1479982,0.07368 -0.262986,0.132607 -0.4139718,0.20087 -0.016885,0.0076 -0.062329,0.03468 -0.052183,0.01917 0.2637919,-0.403175 0.5120484,0.183698 0.2953565,-1.049005 -0.039149,-0.222711 -0.2836683,-0.352227 -0.4255025,-0.528341 0.014909,-0.01241 0.025742,-0.03325 0.044728,-0.03723 0.1692778,-0.03546 0.3453589,-0.01995 0.5182085,-0.02589 0.4994747,-0.01716 0.9991426,-0.02065 1.4988277,-0.02837 1.2411495,-0.02548 2.4824699,-0.0024 3.7235985,0.0093 1.0930145,0.01625 2.1789475,0.133116 3.2634145,0.258698 0.907818,0.109743 1.798116,0.315883 2.677092,0.563091 0.678019,0.192635 1.335671,0.447699 1.997934,0.686804 0.344723,0.132073 0.694893,0.243406 1.05835,0.309081 0.979013,0.275292 0.562043,0.313513 0.07327,2.005032 -0.0031,0.01075 -0.233565,0.04011 -0.34028,0.05472 -0.795873,0.160046 -1.610213,0.206878 -2.419903,0.232444 -1.14016,0.02076 -2.276489,-0.09428 -3.412275,-0.17708 -0.758599,-0.08593 -1.517351,-0.05903 -2.2773788,-0.03467 -0.692014,0.0236 -1.3785392,-0.06301 -2.0613368,-0.163934 -0.470578,-0.09534 -0.9445056,-0.146134 -1.4239094,-0.158979 -0.604247,0.0045 -1.2067528,0.0019 -1.8091996,-0.04711 -0.4629992,-0.0416 -0.9266893,-0.08607 -1.3832277,-0.175434 -0.012077,-0.006 -0.049336,-0.01482 -0.036232,-0.01801 0.6806876,-0.165629 0.5510791,0.322579 0.9449654,-1.283988 0.069459,-0.283308 -0.6222174,-0.562067 0.020346,-0.389233 0.9130524,0.216426 1.7960514,0.527907 2.6590711,0.893376 1.0230101,0.439217 1.9979172,0.977654 2.953662,1.546075 0.8009123,0.494073 1.6163523,0.95753 2.4666313,1.360981 0.77844,0.336778 1.594186,0.572592 2.39866,0.837361 0.775827,0.236152 1.550787,0.473568 2.320558,0.728907 0.521265,0.198342 1.040221,0.405411 1.574035,0.568406 0.37349,0.123215 0.748039,0.246988 1.127833,0.349793 1.159964,0.262232 0.563322,0.333186 0.18299,2.081941 -0.612127,-0.02313 -1.207636,-0.205793 -1.793371,-0.372534 C 17.185208,53.007606 16.314996,52.797259 15.433616,52.63266 14.3444,52.440134 13.268729,52.185312 12.212304,51.858411 11.228046,51.548756 10.310149,51.080604 9.4202455,50.565872 9.0597143,50.361957 8.7397395,50.09488 8.3851499,49.88187 8.2389886,49.794068 8.0867244,49.71683 7.9386087,49.632366 7.3293239,49.348007 6.7557244,48.998369 6.1809035,48.650887 5.7546992,48.393779 5.3247216,48.143505 4.8931693,47.895449 4.6056098,47.720495 4.316727,47.548411 4.0382043,47.359363 c 0.4648186,0.195259 1.101855,-0.03099 1.2616413,-0.539038 0.082038,-0.260845 0.038997,-0.419845 -0.010827,-0.628698 0.071815,0.02026 0.2946636,0.421722 0.3654701,0.519185 0.1927236,0.317955 0.4614683,0.568186 0.7241064,0.826801 0.4545246,0.488721 0.9605416,0.921243 1.4765472,1.342549 0.6681828,0.528639 1.3216892,1.075138 1.9823845,1.612991 0.6271893,0.523097 1.2821513,1.009581 1.9668893,1.454223 0.700115,0.405984 1.373656,0.855364 2.036452,1.319152 0.504544,0.3208 1.004212,0.649246 1.508689,0.970203 0.539624,0.316582 1.054169,0.67496 1.5524,1.05284 0.4151,0.272159 0.769977,0.617005 1.134162,0.950541 0.190382,0.152176 0.350572,0.346429 0.557303,0.477769 0.746484,0.458722 0.223706,0.484128 -0.803338,1.812754 -0.0422,0.05459 -0.128342,-0.05078 -0.191608,-0.07831 -0.07021,-0.03055 -0.139142,-0.06394 -0.208712,-0.09591 C 16.734691,57.993018 16.093229,57.604884 15.43619,57.243633 14.523431,56.757941 13.606139,56.280544 12.686897,55.807255 11.610958,55.234292 10.591008,54.5683 9.6303225,53.819317 9.1100383,53.344331 8.5635305,52.905649 7.9925156,52.494356 7.5685066,52.211285 7.1275232,51.954668 6.7021043,51.673711 6.3403488,51.435729 6.0089754,51.158585 5.6935158,50.86301 5.3659134,50.56465 5.0989184,50.211518 4.8494363,49.847603 4.6128842,49.48821 4.4110042,49.105432 4.2097173,48.725144 4.1136541,48.520312 4.0100389,48.338607 3.8542543,48.176727 c -0.096793,-0.08793 -0.2319079,-0.16066 -0.3048127,-0.269719 -0.00831,-0.01243 0.024794,0.01698 0.038396,0.02319 0.071869,0.0328 0.1451307,0.06247 0.2176961,0.0937 0.7791182,-0.09434 0.6799585,0.07998 1.1228291,-0.574919 0.040871,-0.06044 0.030557,-0.14344 0.057887,-0.211089 0.021162,-0.05238 0.083037,0.100761 0.1502293,0.241889 0.2209969,0.455696 0.4626419,0.907797 0.7594886,1.318899 0.3656401,0.485666 0.8139667,0.901939 1.2697103,1.301457 0.5827771,0.466138 1.1858505,0.907413 1.791585,1.343341 0.6706827,0.482669 1.4172842,0.849998 2.1507462,1.226624 0.805195,0.423234 1.579871,0.900677 2.374352,1.343213 0.636594,0.377133 1.286281,0.731318 1.928534,1.098603 0.485399,0.266188 1.005717,0.459028 1.512195,0.680436 0.477474,0.225611 0.959284,0.438765 1.447752,0.639258 0.385217,0.169368 0.782858,0.307487 1.172755,0.465131 0.310643,0.125943 0.613719,0.269561 0.913864,0.418523 0.393073,0.182054 0.677107,0.492149 0.927317,0.835189 0.487901,0.631347 0.167271,1.037683 -0.653294,1.726372 -0.118065,0.09909 -0.636482,-0.133163 -0.813297,-0.205685 -0.68487,-0.312471 -1.310844,-0.730444 -1.946456,-1.129455 -0.584287,-0.367631 -1.193915,-0.694634 -1.775317,-1.066849 -0.394544,-0.252588 -0.705888,-0.479109 -1.089161,-0.749751 -1.026978,-0.724725 -1.900935,-1.626998 -2.67847,-2.608334 -0.308284,-0.381391 -0.518279,-0.825022 -0.767563,-1.243506 -0.427578,-0.486619 -0.465312,-1.111336 0.08959,-1.650968 0.358379,-0.348513 0.838562,-0.188126 1.224587,-0.103155 0.107425,0.03022 0.216666,0.05459 0.322273,0.09065 0.280698,0.09584 0.552591,0.215773 0.829786,0.321319 0.543287,0.206864 1.074433,0.427602 1.604657,0.666312 0.957336,0.423197 1.89924,0.880967 2.792074,1.42824 0.261919,0.18173 0.551607,0.32402 0.792288,0.534855 0.04124,0.03613 0.142386,0.05801 0.122939,0.109275 -0.228969,0.603578 -0.5523,1.167002 -0.828451,1.750503 -0.49164,-0.122305 -0.962036,-0.312888 -1.45223,-0.441332 C 16.15117,55.325022 15.16913,54.968728 14.250258,54.48046 13.981497,54.337646 13.722901,54.176472 13.459222,54.024478 12.099984,53.174925 10.889321,52.120361 9.8093174,50.940887 9.3811061,50.458305 8.9990383,49.939916 8.6385367,49.405956 c -0.3468091,-0.624919 -0.3497771,-1.012519 0.199678,-1.63111 0.2410744,-0.271407 1.0322858,-0.349175 1.3818133,-0.401085 1.34428,-0.170296 2.697426,-0.04321 4.03484,0.121126 1.256117,0.152142 2.458046,0.530113 3.626447,1.00115 0.54742,0.253431 1.10717,0.475085 1.671759,0.686288 0.913588,0.339387 0.4169,0.511802 -0.165827,2.084687 -0.0225,0.06073 -0.129369,0.0065 -0.194094,0.0087 -0.0807,0.0028 -0.161434,0.0042 -0.242151,0.0063 -0.116805,-0.0052 -0.23355,-0.01204 -0.350416,-0.01564 -0.369331,-0.0114 -0.489686,-2.46e-4 -0.878536,-0.0275 C 17.0476,51.191589 16.388023,51.079748 15.723505,50.959878 14.118,50.639211 12.607461,50.004442 11.131111,49.315293 10.431292,48.995019 9.756228,48.603728 9.0120827,48.392378 c -0.3600642,-0.08094 -0.7294861,-0.08215 -1.0964082,-0.07874 -0.2957579,0.03378 -0.5930961,0.04052 -0.8864351,0.09221 -0.3671459,0.07779 -0.7404377,0.04639 -1.1035129,-0.02949 -0.3487269,-0.0778 -0.6569243,-0.238903 -0.9485469,-0.441085 -0.2381088,-0.165798 -0.4377677,-0.376715 -0.6619795,-0.559166 -0.07117,-0.05324 -0.1083285,-0.01592 0.040368,0.01333 0.055467,0.01091 0.1128346,0.0187 0.1690833,0.01308 0.077758,-0.0078 0.1522716,-0.03522 0.2284073,-0.05283 0.092539,-0.06096 0.1924228,-0.112016 0.2776178,-0.182877 0.054749,-0.04554 0.083776,-0.116973 0.1381591,-0.162947 0.038517,-0.03256 0.1359976,0.387512 0.148074,0.423087 0.2295197,0.586013 0.6094443,1.089614 1.0221268,1.557679 0.5380381,0.587361 1.0668688,1.182163 1.5896569,1.782958 0.2805732,0.397004 0.7715625,0.941333 0.829977,1.444374 0.021736,0.187186 -0.00663,0.376829 -0.00995,0.565243 -0.2744134,0.267158 -0.4724451,0.64779 -0.8232402,0.801474 -0.239615,0.104976 -0.5242504,-0.03793 -0.7784362,-0.09977 C 6.6678571,53.362303 5.9585501,52.658986 5.6058274,52.322883 4.8519567,51.558398 4.2550886,50.669999 3.7555265,49.724388 3.2383945,48.713076 3.4062961,48.812396 5.0877423,47.986856 c 0.017091,-0.0084 0.4154977,0.392712 0.4253133,0.402443 0.8306807,0.903887 1.5991705,1.864221 2.3868715,2.805753 1.1069025,1.336916 2.2263369,2.662826 3.3656229,3.972223 0.90571,1.008605 1.840661,1.990726 2.831379,2.916266 0.637923,0.556618 1.329385,1.042324 2.050313,1.483719 0.414618,0.220385 0.864434,0.458283 1.249977,0.684473 -0.396496,-0.04913 -0.642187,0.150165 -0.877733,0.473674 -0.159233,0.218696 -0.05876,0.257739 -0.09291,0.460866 -0.0023,0.01396 -0.01365,-0.0248 -0.02048,-0.0372 -0.121253,-0.120586 -0.218375,-0.254946 -0.312443,-0.398623 -0.186031,-0.551678 -0.331998,-0.673129 0.0981,-1.314963 0.118421,-0.17672 0.343255,-0.254883 0.533162,-0.35074 0.244826,-0.123578 0.668155,-0.139835 0.940631,-0.166125 0.66817,-0.03088 1.33696,0.02325 2.002123,0.08297 0.07969,0.0077 0.159663,0.01287 0.239058,0.02316 0.134778,0.01746 0.236031,-0.01024 0.156475,0.05851 -0.274778,0.237445 -0.703947,0.367679 -0.826859,0.709403 -0.37265,1.036049 0.606567,0.922054 0.143774,0.962687 -1.199381,-0.333643 -2.351277,-0.826459 -3.490399,-1.324035 -1.705716,-0.749764 -3.322428,-1.675664 -4.895939,-2.668564 -0.161388,-0.112404 -0.323801,-0.22335 -0.484164,-0.337212 -0.165177,-0.117281 -0.419131,-0.296757 -0.5796286,-0.442999 -0.039829,-0.03629 -0.1508079,-0.08538 -0.1090003,-0.11937 0.057875,-0.04706 0.148058,0.01828 0.2220869,0.02742 0.297395,-0.562281 0.59479,-1.124562 0.892185,-1.686843 0.07376,0.01807 0.149712,0.02879 0.221278,0.05419 0.258891,0.09189 0.625298,0.277981 0.859778,0.390624 0.60169,0.289049 1.199263,0.584553 1.80486,0.865441 1.332946,0.598589 2.68877,1.144466 4.007664,1.77397 0.636032,0.28464 1.263756,0.588057 1.90456,0.862051 0.907178,0.45482 0.652149,0.470116 0.07922,2.063828 -0.0082,0.02269 -0.399411,0.05832 -0.437895,0.06228 -0.53824,0.03767 -1.077499,0.05748 -1.616547,0.07958 -0.883541,0.0475 -1.766925,0.02809 -2.649923,-0.01689 -0.706304,-0.03934 -1.408149,-0.130077 -2.107968,-0.230153 -0.300691,-0.04709 -0.603408,-0.07584 -0.907425,-0.08702 -0.273017,-0.0031 -0.544367,-0.0011 -0.816444,-0.0248 C 10.565054,59.874854 10.084836,59.351828 9.6438095,58.824649 8.8552286,57.908645 8.1536758,56.923348 7.4389955,55.949977 6.7215222,54.945008 6.0736693,53.894707 5.5047096,52.799332 5.369285,52.485788 5.2084068,52.181246 5.0925832,51.859224 c -0.014687,-0.04083 -0.072371,-0.109279 -0.032367,-0.126095 0.044319,-0.01863 0.073176,0.06237 0.1097636,0.09356 0.5653529,-0.254371 1.1307057,-0.508741 1.6960586,-0.763111 0.020002,-0.01286 0.041812,-0.05388 0.060005,-0.03857 0.058771,0.04946 0.318358,0.52549 0.3196401,0.527886 0.2579828,0.482154 0.4771094,0.983744 0.7059628,1.480008 0.4754472,1.058024 0.8967858,2.142424 1.2487235,3.247853 0.1039897,0.308359 0.2011458,0.620963 0.2394366,0.945316 0.00746,0.06317 0.074505,0.164875 0.01613,0.190136 C 8.8741284,57.667972 8.2497,57.806771 7.6465818,58.002054 7.3261795,57.488916 7.0766377,56.932183 6.8160549,56.386615 6.2441315,55.205122 5.5006789,54.1194 4.8115169,53.005464 4.0373194,51.830616 3.3738435,50.590075 2.8138794,49.300537 2.6804278,48.95266 2.6181008,48.816436 2.5203727,48.468519 c -0.025387,-0.09038 -0.04704,-0.181981 -0.063066,-0.27448 -0.00667,-0.03852 -0.043372,-0.123502 -0.00479,-0.117182 0.061039,0.01 0.083495,0.09128 0.1252425,0.136916 0.5869246,-0.150642 1.1738492,-0.301284 1.7607739,-0.451925 0.021903,0.01854 0.053352,0.02972 0.065709,0.05562 0.07155,0.149963 0.1518593,0.54129 0.1761374,0.668086 0.09385,0.490148 0.1517022,0.985635 0.2047185,1.481404 0.100422,0.715074 0.1130244,1.437178 0.166518,2.15601 -0.00497,0.955961 -0.2215341,0.552422 -2.0059147,0.362401 -0.013072,-0.0014 -0.1213641,-0.75896 -0.131803,-0.827568 -0.165273,-1.165867 -0.2018133,-2.344455 -0.2337716,-3.519935 0.0012,-1.179357 0.00741,-2.360054 0.078282,-3.537569 0.069824,-0.905274 0.2155647,-1.798502 0.4306693,-2.679832 0.1534261,-0.577982 0.3670458,-1.13667 0.551981,-1.704491 0.1009443,-0.297631 0.1641083,-0.599149 0.1783481,-0.912512 -0.00918,-0.411923 0.059445,-0.816043 0.1692379,-1.211453 0.097384,-0.319462 0.2345392,-0.622154 0.3867938,-0.918471 0.4692141,-0.711465 1.1396395,-0.840281 1.8526054,-0.291418 0.2379262,0.183163 0.3166818,0.54665 0.399212,0.814108 0.1366254,0.931721 -0.1276429,1.8374 -0.4240992,2.711259 -0.3770083,0.981978 -0.7598049,1.960893 -1.1206419,2.949258 -0.3163001,0.893094 -0.5936306,1.799694 -0.8466497,2.712574 -0.1924114,0.67234 -0.2992152,1.365608 -0.4045102,2.055877 -0.08592,0.627777 -0.1127588,1.262884 -0.062405,1.894467 0.028895,0.598995 0.1748873,1.178143 0.3523888,1.747801 0.195358,0.546227 0.3385049,1.106946 0.4813779,1.668155 0.032765,0.145784 0.060545,0.240189 0.072871,0.383327 0.00189,0.02194 0.01203,0.08243 -0.00263,0.06601 -0.058032,-0.065 -0.05021,-0.216425 -0.1371312,-0.222557 C 2.9318472,53.549236 3.129799,53.304671 2.8032235,53.985968 2.7105211,53.662449 2.6616256,53.325487 2.6131943,52.991992 2.547727,52.488415 2.510324,52.048975 2.6714661,51.560551 c 0.4547242,-0.207859 0.8651285,-0.593006 1.3641727,-0.623579 0.3811047,-0.02335 0.8750155,1.184436 1.010721,1.476575 0.3008522,0.715659 0.5834721,1.436484 0.9377632,2.127835 0.3312227,0.672359 0.6810201,1.337444 1.1318909,1.937834 0.1570006,0.183035 0.3128207,0.36825 0.4858236,0.536685 0.0642,0.06251 0.1311305,0.111313 0.123129,0.117408 -0.015558,0.01185 -0.039114,2.26e-4 -0.058671,3.39e-4 -1.0764203,0.151203 -0.905225,-0.127238 -1.277733,1.028932 -0.022396,0.06951 0.042133,0.143189 0.036599,0.216008 -0.00154,0.02032 -0.035331,-0.02091 -0.050382,-0.03465 -0.086847,-0.07932 -0.1395648,-0.157969 -0.2140424,-0.253258 -0.3136595,-0.385355 -0.5746014,-0.912553 -0.251405,-1.440907 0.3658962,-0.598159 0.7827768,-0.526943 1.2783073,-0.523426 0.8748489,0.135366 1.7310561,0.362272 2.6005546,0.527212 1.0849395,0.209068 2.1796605,0.354732 3.2576575,0.599381 0.278354,0.06449 0.561269,0.123853 0.820313,0.248912 0.08441,0.04075 0.244456,0.03711 0.248941,0.130731 0.09069,1.89325 0.389572,1.701925 -0.514594,1.916756 -0.741645,0.124954 -1.489132,0.210056 -2.234921,0.30655 C 10.565124,59.96025 9.7575403,60.021868 8.9505846,59.959037 8.3932526,59.915643 8.2223214,59.868249 7.6834901,59.765619 7.2220791,59.639802 6.7442705,59.523887 6.3325606,59.268624 6.2283837,59.204034 6.1104394,59.147453 6.0378723,59.048667 5.8574587,58.803068 5.5376232,58.554195 5.5868274,58.253451 c 0.073947,-0.451973 0.5117245,-0.759689 0.7675868,-1.139534 0.1793533,-0.03415 0.3561666,-0.08668 0.5380598,-0.102439 0.1610274,-0.01395 0.3233643,0.004 0.4846956,0.01381 0.7492292,0.04568 1.4787556,0.233974 2.2078855,0.399695 1.2281649,0.273275 2.4515919,0.566955 3.6767549,0.853214 0.794797,0.178653 1.590417,0.348559 2.398398,0.454676 0.563903,0.066 1.120028,0.160808 1.671926,0.293095 0.405577,0.111875 0.791231,0.285911 1.161127,0.484317 0.168921,0.113766 0.353649,0.171198 0.544346,0.234503 0.172958,0.043 0.33465,0.121028 0.489008,0.207819 2.739696,1.335665 1.881098,3.096808 -0.858598,1.761144 l 0,0 c -0.06145,-0.01793 -0.218939,-0.06678 -0.273502,-0.08189 -0.259371,-0.0899 -0.522027,-0.176804 -0.760978,-0.314451 -0.250656,-0.103659 -0.510434,-0.188058 -0.770776,-0.26298 -0.456819,-0.101567 -0.91877,-0.138946 -1.386404,-0.16219 -0.900669,-0.04165 -1.795742,-0.146028 -2.686781,-0.283348 -1.28517,-0.223806 -2.561337,-0.508885 -3.8170934,-0.862749 -0.505784,-0.152381 -1.0079018,-0.315823 -1.5142155,-0.466315 -0.1197274,-0.03559 -0.2411776,-0.06558 -0.3597306,-0.104897 -0.058658,-0.01946 -0.1366946,-0.01992 -0.1711846,-0.0712 -0.020795,-0.03092 0.039842,-0.06298 0.059763,-0.09447 0.1773507,-0.353636 0.5081038,-0.666018 0.5320522,-1.060909 0.01572,-0.259211 -0.2936548,-0.428714 -0.4282441,-0.650803 -0.039228,-0.06473 0.075409,-0.02745 0.2365254,0.0052 0.7454504,0.151025 -0.095038,-0.0027 0.7623156,0.148306 0.3314025,0.05195 0.6371684,0.105439 0.9717106,0.135445 0.6958814,0.06242 1.3908763,0.0238 2.0856003,-0.0337 0.775421,-0.0488 1.566821,-0.11275 2.339376,-0.01382 -0.50615,0.472261 -0.218928,0.171585 -0.139075,1.873956 0.0028,0.05925 0.147766,0.03065 0.153706,0.08966 0.0048,0.04778 -0.09474,0.01751 -0.142712,0.01957 -0.222523,0.0095 -0.438804,-0.01194 -0.661076,-0.02627 C 11.541425,59.397359 10.388847,59.241202 9.2623731,58.957553 8.7322585,58.818068 8.2168944,58.669679 7.701226,58.484371 7.480815,58.405166 7.2258643,58.324024 7.0106266,58.225117 6.9640973,58.203736 6.9224424,58.17304 6.8783502,58.147001 7.0632934,57.90127 7.4732663,57.85812 7.6072078,57.581267 c 0.1299016,-0.268502 0.0052,-0.596818 -0.00835,-0.894784 -0.00119,-0.02617 -0.058706,-0.05786 -0.03554,-0.07009 0.088887,-0.04692 0.1112526,0.435408 0.2073501,0.218925 0.1562311,0.201015 0.5650714,0.699911 0.5299244,0.944064 C 8.1161126,59.060896 8.0294731,58.794801 6.9822392,58.985499 6.903342,58.963692 6.821677,58.950156 6.7455476,58.920079 6.1991828,58.704225 5.7811473,58.253879 5.3880406,57.836902 5.1724037,57.571098 5.0408355,57.420242 4.8469206,57.133482 4.5083938,56.63287 4.2450471,56.085719 3.9633772,55.552709 3.5889385,54.790079 3.2929129,53.997947 3.0315748,53.189806 2.882725,52.727005 2.9640516,53.009516 2.8709477,52.630632 c -0.04633,-0.18854 -0.077445,-0.279745 -0.058815,-0.269456 0.1597221,0.08821 0.257531,0.362535 0.4369999,0.329631 0.4784205,-0.08771 0.8711645,-0.432888 1.3067468,-0.649332 0.013266,-0.03156 0.013522,-0.07273 0.039797,-0.09468 0.011083,-0.0093 0.00995,0.0199 0.023,0.13547 0.023436,0.207503 0.044424,0.415466 0.079066,0.621495 0.065567,0.50217 0.1537306,1.01341 0.063215,1.518202 -0.043352,0.136093 0.00596,0.364671 -0.1300551,0.408279 C 3.0898741,55.124329 2.9127708,55.030689 2.5858705,53.99812 2.4237189,53.461286 2.2337265,52.934097 2.0469851,52.405427 1.8267477,51.681466 1.6384741,50.945878 1.5922287,50.187 c -0.059781,-0.798669 -0.056903,-1.596059 0.078467,-2.388371 0.1141988,-0.761983 0.2325945,-1.523845 0.3771466,-2.280699 0.228139,-0.999007 0.4916915,-1.989251 0.8356187,-2.955614 0.3565944,-0.997011 0.7429335,-1.982427 1.1869342,-2.944168 0.1374718,-0.335452 0.2766208,-0.669886 0.3787432,-1.018333 0.043693,-0.149083 0.058569,-0.307168 0.1168513,-0.451175 0.00833,-0.02058 0.030495,-0.03228 0.045743,-0.04843 0.1146942,-0.09879 -0.05717,0.03037 0.221721,0.17315 0.4075653,0.208653 0.6358585,0.314714 1.0283861,0.106204 0.2024576,-0.107545 0.2120019,-0.14292 0.2674741,-0.268682 -0.091362,0.148568 -0.1148546,0.326166 -0.1849187,0.48434 -0.064431,0.285154 -0.069106,0.572898 -0.08308,0.864579 -0.040515,0.419207 -0.1016114,0.835246 -0.2085249,1.243315 -0.1064396,0.584064 -0.2614399,1.15654 -0.40681,1.731838 -0.1699949,0.733173 -0.2915326,1.4758 -0.2927432,2.230965 0.00893,1.147031 0.071613,2.293239 0.079179,3.440418 -0.00202,1.145991 -0.00161,2.29217 -0.029055,3.437901 -0.00918,0.310522 -0.0022,0.391433 -0.039544,0.674324 -0.00855,0.06475 0.029821,0.179902 -0.034178,0.192933 -1.1830222,0.240873 -1.7969567,0.806583 -2.048729,0.04511 C 2.7052471,51.717029 2.5916997,50.96465 2.4913039,50.211553 2.4027709,49.378868 2.3253317,48.53769 2.3756029,47.700159 2.9642528,47.49462 3.5318097,47.213805 4.1415525,47.083541 c 0.086731,-0.01853 0.118003,0.132591 0.1726193,0.202466 0.2289972,0.292978 0.352968,0.650421 0.551949,0.962023 0.6999415,1.154881 1.4498503,2.278681 2.1488829,3.434223 0.7226854,1.240057 1.4352636,2.492608 1.8965627,3.858648 0.1409846,0.422401 0.1313438,0.385938 0.2567038,0.788672 0.062268,0.200044 0.1742198,0.460549 0.1819523,0.677238 4.828e-4,0.01353 -0.015882,0.02193 -0.023822,0.0329 -0.587103,0.223238 -1.192266,0.403791 -1.761309,0.669714 -0.027535,0.01287 0.048732,0.226257 -0.019417,0.163527 C 7.3324146,57.676651 7.2483236,57.353208 7.0983638,57.117767 6.5946735,56.083424 6.147778,55.024204 5.7420855,53.947643 5.4335176,53.115925 5.124196,52.27061 4.9596324,51.397346 c 0.5598733,-0.285669 1.0865397,-0.64887 1.6796197,-0.857006 0.088451,-0.03104 0.1377171,0.127583 0.200497,0.197196 0.245553,0.272277 0.3886365,0.624031 0.6148424,0.910816 0.6529742,0.968028 1.3572658,1.898876 2.0296642,2.85326 0.6763563,0.989228 1.3120833,2.003035 1.9016293,3.046643 0.01277,0.0219 0.313824,0.485031 0.275371,0.48823 -0.0369,0.0031 -0.07256,-0.01478 -0.108847,-0.02217 -0.01316,0.0012 -0.02631,0.0025 -0.03947,0.0037 0.17865,0.01113 0.403351,0.0056 0.600217,0.0037 0.345957,-0.0046 0.691885,-0.01222 1.037884,-0.01289 0.68662,0.0037 1.371012,0.05627 2.057469,0.06368 0.852268,0.03195 1.703712,0.07884 2.556553,0.09581 0.52107,0.02451 1.042208,0.04922 1.562375,0.08904 0.18594,0.02326 0.100435,-0.02066 0.091,0.03932 -0.0914,0.5812 -0.231935,1.157603 -0.265079,1.745012 -0.0036,0.06345 0.115764,0.05755 0.160846,0.102343 0.04849,0.04818 -0.498339,-0.08797 -0.204589,-0.01394 -0.740237,-0.174352 -1.47184,-0.385874 -2.193855,-0.624454 -1.440031,-0.500452 -2.877098,-1.023596 -4.224478,-1.744965 -1.016797,-0.547717 -2.028529,-1.131694 -2.8901886,-1.909302 0.2278476,-0.610155 0.3744476,-1.257174 0.6835436,-1.830467 0.04494,-0.08336 0.187645,0.02589 0.281074,0.04135 0.491817,0.0814 0.928806,0.345024 1.389344,0.520393 1.677482,0.741088 3.314768,1.565735 4.91929,2.454204 1.129675,0.630186 2.272581,1.242203 3.359816,1.944267 0.387264,0.313595 0.831383,0.597278 0.66078,1.30355 -0.184732,0.764763 -0.94362,0.832659 -1.51698,0.842536 -0.61231,0.0019 -1.226065,-0.01992 -1.834107,-0.09584 -0.07634,-0.0031 -0.152755,-0.0048 -0.229023,-0.0094 -0.392544,-0.02359 0.05314,-0.0889 0.171412,-0.331397 0.299287,-0.61361 0.220427,-0.616136 0.03348,-1.074526 0.248889,0.249068 0.458892,0.554317 0.574466,0.898781 0.09281,0.317368 0.184789,0.710274 0.0066,1.023718 -0.342235,0.601876 -0.729007,0.732971 -1.363905,0.702941 C 16.81877,62.21646 16.698991,62.19853 16.582618,62.16657 16.045686,62.019114 15.55658,61.716399 15.051984,61.492291 14.17468,61.024247 13.332299,60.489669 12.551263,59.872874 11.412055,58.95609 10.324882,57.974064 9.3242444,56.906441 8.1105019,55.588809 6.9648446,54.212197 5.891527,52.777296 5.1381563,51.762885 4.3896983,50.738935 3.7839991,49.627108 c -0.040876,-0.08467 -0.096574,-0.163665 -0.1226285,-0.254 -0.00661,-0.02291 0.011753,-0.05017 0.030741,-0.06459 0.5114905,-0.388432 1.0340426,-0.762101 1.5541128,-1.138968 0.011042,-0.008 0.027266,-0.02309 0.038121,-0.01484 0.085844,0.06526 0.3009114,0.353405 0.3420056,0.405615 0.5438947,0.728919 1.074597,1.468394 1.6507413,2.172517 0.1808656,0.213921 0.3685038,0.422311 0.5423158,0.642002 0.043812,0.05538 0.083677,0.113887 0.1217126,0.173379 0.019627,0.0307 0.086149,0.08724 0.050962,0.0967 -1.0601679,0.285034 0.036298,-0.589812 -1.1827626,0.793375 0.00682,0.130396 0.00838,0.261175 0.020463,0.391189 0.002,0.02149 0.037929,0.0751 0.02156,0.06104 -0.033874,-0.02909 -0.050489,-0.07371 -0.077612,-0.10918 C 6.630431,52.593951 6.4711058,52.419341 6.3153745,52.242432 5.7470569,51.65023 5.1663931,51.069226 4.621859,50.454842 3.9688294,49.676546 3.430299,48.860685 3.2135805,47.850886 c -0.094938,-0.64005 -0.1557617,-1.411611 0.297869,-1.950426 0.1128682,-0.134063 0.2698728,-0.223646 0.4048093,-0.335468 0.1311836,-0.04342 0.2576048,-0.1055 0.3935509,-0.130262 0.4703866,-0.08568 0.916455,0.123353 1.2815366,0.397026 0.196256,0.16416 0.3870078,0.334008 0.5859904,0.494343 0.079151,0.0737 0.092425,0.118895 0.2205026,0.135015 -0.022553,-0.0025 -0.09034,-0.0068 -0.06766,-0.0074 0.1281294,-0.0033 0.1537035,0.02986 0.2766314,-0.02354 0.4280684,-0.1029 0.8657499,-0.169645 1.3061337,-0.185464 0.5107685,0.003 1.0238422,-0.0036 1.53035,0.07317 0.9057879,0.14636 1.7810269,0.409999 2.6433229,0.722538 1.38926,0.518946 2.764971,1.079636 4.18616,1.507928 0.952265,0.270818 1.917153,0.463858 2.893074,0.627507 0.09773,0.0203 0.196286,0.03694 0.293185,0.06089 0.06515,0.0161 0.195836,-0.0079 0.192463,0.05913 -0.09025,1.793136 0.244621,2.110965 -0.728943,1.869195 -0.603651,-0.153198 -1.197517,-0.335755 -1.788372,-0.533227 -1.042633,-0.302104 -2.103162,-0.530401 -3.180591,-0.669803 -1.216115,-0.147502 -2.43373,-0.288437 -3.65564,-0.378285 -0.110966,-0.0125 -0.22254,-0.02044 -0.3328985,-0.03749 -0.048542,-0.0075 -0.1600694,0.01001 -0.1428882,-0.03601 0.033881,-0.09074 0.1776618,-0.09938 0.2249927,-0.183889 0.672662,-1.201038 0.209892,-0.346135 0.188826,-1.173869 0.385218,0.381582 0.785906,0.747085 1.203417,1.093223 1.095457,0.903618 2.242679,1.744011 3.38499,2.586822 0.960757,0.654494 1.949666,1.278994 3.045999,1.683563 0.304646,0.125387 0.607492,0.250482 0.900928,0.400775 0.0667,0.03416 0.13285,0.06948 0.197752,0.106946 0.03647,0.02105 0.07881,0.03647 0.106159,0.06849 0.0079,0.0092 -0.01704,0.01727 -0.02555,0.02591 -0.232077,0.593667 -0.466266,1.186513 -0.696233,1.781 -0.0031,0.008 0.0059,0.02662 -0.0026,0.0256 -0.269122,-0.0324 -0.61516,-0.277001 -0.873195,-0.347349 -0.915033,-0.413734 -1.844599,-0.79309 -2.760612,-1.204613 -0.83892,-0.405751 -1.682569,-0.810447 -2.459338,-1.328783 0.08463,-0.339469 -0.215966,0.803937 0.655536,-0.272955 0.215578,-0.266383 0.281622,-0.635342 0.325311,-0.975232 0.01976,-0.153707 -0.350031,-0.551135 0.0087,-0.152522 0.273118,0.332106 0.54107,0.669099 0.861475,0.958904 0.785015,0.754656 1.5792,1.502676 2.438711,2.173055 0.861276,0.66791 1.751379,1.293913 2.673186,1.876043 0.580875,0.402256 1.160432,0.80936 1.714438,1.247857 0.19993,0.239887 -0.108114,-0.168223 -0.317413,0.05872 -0.347732,0.377045 -0.580644,0.849674 -0.808655,1.309121 -0.03158,0.06364 0.237089,0.371348 -0.0297,0.05625 -0.08082,-0.109578 -0.09524,-0.130079 -0.219321,-0.210473 -0.239499,-0.120925 -0.491597,-0.217045 -0.746074,-0.301195 -0.413082,-0.14345 -0.830813,-0.273249 -1.239851,-0.428531 -0.500523,-0.203242 -0.999432,-0.408211 -1.489701,-0.635452 -0.57124,-0.240007 -1.149279,-0.4646 -1.709868,-0.729254 -0.655383,-0.338518 -1.307076,-0.684 -1.958432,-1.030157 C 11.615187,55.568117 10.831367,55.117182 10.035411,54.687893 9.2203281,54.240389 8.3949999,53.800204 7.6473127,53.243995 6.9851773,52.757275 6.3167903,52.275603 5.699651,51.731829 5.1210359,51.201364 4.5475227,50.657505 4.101248,50.006646 3.7430267,49.450935 3.4165389,48.866442 3.2032991,48.238276 2.9851864,47.604017 2.7655291,46.73956 3.493599,46.282531 c 0.2314412,-0.145281 0.5376868,-0.09788 0.8065302,-0.146817 0.1162614,0.04268 0.2364199,0.07596 0.3487842,0.128043 0.2687805,0.124585 0.4658176,0.376097 0.69178,0.557814 0.2451937,0.277116 0.4669311,0.571449 0.6485045,0.894691 0.1979945,0.321293 0.3742583,0.653782 0.571899,0.975052 0.15864,0.238522 0.299155,0.494899 0.5118366,0.691042 0.2282969,0.210826 0.4916211,0.360472 0.7589435,0.517911 0.4421368,0.270502 0.8718762,0.560268 1.3219928,0.817601 0.6390958,0.379149 1.2535382,0.795714 1.8617532,1.222407 0.905405,0.625655 1.830275,1.223512 2.773275,1.791015 0.934797,0.510899 1.882157,0.999028 2.802022,1.536665 0.652437,0.402203 1.288955,0.826539 1.865997,1.333167 0.635129,0.549783 -0.04223,0.400569 -0.737022,1.871016 -0.01059,0.02241 0.0774,0.03381 0.05694,0.0478 -0.08554,0.05852 -0.228394,-0.301784 -0.279953,-0.135308 -0.272518,-0.180759 -0.534289,-0.37894 -0.790034,-0.582534 -0.342335,-0.271227 -0.673577,-0.555651 -1.048927,-0.781915 -0.479156,-0.324668 -0.946796,-0.666043 -1.433188,-0.979985 -0.526571,-0.322381 -1.054277,-0.64082 -1.590883,-0.946307 -0.67989,-0.423092 -1.362973,-0.840759 -2.043181,-1.26338 C 9.8292549,53.343004 9.094859,52.817467 8.4059379,52.230513 7.7407893,51.67541 7.0554041,51.144691 6.4071301,50.569324 5.8526467,50.07136 5.291552,49.575427 4.8311355,48.985387 4.5154687,48.624113 4.2031449,48.255936 3.9839522,47.826044 3.8415039,47.602307 3.7132518,47.370482 3.5746027,47.144398 3.4358531,46.84211 3.3365523,46.689313 3.442145,46.25985 c 0.1838261,-0.747653 1.0300902,-0.909895 1.6358862,-0.604976 0.2579702,0.144729 0.5241053,0.273849 0.7849398,0.413271 0.4564953,0.221004 0.8997154,0.46607 1.3547734,0.690175 0.6247486,0.309548 1.2113496,0.676133 1.7996916,1.048928 0.4654031,0.286632 0.9361204,0.568486 1.432575,0.798528 0.804532,0.377961 1.621742,0.7293 2.464911,1.013076 0.977246,0.31148 1.970794,0.562335 2.980701,0.744327 0.953934,0.208893 1.897781,0.455338 2.819386,0.781443 0.343217,0.119455 0.688646,0.236442 1.018051,0.391438 0.0564,0.02654 0.109517,0.05959 0.164707,0.08857 0.03929,0.02063 0.08841,0.02783 0.118709,0.06025 0.01038,0.01111 -0.02202,0.02096 -0.03303,0.03143 -0.347741,1.925738 0.225077,1.976434 -0.763956,1.828581 -0.432519,-0.08059 -0.852977,-0.2035 -1.275278,-0.325782 -0.553937,-0.153735 -1.103221,-0.323923 -1.65229,-0.494172 C 15.503113,52.488002 14.694667,52.3216 13.915491,52.052949 13.040706,51.756099 12.153166,51.493132 11.299539,51.137651 10.362749,50.732165 9.4738311,50.241004 8.5997852,49.714277 7.7111571,49.208877 6.819248,48.710787 5.8796067,48.304126 5.6068803,48.18119 5.265129,48.023832 4.9863699,47.910826 4.4315541,47.685909 3.8619753,47.495243 3.3289352,47.218874 3.0658046,47.069706 2.2921221,46.706722 2.3315231,46.344473 c 0.1257947,-1.156549 0.4147481,-1.395504 1.2132425,-1.386671 0.4019112,0.04183 0.8075051,0.0053 1.2101174,0.04433 0.5924458,0.03171 1.1855323,0.02942 1.7775577,0.06953 0.5080477,0.03887 1.0130327,0.0984 1.5182226,0.164346 0.5848639,0.03046 1.1682684,0.100743 1.7549238,0.08285 0.8248239,-0.04759 1.6496799,-0.108592 2.4765749,-0.08412 1.109706,0.01773 2.217384,0.07323 3.325394,0.134056 0.801376,0.03976 1.603771,0.04454 2.405584,0.07241 0.871006,0.1291 -0.01251,0.254392 -0.03564,1.891709 -0.0013,0.09199 0.179502,0.04851 0.259527,0.09389 0.06175,0.03502 -0.394612,-0.01542 -0.21245,0.01462 -0.49048,-0.04636 -0.972293,-0.142772 -1.441275,-0.296135 -0.651335,-0.179604 -1.294987,-0.382833 -1.944521,-0.56848 -0.763331,-0.200263 -1.535137,-0.377733 -2.32425,-0.437199 -1.008263,-0.08904 -2.018877,-0.153484 -3.0317318,-0.142707 -1.2586992,0.01117 -2.518512,0.03531 -3.7762836,-0.0301 C 4.5752854,45.912275 3.6139511,45.881929 2.7383879,45.527131 2.5270283,45.322284 2.1908323,45.193926 2.104309,44.912592 c -0.2815314,-0.915411 0.3449658,-1.32698 0.9442068,-1.713903 0.6394843,-0.424848 1.2942576,-0.829641 1.9798989,-1.176278 0.9077886,-0.424692 1.8504327,-0.752367 2.8431944,-0.9142 0.9255094,-0.144762 1.8572991,-0.215938 2.7885809,-0.310605 1.00977,-0.161327 2.004324,-0.401186 2.997433,-0.642767 0.901399,-0.228134 1.801616,-0.461702 2.708801,-0.666 0.0032,-8.07e-4 0.411652,-0.102839 0.416324,-0.102042 0.02704,0.0046 -0.05297,0.0444 -0.04322,0.07004 0.221118,0.58104 0.455236,1.15822 0.723981,1.718824 0.01445,0.03015 0.105219,-0.03243 0.1003,6.39e-4 -0.0057,0.0384 -0.07145,0.0304 -0.107178,0.0456 -0.322658,0.100758 -0.64436,0.201662 -0.972985,0.282152 -0.491029,0.151026 -0.984827,0.294021 -1.487699,0.400687 -0.388726,0.09189 -0.793989,0.138519 -1.159883,0.307193 -0.617177,0.278877 -1.231975,0.562848 -1.858687,0.82007 -0.802054,0.311495 -1.618864,0.578843 -2.461476,0.758858 -0.7638736,0.173793 -1.5310601,0.332919 -2.2967566,0.49844 -0.6656762,0.107837 -1.3387931,0.199464 -2.011121,0.08643 C 4.76367,44.301592 4.3217423,44.198605 4.090773,43.724165 3.8460142,43.2214 4.0153132,42.786309 4.3134484,42.39973 c 0.25944,-0.294502 0.5416357,-0.565358 0.8437338,-0.816366 0.3732845,-0.311362 0.751025,-0.621701 1.1593846,-0.885999 0.3615642,-0.228403 0.732223,-0.442862 1.0805129,-0.691825 0.4147908,-0.312381 0.8296549,-0.624531 1.2434584,-0.938219 0.5345677,-0.41698 1.06442,-0.842113 1.6282229,-1.219416 0.563022,-0.359981 1.1152,-0.736687 1.680615,-1.092931 0.600937,-0.363205 1.220892,-0.692614 1.850474,-1.003474 0.289533,-0.157573 0.583442,-0.30434 0.878707,-0.450562 0.03533,-0.0175 0.08323,-0.08129 0.107213,-0.04999 0.392447,0.512192 0.722373,1.069392 1.08356,1.604087 0.131216,0.04173 -0.596009,0.292914 -0.514189,0.308566 -0.322864,0.197603 -0.628705,0.415276 -0.907946,0.672319 -0.440145,0.353679 -0.8756,0.714392 -1.348227,1.025158 -0.366063,0.243761 -0.726236,0.495538 -1.11079,0.710067 -0.355909,0.248536 -0.611433,0.606253 -0.92006,0.907107 -0.420042,0.456547 -0.853951,0.900541 -1.2800402,1.351399 -0.5373808,0.562885 -1.1023185,1.097125 -1.7096512,1.584904 -0.5117415,0.432475 -1.0437313,0.874193 -1.671641,1.124462 -0.1450533,0.02131 -0.2927839,0.09892 -0.4351601,0.06394 -0.2750605,-0.06758 -0.5660074,-0.163169 -0.7697076,-0.359973 -0.3745612,-0.361881 -0.288291,-0.932515 -0.101717,-1.340148 0.087448,-0.208685 0.1726749,-0.419851 0.213398,-0.643205 0.091869,-0.359135 0.1936304,-0.715118 0.3049323,-1.068536 0.1191612,-0.363296 0.2049575,-0.736815 0.3332699,-1.0974 C 6.092685,39.602386 6.2497689,39.115514 6.365936,38.617329 6.5327603,38.014242 6.6853406,37.407383 6.8354803,36.799976 7.0049807,36.14323 7.1585841,35.482634 7.3263224,34.82542 7.4971007,34.137195 7.70434,33.460221 7.9421961,32.792109 8.1423045,32.194801 8.3415324,31.597093 8.6357828,31.03754 c 0.014073,-0.02798 0.214065,-0.439402 0.2356405,-0.424321 0.027182,0.019 -3.048e-4,0.06718 0.00865,0.09912 0.2755035,0.982859 0.056609,0.554636 1.4405294,0.846123 0.04644,-0.02787 0.09317,-0.05526 0.139308,-0.08362 0.01154,-0.0071 0.03807,-0.03553 0.03368,-0.02272 -0.0094,0.02745 -0.03327,0.04757 -0.05028,0.0711 -0.103529,0.143224 -0.210178,0.28351 -0.3216,0.420688 -0.3263738,0.448967 -0.6277939,0.91552 -0.9546826,1.364195 -0.345215,0.498462 -0.735762,0.966769 -1.0279902,1.500379 -0.2536466,0.42305 -0.4625767,0.872146 -0.6776812,1.315603 -0.2133188,0.497172 -0.4189171,0.997677 -0.6223406,1.498965 -0.1796712,0.485583 -0.3136101,0.98549 -0.4611761,1.481441 -0.187574,0.64527 -0.4270799,1.271984 -0.6805371,1.894069 -0.2039527,0.514526 -0.3657093,1.041213 -0.5431184,1.565254 -0.1027335,0.348501 -0.1760201,0.703173 -0.2700774,1.053362 -0.5966273,2.983137 -2.5142603,2.599611 -1.9176329,-0.383526 z"
       inkscape:connector-curvature="0" />
    <path
       style="fill:#502d16;fill-opacity:1;fill-rule:nonzero;stroke:none"
       id="path4951"
       d="m 17.122511,61.974805 c -0.309935,0.23632 -0.722736,0.333872 -1.090431,0.449109 -0.473996,0.122262 -0.954113,0.221346 -1.43309,0.322575 -0.436937,0.08438 -0.872911,0.165527 -1.316082,0.208581 -0.366292,0.04413 -0.729663,0.02352 -1.092464,-0.03536 -0.198536,-0.03419 -0.399383,-0.05119 -0.600694,-0.04652 -0.309475,0.0064 -0.616426,-0.0048 -0.922537,-0.05202 -0.259628,-0.02913 -0.509257,-0.107905 -0.7647561,-0.157722 -0.2348505,-0.01893 -0.4654028,-0.07188 -0.6991325,-0.09736 -0.2201131,-0.02898 -0.4415275,-0.04365 -0.6632536,-0.05213 -0.2758193,0.0011 -0.5446443,-0.06662 -0.8170557,-0.09953 C 7.4316493,62.372113 7.1517738,62.282401 6.8688576,62.205154 6.5517425,62.125339 6.2407694,62.023625 5.9336265,61.911849 5.5857223,61.805425 5.2560893,61.660683 4.9436251,61.475188 4.6415052,61.30823 4.3867523,61.077694 4.1466292,60.832961 3.9373972,60.623514 3.7752602,60.373781 3.6025244,60.135209 3.3593265,59.845707 3.1948449,59.504243 3.0255637,59.169178 2.8202623,58.75348 2.7427653,58.294816 2.6494781,57.845149 2.6011943,57.520115 2.5340615,57.197766 2.4337382,56.884595 2.3019488,56.546644 2.1721671,56.20711 2.0515401,55.864851 1.9102076,55.502018 1.7787717,55.135373 1.6389436,54.771907 1.4888022,54.369007 1.3615374,53.963208 1.2855614,53.539557 1.2192238,53.060502 1.204425,52.57551 1.2114874,52.092449 c 0.00234,-0.439206 0.00297,-0.878083 -0.00266,-1.317203 -0.022699,-0.593319 0.056031,-1.181417 0.1152503,-1.769933 0.0714,-0.570645 0.1884852,-1.13421 0.3275723,-1.691778 0.083335,-0.35331 0.179826,-0.701473 0.2415774,-1.059314 0.066642,-0.315253 0.1223941,-0.630057 0.1572382,-0.950317 -0.061025,-0.338743 -0.056988,-0.679965 -0.024885,-1.021408 0.063083,-0.35489 0.093816,-0.750042 0.2847382,-1.066847 0.063723,-0.105739 0.1471706,-0.198259 0.220756,-0.297389 0.3129586,-0.107133 0.6116654,-0.369915 0.9388757,-0.321398 0.964631,0.14303 0.9769987,1.257448 1.0012456,1.952699 -0.020359,0.798363 0.00486,1.594294 0.066513,2.390225 0.106155,0.948421 0.2823426,1.887217 0.4135711,2.832504 0.101325,0.6794 0.2088585,1.358428 0.355609,2.029683 0.076319,0.437983 0.2080219,0.860742 0.3921348,1.264621 0.1803443,0.419722 0.3453687,0.845365 0.5031097,1.273978 0.1529432,0.453865 0.2713322,0.917694 0.3925045,1.380669 0.1067711,0.283231 0.2557004,0.540714 0.4384974,0.781411 0.2294326,0.29922 0.4972937,0.564268 0.7647396,0.828873 0.3065787,0.273205 0.7050411,0.407979 1.0767692,0.567556 0.5931387,0.294057 1.2150135,0.499248 1.8490755,0.681308 0.648743,0.175541 1.322909,0.236337 1.991651,0.279586 0.527663,0.02969 1.055538,0.05273 1.583124,0.08398 0.231999,0.02359 0.46136,0.0063 0.693256,0.0018 0.131181,0.629898 0.319541,1.250551 0.393542,1.889694 0.0072,0.06207 -0.109176,0.06083 -0.164299,0.09026 -0.316203,0.168796 -0.623388,0.322385 -0.958497,0.45332 -0.810492,0.285809 -1.656131,0.414403 -2.510937,0.455902 -0.8083,0.03203 -1.606241,-0.08811 -2.3927637,-0.260867 C 8.7949895,61.448452 8.2355718,61.305331 7.6744786,61.167806 7.3446079,61.089806 7.0216478,60.991561 6.6985475,60.890243 6.511411,60.86437 6.3377817,60.777778 6.1522077,60.747478 5.6675177,60.64899 5.261978,60.390842 4.8860568,60.081462 4.3854083,59.620402 4.0639727,59.026475 3.826823,58.397585 3.6849051,57.900027 3.5752242,57.395143 3.4155751,56.902724 3.2678624,56.370132 3.1138293,55.838632 3.0093793,55.295554 2.9317184,54.962778 2.8718273,54.624565 2.7719112,54.297325 2.7463774,54.185131 2.5515577,53.617534 2.6074974,53.547323 c 0.015304,-0.01921 0.023696,0.04303 0.035544,0.06454 0.6243245,-0.02053 1.2529978,0.01477 1.8729736,-0.0616 0.058294,-0.0072 -0.00358,-0.126935 0.03267,-0.173149 0.020343,-0.02594 0.021559,0.06243 0.028989,0.09454 0.039569,0.171009 0.056831,0.347155 0.074108,0.521375 0.00953,0.318741 0.074766,0.677121 -0.066743,0.979084 -0.064869,0.138422 -0.1519313,0.265313 -0.2278969,0.397969 -0.480557,0.01178 -0.9789057,0.165436 -1.441671,0.03535 C 2.7102152,55.347739 2.5340993,54.530531 2.4726161,54.308841 2.3697757,53.867643 2.3027168,53.419403 2.2177204,52.974735 2.135268,52.479291 2.043765,51.985707 1.9843822,51.486782 c -0.054159,-0.51063 -0.061891,-1.024443 -0.066973,-1.537417 0.00244,-0.462348 -6.2e-5,-0.924847 0.02976,-1.386383 0.03281,-0.428679 0.076497,-0.855284 0.1371472,-1.28079 0.048197,-0.276164 0.087995,-0.553303 0.1074469,-0.833 0.025221,-0.197528 -0.021676,-0.362173 -0.056085,-0.563253 -0.049521,-0.343513 -0.061638,-0.69078 -0.066332,-1.037365 -0.015158,-0.383062 0.037698,-0.761057 0.1031576,-1.137097 0.084711,-0.297257 0.096243,-0.605458 0.139247,-0.909401 0.038079,-0.300115 0.1561892,-0.581081 0.2142258,-0.876574 0.022119,-0.25362 0.078865,-0.50335 0.099778,-0.7568 0.047207,-0.406976 0.1670626,-0.795728 0.2828437,-1.186811 0.090676,-0.301419 0.1778358,-0.603425 0.2617327,-0.906811 0.122203,-0.347328 0.2263719,-0.699511 0.3525465,-1.045369 0.098617,-0.323214 0.2734558,-0.622055 0.3667505,-0.945998 0.1077995,-0.31319 0.2070871,-0.628881 0.3237228,-0.939 0.1224121,-0.267407 0.1995205,-0.552811 0.2779877,-0.835504 0.086287,-0.286514 0.1436587,-0.579338 0.2075199,-0.871124 0.069964,-0.293816 0.1339667,-0.588659 0.2173522,-0.879023 0.079737,-0.232242 0.1187723,-0.474637 0.1789623,-0.712135 0.046036,-0.169354 0.058177,-0.344207 0.066195,-0.518661 -0.00779,-0.273115 0.047906,-0.540579 0.087694,-0.809163 0.05615,-0.311292 0.2428541,-0.917246 0.555485,-1.04609 0.2655688,-0.109449 0.5611714,-0.122922 0.8417572,-0.184383 0.5796513,0.368369 0.7444116,0.428689 0.839787,1.045373 0.020754,0.134195 0.019065,0.270051 0.048313,0.402784 0.05105,0.298989 0.071788,0.599994 0.1229301,0.898628 0.068682,0.368551 0.091067,0.742108 0.1102285,1.115697 0.00927,0.352427 0.0087,0.704958 0.00518,1.057457 0.00341,0.351839 7.769e-4,0.703588 0.00832,1.055402 0.019374,0.466688 0.016713,0.931577 -0.01923,1.397218 -0.048497,0.46162 -0.057795,0.924895 -0.06375,1.388458 -0.012302,0.581749 0.1048207,1.153224 0.1966919,1.724545 0.05333,0.310381 0.1013851,0.621337 0.1584786,0.931052 0.6930865,3.282644 -1.4170769,3.728177 -2.1101634,0.445533 l 0,0 C 5.8617215,41.402133 5.7839108,41.052794 5.7242342,40.699608 5.6274587,40.005046 5.550553,39.305852 5.591322,38.603208 c 0.015446,-0.506469 0.042984,-1.012879 0.090456,-1.517425 0.037876,-0.407056 0.043694,-0.814054 0.048624,-1.222854 0.00788,-0.351687 0.00598,-0.703327 0.010138,-1.05504 -0.00312,-0.329195 -0.00249,-0.658432 -0.010601,-0.987558 -0.00347,-0.280169 -0.015533,-0.562156 -0.070243,-0.837602 -0.059017,-0.335342 -0.095591,-0.674356 -0.1296072,-1.013036 -0.024567,-0.28741 -0.022217,-0.139691 -0.014074,-0.33427 0.00108,-0.02581 0.00242,-0.09769 0.016134,-0.0758 0.043589,0.06957 0.055082,0.163227 0.1176578,0.21637 0.1825474,0.155032 0.4006017,0.262587 0.6009026,0.393881 0.2598399,-0.06582 0.5324098,-0.09361 0.7795197,-0.19747 0.1228073,-0.05161 0.3243669,-0.49724 0.1917354,-0.160066 -0.030789,0.206658 -0.080503,0.402257 -0.069374,0.611895 -0.015151,0.305053 -0.043296,0.610012 -0.1186657,0.906974 -0.065247,0.265564 -0.1031872,0.537127 -0.1870439,0.798369 -0.076549,0.24174 -0.1284286,0.491984 -0.1852024,0.738788 -0.069234,0.31443 -0.087518,0.641824 -0.2035827,0.946039 -0.087195,0.357214 -0.1991717,0.709943 -0.3495895,1.045869 -0.104678,0.276274 -0.1988094,0.552418 -0.2786545,0.837678 -0.1203532,0.366129 -0.2585557,0.725479 -0.3987968,1.084314 -0.1188636,0.27085 -0.2123953,0.551836 -0.3115056,0.830204 -0.084419,0.307008 -0.1727334,0.613029 -0.2374346,0.925235 -0.080593,0.297448 -0.1962402,0.583594 -0.2521774,0.887476 -0.044694,0.286075 -0.1064679,0.567195 -0.1338723,0.855339 -0.04759,0.276309 -0.1241663,0.545387 -0.1723719,0.820881 -0.055401,0.337552 -0.073842,0.681622 -0.1633838,1.013617 -0.06301,0.22846 -0.075523,0.467318 -0.063194,0.702723 0.00456,0.267179 0.00534,0.534787 0.026625,0.801265 0.023139,0.306674 0.104429,0.610032 0.070761,0.920564 -0.00926,0.346226 -0.028003,0.69244 -0.075145,1.035863 -0.054933,0.376606 -0.068438,0.756497 -0.1141571,1.134279 -0.034508,0.404499 0.013831,0.813444 0.00298,1.218915 0.00434,0.437286 0.00926,0.875394 0.054359,1.310791 0.054435,0.457264 0.143311,0.909119 0.2140137,1.363993 0.074312,0.432014 0.1395213,0.865669 0.1996845,1.299829 0.064243,0.418825 0.014418,0.0545 0.040486,0.325379 0.012407,0.128929 0.040118,0.252941 0.023604,0.234417 -0.6943602,-0.778913 0.4868311,-0.428832 -1.6578699,-0.32211 -0.06375,0.118001 -0.1314277,0.233963 -0.19125,0.354002 -0.013079,0.02624 -0.017373,0.05602 -0.026906,0.08375 -0.00202,0.0059 -0.00684,0.02311 -0.00771,0.01696 -0.019751,-0.139458 -0.010919,-0.283205 -0.031694,-0.422723 -0.00802,-0.106159 -0.066948,-0.926451 -0.021299,-0.938784 0.6103516,-0.164898 1.2598023,-0.108534 1.8897035,-0.162802 0.079041,0.191253 0.1197059,0.389708 0.1939138,0.583015 0.1365511,0.389831 0.2718943,0.780873 0.3647642,1.183938 0.1304034,0.493207 0.2691791,0.984055 0.4009258,1.476873 0.1163757,0.449566 0.2008251,0.907443 0.3501001,1.347654 0.1113004,0.308285 0.2636139,0.606886 0.4498706,0.875868 0.095532,0.106321 0.202055,0.208462 0.327413,0.278564 0.2421757,0.05794 0.397192,0.114164 0.6371501,0.149444 0.3007372,0.07166 0.607498,0.101567 0.9111366,0.159883 0.5684696,0.110507 1.1441974,0.185782 1.7080133,0.321664 0.592468,0.137172 1.198275,0.209557 1.807507,0.190647 0.642978,-0.03186 1.275112,-0.160445 1.902573,-0.299224 0.268617,-0.0798 0.533022,-0.172162 0.802694,-0.248373 0.149897,-0.04236 0.25915,-0.07103 0.266707,-0.04771 0.196134,0.60519 0.342512,1.225389 0.513768,1.838083 0.02632,0.0013 0.100681,-0.01087 0.07895,0.004 -0.156827,0.107534 -0.697458,0.09278 -0.904638,0.119306 -0.566403,0.03566 -1.133515,0.05745 -1.701196,0.04146 -0.848244,-0.034 -1.697235,-0.09913 -2.513947,-0.350438 C 9.3722678,60.47265 8.6666608,60.219614 8.0048121,59.860431 7.4060077,59.587522 6.817004,59.281245 6.3415085,58.816457 5.9995673,58.483437 5.6900827,58.121702 5.389159,57.751548 5.0506799,57.306066 4.7636353,56.81989 4.5894537,56.285365 4.4659561,55.868225 4.373404,55.442766 4.249942,55.025476 4.125556,54.651247 3.9647937,54.295668 3.7976031,53.938578 3.5578188,53.41788 3.3657726,52.88182 3.2387382,52.321594 3.0370405,51.598967 2.8348362,50.874731 2.7002684,50.136004 2.5122655,49.122032 2.3231966,48.105628 2.2541298,47.074992 2.2161555,46.20684 2.226409,45.338118 2.3194365,44.473203 c 0.04501,-0.367023 0.012206,-0.167565 0.066053,-0.428292 0.00665,-0.03219 -0.013109,-0.104074 0.018944,-0.09678 0.048595,0.01106 0.04725,0.09201 0.087746,0.121056 0.8787038,0.630312 0.5185228,0.507239 1.5448767,0.10451 0.1384355,-0.203541 0.1472157,-0.263074 0.093019,-0.03869 -0.033937,0.14051 -0.0549,0.282969 -0.088008,0.423723 -0.095726,0.18656 0.105143,0.699488 0.028198,0.916131 -0.025083,0.371274 -0.076004,0.740399 -0.1581213,1.103607 -0.060637,0.397179 -0.1663386,0.785228 -0.229032,1.182231 -0.087305,0.49322 -0.1549137,0.989808 -0.2244033,1.485747 -0.063306,0.509446 -0.1614313,1.017884 -0.1656234,1.532141 -0.00695,0.434404 -0.00958,0.868634 -0.00585,1.303144 0.010021,0.383508 1.902e-4,0.767594 0.025382,1.150648 0.026789,0.291098 0.1431637,0.544992 0.2535485,0.81452 0.144599,0.392634 0.3076036,0.778185 0.4456433,1.173259 0.1041689,0.353579 0.2254214,0.702764 0.367318,1.043053 0.1251502,0.392426 0.2297849,0.791595 0.2903309,1.199637 0.046397,0.279287 0.090171,0.561945 0.1991672,0.824856 0.1002198,0.219065 0.171188,0.446523 0.3253947,0.636623 0.1345846,0.174005 0.2517349,0.361062 0.3915123,0.530488 0.1178556,0.131264 0.2743507,0.220241 0.4240688,0.310189 0.1750628,0.129342 0.3950009,0.167581 0.5980133,0.235766 0.2635351,0.09034 0.523416,0.190999 0.7879048,0.278058 0.1895565,0.05187 0.3752668,0.113273 0.5670139,0.155533 0.2118175,0.02564 0.4216087,0.07555 0.6333927,0.08012 0.3145061,0.0062 0.6300496,0.01764 0.9404804,0.07282 0.2496434,0.05158 0.4964084,0.09052 0.7504264,0.117859 0.229576,0.04522 0.452501,0.113782 0.685561,0.138019 0.224215,0.03463 0.451436,0.01171 0.678517,0.02623 0.282627,0.01982 0.566362,0.03026 0.846376,0.07713 0.178561,0.0262 0.334747,0.03691 0.519326,-0.01037 0.386915,-0.07012 0.767493,-0.170295 1.154569,-0.238809 0.427169,-0.08796 0.855244,-0.171601 1.28193,-0.261256 0.31671,-0.08519 0.630175,-0.179297 0.941872,-0.280134 2.829433,-1.131774 3.556964,0.687055 0.727531,1.818828 z"
       inkscape:connector-curvature="0" />
    <path
       style="fill:#502d16;fill-opacity:1;fill-rule:nonzero;stroke:none"
       id="path4953"
       d="m 6.8775826,42.404019 c 0.031589,-0.411665 0.1432858,-0.808041 0.2467112,-1.205645 0.129342,-0.459585 0.2216879,-0.929048 0.3130988,-1.397406 0.1215995,-0.715029 0.3415817,-1.405686 0.569192,-2.092492 0.3207166,-0.941618 0.7012189,-1.862462 1.1243628,-2.76234 0.4613639,-0.933874 1.0451696,-1.797615 1.6081646,-2.671414 1.794361,-3.024436 3.738543,-1.870977 1.944181,1.15346 l 0,0 c -0.469078,0.856578 -1.009246,1.671808 -1.455062,2.541144 -0.409585,0.805293 -0.793615,1.625562 -1.12992,2.46431 -0.2185343,0.602713 -0.4549663,1.199375 -0.5901134,1.828417 -0.1203166,0.489339 -0.2366369,0.980035 -0.3733256,1.464906 -0.088208,0.332487 -0.1630194,0.683561 -0.2969856,1.001397 -0.00945,0.02241 -0.028447,0.03946 -0.042671,0.05919 -0.5966274,2.983136 -2.5142604,2.59961 -1.917633,-0.383527 z"
       inkscape:connector-curvature="0" />
    <path
       style="fill:#502d16;fill-opacity:1;fill-rule:nonzero;stroke:none"
       id="path4955"
       d="m 8.544787,42.749012 c 0.4661496,-0.169203 0.9353178,-0.325087 1.40472,-0.480139 0.918349,-0.304073 1.843488,-0.568192 2.776537,-0.795231 1.105125,-0.267727 2.226198,-0.421398 3.347413,-0.544659 0.57794,-0.05384 1.157368,-0.08188 1.736489,-0.109613 2.867973,-0.314247 3.033,1.942463 0.165028,2.25671 l 0,0 c -0.560982,0.09608 -1.123496,0.17485 -1.686317,0.252965 -1.071932,0.171485 -2.144555,0.339007 -3.212326,0.546321 -0.913387,0.176139 -1.821085,0.383773 -2.729545,0.594313 C 9.8422326,44.576953 9.322603,44.728425 8.8089711,44.689301 6.3431267,45.192364 6.0789426,43.252076 8.544787,42.749012 z"
       inkscape:connector-curvature="0" />
    <path
       style="fill:#502d16;fill-opacity:1;fill-rule:nonzero;stroke:none"
       id="path4957"
       d="m 13.492114,52.452822 c 0.51875,-0.624804 1.151579,-1.036708 1.774172,-1.432965 1.016097,-0.615849 2.06958,-1.105753 3.139448,-1.516191 0.731648,-0.288291 1.483771,-0.450406 2.242567,-0.51942 2.553567,-0.492618 2.786775,1.73633 0.233208,2.228948 l 0,0 c -0.657597,0.206505 -1.312619,0.426329 -1.958476,0.694051 -0.996101,0.409546 -1.986157,0.847836 -2.964112,1.33166 -0.554105,0.282482 -1.099094,0.598867 -1.657893,0.861525 -1.887562,1.708717 -2.696475,0.06111 -0.808914,-1.647608 z"
       inkscape:connector-curvature="0" />
  </g>
</svg>
