<?xml version="1.0" encoding="UTF-8" standalone="no"?>
<!-- Created with Inkscape (http://www.inkscape.org/) -->

<svg
   xmlns:dc="http://purl.org/dc/elements/1.1/"
   xmlns:cc="http://creativecommons.org/ns#"
   xmlns:rdf="http://www.w3.org/1999/02/22-rdf-syntax-ns#"
   xmlns:svg="http://www.w3.org/2000/svg"
   xmlns="http://www.w3.org/2000/svg"
   xmlns:sodipodi="http://sodipodi.sourceforge.net/DTD/sodipodi-0.dtd"
   xmlns:inkscape="http://www.inkscape.org/namespaces/inkscape"
   width="64px"
   height="64px"
   id="svg3985"
   version="1.1"
   inkscape:version="0.48.4 r9939"
   sodipodi:docname="hand.svg">
  <defs
     id="defs3987">
    <clipPath
       clipPathUnits="userSpaceOnUse"
       id="clipPath4821">
      <g
         id="g4823"
         transform="matrix(0.44096998,0.89752185,-0.89752185,0.44096998,47.098411,-0.32970295)"
         style="fill:#d40000">
        <path
           sodipodi:nodetypes="cscscssssc"
           inkscape:connector-curvature="0"
           id="path4825"
           d="m 13.303449,52.816152 c 0,0 -1.830091,-0.01244 -5.1712338,-11.752805 -3.3552608,-11.789978 4.3930528,-11.38648 4.3930528,-11.38648 0,0 2.525961,-0.05972 3.380669,1.621977 0.854712,1.681695 1.098182,9.069208 1.098182,9.069208 0,0 2.23912,5.384875 3.43223,7.5159 1.720639,3.07325 1.130135,2.567227 2.868214,4.4633 1.738082,1.896071 1.622844,0.204396 2.153318,2.398808 0.680632,2.81556 -0.876211,3.162022 -3.363725,2.85564 -1.902643,-0.234345 -8.790707,-4.785548 -8.790707,-4.785548 z"
           style="fill:#d40000;stroke:none" />
        <path
           transform="matrix(2.2161258,-0.58643586,0.70346721,1.5364394,-49.39697,30.040218)"
           d="m 33.482625,22.424711 c 0,4.947107 -2.876441,8.957529 -6.42471,8.957529 -3.54827,0 -6.424711,-4.010422 -6.424711,-8.957529 0,-4.947106 2.876441,-8.957529 6.424711,-8.957529 3.548269,0 6.42471,4.010423 6.42471,8.957529 z"
           sodipodi:ry="8.9575291"
           sodipodi:rx="6.4247103"
           sodipodi:cy="22.424711"
           sodipodi:cx="27.057915"
           id="path4827"
           style="fill:#d40000;fill-opacity:1;fill-rule:nonzero;stroke:none"
           sodipodi:type="arc" />
        <path
           sodipodi:nodetypes="cscscssssc"
           inkscape:connector-curvature="0"
           id="path4829"
           d="m 17.604673,43.500008 c 0,0 -1.946103,-0.501064 -1.795793,-13.761187 0.150945,-13.316153 8.279541,-10.82508 8.279541,-10.82508 0,0 2.710381,0.610586 3.089622,2.61026 0.379245,1.999673 -1.696075,9.847826 -1.696075,9.847826 0,0 0.684032,6.27035 1.281848,8.833651 0.862136,3.696653 0.392856,3.006075 1.645609,5.467145 1.252758,2.46107 1.664604,0.648048 1.536325,3.10145 -0.164591,3.147859 -1.932961,3.097774 -4.486672,2.111726 -1.953275,-0.754205 -7.854405,-7.385791 -7.854405,-7.385791 z"
           style="fill:#d40000;stroke:none" />
        <path
           sodipodi:nodetypes="cscscssssc"
           inkscape:connector-curvature="0"
           id="path4831"
           d="m 26.160137,42.819448 c 0,0 -2.149931,-0.445246 -0.785741,-14.896 1.369951,-14.511817 10.314029,-12.218368 10.314029,-12.218368 0,0 3.002115,0.525065 3.249718,2.68353 0.247604,2.158466 -2.800283,10.813902 -2.800283,10.813902 0,0 0.206625,6.794368 0.649984,9.55545 0.639389,3.981884 0.172289,3.253941 1.363583,5.869846 1.191299,2.615905 1.819177,0.619882 1.453452,3.298764 -0.469249,3.437165 -2.459339,3.473947 -5.250917,2.531837 -2.135212,-0.720598 -8.193825,-7.638961 -8.193825,-7.638961 z"
           style="fill:#d40000;stroke:none" />
      </g>
    </clipPath>
  </defs>
  <sodipodi:namedview
     id="base"
     pagecolor="#ffffff"
     bordercolor="#666666"
     borderopacity="1.0"
     inkscape:pageopacity="0.0"
     inkscape:pageshadow="2"
     inkscape:zoom="8.09375"
     inkscape:cx="32"
     inkscape:cy="33.036244"
     inkscape:current-layer="layer1"
     showgrid="true"
     inkscape:document-units="px"
     inkscape:grid-bbox="true"
     showguides="true"
     inkscape:guide-bbox="true"
     inkscape:window-width="1366"
     inkscape:window-height="705"
     inkscape:window-x="-8"
     inkscape:window-y="-8"
     inkscape:window-maximized="1" />
  <metadata
     id="metadata3990">
    <rdf:RDF>
      <cc:Work
         rdf:about="">
        <dc:format>image/svg+xml</dc:format>
        <dc:type
           rdf:resource="http://purl.org/dc/dcmitype/StillImage" />
        <dc:title></dc:title>
      </cc:Work>
    </rdf:RDF>
  </metadata>
  <g
     id="layer1"
     inkscape:label="Layer 1"
     inkscape:groupmode="layer">
    <g
       id="g4733"
       transform="matrix(0.50153643,1.1778287,-1.0207949,0.57869021,60.206454,-25.380861)"
       style="fill:#a05a2c">
      <path
         sodipodi:nodetypes="cscscssssc"
         inkscape:connector-curvature="0"
         id="path4655-6"
         d="m 13.303449,52.816152 c 0,0 -1.830091,-0.01244 -5.1712338,-11.752805 -3.3552608,-11.789978 4.3930528,-11.38648 4.3930528,-11.38648 0,0 2.525961,-0.05972 3.380669,1.621977 0.854712,1.681695 1.098182,9.069208 1.098182,9.069208 0,0 2.23912,5.384875 3.43223,7.5159 1.720639,3.07325 1.130135,2.567227 2.868214,4.4633 1.738082,1.896071 1.622844,0.204396 2.153318,2.398808 0.680632,2.81556 -0.876211,3.162022 -3.363725,2.85564 -1.902643,-0.234345 -8.790707,-4.785548 -8.790707,-4.785548 z"
         style="fill:#a05a2c;stroke:none" />
      <path
         transform="matrix(2.2161258,-0.58643586,0.70346721,1.5364394,-49.39697,30.040218)"
         d="m 33.482625,22.424711 c 0,4.947107 -2.876441,8.957529 -6.42471,8.957529 -3.54827,0 -6.424711,-4.010422 -6.424711,-8.957529 0,-4.947106 2.876441,-8.957529 6.424711,-8.957529 3.548269,0 6.42471,4.010423 6.42471,8.957529 z"
         sodipodi:ry="8.9575291"
         sodipodi:rx="6.4247103"
         sodipodi:cy="22.424711"
         sodipodi:cx="27.057915"
         id="path4693"
         style="fill:#a05a2c;fill-opacity:1;fill-rule:nonzero;stroke:none"
         sodipodi:type="arc" />
      <path
         sodipodi:nodetypes="cscscssssc"
         inkscape:connector-curvature="0"
         id="path4655-6-5"
         d="m 17.604673,43.500008 c 0,0 -1.946103,-0.501064 -1.795793,-13.761187 0.150945,-13.316153 8.279541,-10.82508 8.279541,-10.82508 0,0 2.710381,0.610586 3.089622,2.61026 0.379245,1.999673 -1.696075,9.847826 -1.696075,9.847826 0,0 0.684032,6.27035 1.281848,8.833651 0.862136,3.696653 0.392856,3.006075 1.645609,5.467145 1.252758,2.46107 1.664604,0.648048 1.536325,3.10145 -0.164591,3.147859 -1.932961,3.097774 -4.486672,2.111726 -1.953275,-0.754205 -7.854405,-7.385791 -7.854405,-7.385791 z"
         style="fill:#a05a2c;stroke:none" />
      <path
         sodipodi:nodetypes="cscscssssc"
         inkscape:connector-curvature="0"
         id="path4655-6-5-4"
         d="m 26.160137,42.819448 c 0,0 -2.149931,-0.445246 -0.785741,-14.896 1.369951,-14.511817 10.314029,-12.218368 10.314029,-12.218368 0,0 3.002115,0.525065 3.249718,2.68353 0.247604,2.158466 -2.800283,10.813902 -2.800283,10.813902 0,0 0.206625,6.794368 0.649984,9.55545 0.639389,3.981884 0.172289,3.253941 1.363583,5.869846 1.191299,2.615905 1.819177,0.619882 1.453452,3.298764 -0.469249,3.437165 -2.459339,3.473947 -5.250917,2.531837 -2.135212,-0.720598 -8.193825,-7.638961 -8.193825,-7.638961 z"
         style="fill:#a05a2c;stroke:none" />
    </g>
    <path
       style="fill:#784421;stroke:none"
       d="m 36.269699,11.131561 c 0,0 -10.539134,5.350585 -12.787482,9.566197 -2.248349,4.215612 -5.620872,1.621389 -5.620872,1.621389 0,0 15.035831,-15.2410611 18.408354,-11.187586 z"
       id="path4769"
       inkscape:connector-curvature="0" />
    <path
       style="fill:#784421;stroke:none"
       d="m 52.293191,18.956809 c 0,0 -11.353373,2.212855 -14.427262,5.66566 -3.07389,3.452805 -5.793849,-0.01462 -5.793849,-0.01462 0,0 17.810569,-10.533371 20.221111,-5.651041 z"
       id="path4769-9"
       inkscape:connector-curvature="0" />
    <path
       style="fill:#784421;stroke:none"
       d="m 48.926641,39.53668 c 0,0 -19.76834,2.471042 -24.586873,7.907335 -4.818532,5.436294 -3.459459,11.6139 -9.760617,12.231661 -6.3011587,0.61776 -1.606178,3.706563 -1.606178,3.706563 l 24.092664,-4.07722 16.432432,-9.88417 -0.741312,-10.131274"
       id="path4789"
       inkscape:connector-curvature="0"
       clip-path="url(#clipPath4821)"
       transform="matrix(1.1373482,0,0,1.3123121,6.6196015,-25.025423)" />
    <g
       id="g4851"
       transform="translate(0.74131274,-0.86486486)">
      <path
         inkscape:connector-curvature="0"
         d="M 13.142134,55.049885 C 12.265035,54.64707 11.500531,53.976501 10.76479,53.291931 9.8236845,52.387609 8.9774228,51.363317 8.1683056,50.295169 7.4859298,49.367531 6.7796879,48.466056 6.0619518,47.577585 5.353388,46.743791 4.6762259,45.876678 4.0115353,44.993386 3.4416858,44.243145 2.9003153,43.4672 2.3974746,42.651241 1.9849007,42.016521 1.6545859,41.318074 1.3281097,40.618233 0.83178106,39.550396 0.15334476,35.880956 3.4908137,37.76415 c 0.2752208,0.221008 0.5989535,0.333374 0.8984589,0.500827 0.547654,0.290131 1.0517006,0.680432 1.5448395,1.08337 0.5062897,0.427127 0.9616538,0.930617 1.4083525,1.441735 0.4557317,0.511193 0.8137921,1.120171 1.1852639,1.715465 0.3013071,0.464286 0.5784755,0.950388 0.8529254,1.43769 0.2245134,0.398443 0.5246805,0.712445 0.7985611,1.060302 0.3254,0.41396 0.611243,0.869758 0.915382,1.306103 0.30442,0.297573 0.581503,0.623594 0.845375,0.972017 0.335273,0.432247 0.664017,0.867025 0.969626,1.329746 0.216709,0.335536 0.45963,0.641369 0.700166,0.95116 0.245001,0.368872 0.494951,0.732336 0.752055,1.089487 0.287209,0.421045 0.495478,0.902645 0.727166,1.366053 0.03561,0.07393 0.07124,0.147858 0.106842,0.221787 0.0011,0.01247 0.01104,0.04566 0.0031,0.03741 -0.07074,-0.07383 -0.111017,-0.196248 -0.197414,-0.240234 -0.354476,-0.180466 -0.720083,-0.49028 -1.100967,-0.42078 -0.912717,0.166544 -0.995368,0.550832 -1.252634,1.200264 -0.0168,0.119093 -0.01553,0.24394 -0.0504,0.357304 -0.0093,0.03046 -0.01747,-0.0621 -0.03197,-0.08953 -0.0058,-0.01116 -0.01803,-0.01479 -0.02704,-0.02219 -0.01857,-0.03741 -0.04139,-0.07223 -0.0557,-0.112203 -0.0762,-0.213021 -0.136984,-0.433452 -0.208199,-0.648903 -0.248134,-0.708054 -0.544578,-1.387326 -0.798048,-2.0929 C 11.163469,49.453997 10.94641,48.655626 10.744029,47.852244 10.57484,47.160284 10.45801,46.450582 10.340832,45.743466 10.262746,45.314788 10.189424,44.886032 10.091045,44.463589 10.003878,43.994105 9.9181993,43.52654 9.8311535,43.057136 9.7601496,42.505975 9.6382948,41.970694 9.5711205,41.41802 c -0.076502,-0.673486 -0.091958,-1.355528 -0.089984,-2.034528 0.037205,-0.487481 -0.044878,-1.004711 0.060838,-1.484511 0.048917,-0.222017 0.1290236,-0.432504 0.1935352,-0.648757 0.6312753,-1.089962 1.3548003,-1.405804 2.3739903,-0.79348 0.404022,0.242733 0.684772,0.701421 0.943975,1.119973 0.380456,0.740069 0.746341,1.491754 1.051937,2.280105 0.333543,0.857695 0.573517,1.75438 0.739453,2.677387 0.1427,0.731157 0.223951,1.474825 0.320835,2.215574 0.102362,0.595581 0.09155,1.205528 0.169206,1.804133 0.07171,0.496001 0.106308,0.996942 0.179471,1.491972 0.09726,0.538316 0.200844,1.072814 0.266079,1.618983 0.106104,0.47075 0.16843,0.952137 0.211269,1.436228 0.03693,0.49472 0.03926,0.991736 0.04101,1.48802 4.64e-4,0.438263 -5.67e-4,0.876522 -0.0011,1.314782 -6.5e-5,0.07235 1.6e-4,0.144706 -1.93e-4,0.217047 -8.7e-5,0.01803 0.0022,-0.03639 -5.99e-4,-0.05412 -0.01434,-0.09044 -0.02203,-0.183978 -0.05073,-0.269399 -0.167359,-0.498337 -0.34342,-0.610523 -0.731233,-0.832992 -0.329171,-0.102307 -0.258049,-0.01812 -0.144789,-0.08849 0.01471,-0.0092 -0.06306,7.35e-4 -0.0491,-0.01 0.09408,-0.07213 0.214405,-0.07568 0.322375,-0.110221 0.353733,-0.155343 0.712862,-0.300408 1.073771,-0.433217 0.519702,-0.122648 1.043385,-0.232393 1.567806,-0.324961 0.575607,-0.07326 1.144309,-0.194111 1.71919,-0.277407 0.538761,-0.06509 1.075535,-0.155537 1.614265,-0.227929 0.45105,-0.09983 0.903409,-0.17565 1.353636,-0.278585 0.389024,-0.09021 0.785188,-0.171476 1.153494,-0.352446 0.475595,-0.231553 0.9696,-0.395848 1.45918,-0.576961 0.454014,-0.168958 0.92606,-0.264399 1.380888,-0.42752 0.360274,-0.116901 0.721829,-0.216489 1.079375,-0.34454 0.649033,-0.197478 -0.09867,0.05394 -0.09468,0.176593 0.03536,1.08666 0.249569,2.15828 0.465943,3.214566 0.02847,0.139015 0.392828,-0.02038 0.08789,0.09272 -0.548496,0.23555 -1.099348,0.436602 -1.635517,0.713854 -0.806203,0.434742 -1.601442,0.898847 -2.420867,1.297227 -0.821426,0.435633 -1.695353,0.660638 -2.58554,0.763787 -0.597937,0.06406 -1.199713,0.04886 -1.799381,0.04078 -0.419621,-0.01194 -0.83918,-0.02601 -1.258885,-0.03322 -0.365491,-0.0053 -0.731013,-0.0056 -1.096523,-0.006 -0.380896,-0.0088 -0.76132,0.0077 -1.141979,0.01532 -0.403591,0.0012 -0.807153,-0.0066 -1.210724,-0.01063 -0.26951,-0.04261 -0.476234,0.04458 -0.516236,0.06189 0.667676,-0.905653 0.604547,1.073569 0.668287,-2.287397 0.0083,-0.436887 -0.666511,-0.77124 -0.235566,-0.627808 0.631908,0.206687 1.26928,0.388429 1.900534,0.597948 0.764591,0.258425 1.531899,0.504649 2.298832,0.752891 0.672527,0.270061 1.346631,0.534138 2.015731,0.816216 0.543536,0.225163 1.090492,0.438372 1.633833,0.664121 0.458341,0.226775 0.928915,0.407851 1.395402,0.605835 0.423475,0.183575 0.876416,0.233706 1.315268,0.354339 0.388494,0.09329 0.780276,0.127583 1.175007,0.145321 0.39595,0.01994 0.792184,0.02823 1.188435,0.03273 0.53872,-0.02512 1.080215,0.08493 1.601376,0.239906 1.512887,0.532965 0.762955,0.243659 0.653577,3.712178 -0.735017,0.195931 -1.414015,-0.03079 -2.125008,-0.215919 -0.666447,-0.211733 -1.348174,-0.337881 -2.015537,-0.544598 -0.762442,-0.180686 -1.506439,-0.460013 -2.241034,-0.760888 -0.542108,-0.26883 -1.093955,-0.483856 -1.663375,-0.649215 -0.590187,-0.130325 -1.178015,-0.24859 -1.756282,-0.445701 -0.567156,-0.191457 -1.084708,-0.507586 -1.605097,-0.827778 -0.33823,-0.233899 -0.711629,-0.370544 -1.076136,-0.530434 -0.370005,-0.201717 -0.763417,-0.30798 -1.152453,-0.439764 -0.306514,-0.142565 -0.643895,-0.144988 -0.946456,-0.302063 -0.166488,-0.08643 -0.321688,-0.201094 -0.482532,-0.30164 -0.186335,-0.260665 -0.435795,-0.472388 -0.559007,-0.781993 -0.385903,-0.969701 -0.0797,-1.958911 0.277761,-2.838067 0.229404,-0.670958 0.531226,-1.300539 0.814549,-1.939989 0.270337,-0.753721 0.56023,-1.498187 0.888248,-2.21865 0.331616,-0.683037 0.652727,-1.371456 0.94896,-2.077755 0.321301,-0.781002 0.689334,-1.532867 1.056352,-2.284012 0.356843,-0.678603 0.755047,-1.329742 1.19194,-1.937773 0.24554,-0.297847 0.443923,-0.636584 0.642396,-0.977032 0.07964,-0.140231 0.09631,-0.23362 0.192226,-0.395447 0.868427,-1.46519 1.190209,-0.09016 2.886915,1.096481 -0.13287,0.731435 -0.399878,1.399129 -0.681528,2.061208 -0.275746,0.871225 -0.696493,1.653965 -1.112593,2.435717 -0.303153,0.560844 -0.624983,1.106084 -0.91542,1.676654 -0.199562,0.410453 -0.381445,0.832352 -0.549343,1.262451 -0.231705,0.540759 -0.530153,1.04259 -0.834103,1.529184 -0.165861,0.246957 -0.281945,0.524822 -0.4092,0.800478 -0.184719,0.425346 -0.384369,0.840153 -0.59028,1.251483 -0.17988,0.419081 -0.395478,0.812097 -0.604801,1.21042 -0.376849,0.714655 -0.891463,1.333837 -1.620902,1.495245 -0.218878,0.04844 -0.445135,0.0088 -0.667702,0.01321 -0.988583,-0.22116 -1.55375,-1.077744 -2.053841,-2.032219 -0.304551,-0.598813 -0.643126,-1.170884 -0.963161,-1.757733 -0.345178,-0.63769 -0.689937,-1.275382 -1.054277,-1.897721 C 11.09775,48.93585 10.694877,48.445553 10.318091,47.928598 9.8186986,47.335812 9.3763509,46.684172 8.9648427,46.003478 8.5911945,45.355448 8.2306188,44.696934 7.8830001,44.028586 7.5789656,43.341989 7.2780171,42.654858 6.9453101,41.987262 6.5889768,41.300591 6.1793427,40.664471 5.8251134,39.975017 5.4575458,39.181999 5.2229702,38.315731 5.0172195,37.447052 4.8521578,36.83522 4.7027266,36.217514 4.5410369,35.604276 4.4245893,35.062577 4.2865629,34.529598 4.1440174,33.997156 3.981124,33.586972 3.9086266,33.132674 3.7464392,32.723061 4.0425646,32.978568 3.4999877,32.231912 3.6391737,32.240146 c 0.049713,0.0031 0.028281,0.157351 0.077875,0.152278 0.9398029,-0.09622 1.8796502,-0.22804 2.8048622,-0.447417 0.079619,-0.01889 0.017147,-0.19759 0.054701,-0.283592 0.3650661,0.742271 0.6079428,1.561901 0.9035147,2.345515 0.4331143,1.215785 0.9597253,2.379941 1.4736289,3.548759 0.5226863,1.158032 1.1023415,2.276985 1.6435055,3.422369 0.434528,0.873485 0.925082,1.700159 1.414702,2.529517 0.393109,0.693859 0.789698,1.384496 1.191928,2.070825 0.383194,0.564743 0.62646,1.23258 0.931254,1.85471 0.273053,0.474312 0.504477,0.978336 0.741583,1.478503 0.207613,0.430357 0.459744,0.824589 0.672994,1.251462 0.408413,0.731378 -0.02208,-0.09206 -0.473187,-0.184081 -0.228472,-0.0466 -0.463516,0.0068 -0.695276,0.01037 -0.452708,0.236973 -0.324675,0.11362 -0.660659,0.487649 -0.03442,0.03831 -0.0651,0.166246 -0.09584,0.123726 -0.01574,-0.02178 0.07128,-0.547473 0.08646,-0.696958 0.07818,-0.787006 0.163827,-1.575303 0.278676,-2.356 0.118616,-0.748316 0.209567,-1.50361 0.341994,-2.248346 0.122793,-0.866838 0.354405,-1.701945 0.598776,-2.528554 0.21903,-0.705054 0.488918,-1.385079 0.767798,-2.058494 0.181064,-0.487969 0.357672,-0.978139 0.548112,-1.461022 0.101952,-0.261671 0.186202,-0.535777 0.308709,-0.785557 0.123139,-0.251078 0.08262,-0.303839 0.140793,-0.199544 0.9407,0.320136 1.922647,0.501176 2.822101,0.960409 0.120903,0.06173 -0.01179,0.313931 -0.01889,0.470828 -0.02337,0.521295 -0.115142,1.037583 -0.190869,1.551006 -0.161366,0.940343 -0.309652,1.885281 -0.502904,2.817298 -0.183812,0.754192 -0.339883,1.517549 -0.523092,2.271991 -0.11237,0.590532 -0.269619,1.166193 -0.397701,1.751744 -0.142743,0.711677 -0.407057,1.369549 -0.694181,2.011106 -0.204101,0.493674 -0.452203,0.95576 -0.697312,1.42081 -0.0973,0.142379 -0.365707,0.962997 -0.215339,0.410915 0.0057,-0.172919 0.06738,-0.35657 0.01691,-0.518773 -0.121533,-0.390523 -0.270464,-0.791821 -0.51659,-1.086986 -0.173994,-0.208658 -0.453074,-0.232206 -0.679815,-0.347738 -0.02724,-0.01391 -0.06735,-0.0098 -0.08214,-0.04049 -0.02529,-0.05247 0.07696,-0.0797 0.120294,-0.111087 0.524154,-0.238276 1.038701,-0.504604 1.5568,-0.760866 0.462143,-0.190515 0.929846,-0.362145 1.376995,-0.5997 0.466326,-0.226378 0.941116,-0.429024 1.405436,-0.661073 0.409767,-0.214446 0.813561,-0.444272 1.220335,-0.666768 0.365199,-0.246047 0.769646,-0.389835 1.146102,-0.606228 0.435429,-0.253582 0.892285,-0.440349 1.350657,-0.624695 0.428755,-0.175069 0.847652,-0.324472 1.303635,-0.343515 0.360405,1.039376 0.855616,2.02582 1.081214,3.118126 0.0191,0.09247 -1.135633,0.965073 -1.247917,1.048522 -0.554251,0.43083 -1.118904,0.833275 -1.70554,1.197258 -0.456435,0.312016 -0.886443,0.674545 -1.331701,1.009023 -0.371307,0.221066 -0.705525,0.510599 -1.049884,0.782636 -0.373743,0.276276 -0.786807,0.456594 -1.21749,0.55506 -0.446936,0.102189 -0.150428,0.0078 -0.357861,0.07661 -0.356677,0.07424 -0.704343,0.18046 -1.056396,0.278458 -0.288895,0.102387 -0.540919,0.290882 -0.816201,0.436926 -4.379956,2.324821 -5.630422,-1.040074 -1.250467,-3.364893 l 0,0 c 0.449433,-0.238822 0.882151,-0.52609 1.370019,-0.645939 0.373784,-0.104092 0.746409,-0.209728 1.124005,-0.292602 0.16737,-0.03824 0.349336,-0.05174 0.510855,-0.11383 0.347982,-0.272582 0.679128,-0.574783 1.027398,-0.846564 0.502306,-0.407493 0.998755,-0.826086 1.518223,-1.202181 0.551595,-0.38133 1.103824,-0.762035 1.658482,-1.136274 0.341832,-0.221685 0.19368,-0.136358 0.500082,-0.300534 0.05522,-0.0296 0.110869,-0.05806 0.165861,-0.08823 0.0411,-0.02255 0.116098,-0.123449 0.122405,-0.06992 0.008,0.06856 -0.135124,0.09551 -0.111914,0.158971 0.366329,1.00136 0.826661,1.949752 1.239991,2.924628 0.05923,-0.0015 0.118722,0.0021 0.177691,-0.0046 0.04336,-0.005 0.157948,-0.06842 0.12814,-0.03049 -0.149336,0.190062 -0.576141,0.220729 -0.765133,0.346511 -0.365591,0.158568 -0.736472,0.301284 -1.094063,0.484633 -0.364556,0.192273 -0.73879,0.359803 -1.086438,0.594899 -0.469391,0.283508 -0.93448,0.57913 -1.42237,0.815974 -0.457182,0.197196 -0.909526,0.407963 -1.363196,0.615428 -0.45415,0.204287 -0.896771,0.443711 -1.3543,0.637924 -0.570664,0.276292 -1.113356,0.643039 -1.720138,0.805848 -0.367567,0.130548 -0.84446,0.326382 -1.235905,0.223393 -0.317413,-0.08352 -0.676275,-0.115641 -0.9263,-0.363818 -0.778928,-0.773152 -0.672745,-1.085757 -0.692719,-1.993813 0.03557,-0.16938 0.06196,-0.341899 0.106729,-0.508135 0.109606,-0.407016 0.335083,-0.773648 0.482549,-1.158664 0.206215,-0.38142 0.354427,-0.801999 0.526848,-1.205474 0.180818,-0.411718 0.373572,-0.82488 0.460941,-1.281471 0.151012,-0.557753 0.22504,-1.140932 0.351004,-1.706819 0.14537,-0.74285 0.270678,-1.491602 0.41635,-2.234628 0.191313,-0.904487 0.298894,-1.831439 0.505784,-2.732211 0.08326,-0.345239 0.158792,-0.691507 0.246393,-1.034876 0.02385,-0.0935 0.02728,-0.196506 0.06652,-0.282269 0.009,-0.01966 0.02832,0.02936 0.04247,0.04405 0.942703,0.238965 1.885406,0.477931 2.828112,0.716893 -0.07626,0.344764 -0.196772,0.67809 -0.320004,1.009389 -0.188072,0.451484 -0.323756,0.931506 -0.474995,1.401511 -0.2127,0.612661 -0.453103,1.212471 -0.622048,1.845279 -0.209625,0.641047 -0.380116,1.303785 -0.493219,1.978839 -0.116314,0.689054 -0.229662,1.378562 -0.308464,2.075138 -0.09222,0.819999 -0.15717,1.64372 -0.297789,2.455346 -0.161793,0.861709 -0.373642,1.836809 -0.980059,2.419495 -0.170497,0.163832 -0.383461,0.251821 -0.575192,0.37773 -0.291003,0.0257 -0.583358,0.119289 -0.873009,0.07707 C 13.696299,53.374594 13.260727,52.679768 12.898429,52.03507 12.714386,51.652487 12.488469,51.30138 12.286904,50.932192 11.993001,50.420024 11.72204,49.888033 11.457001,49.354015 11.189955,48.830347 10.952225,48.280201 10.623536,47.806162 10.203325,47.130283 9.7879673,46.450272 9.3656941,45.776275 8.8165487,44.878434 8.2473784,43.998684 7.7439269,43.061794 7.1027347,41.895438 6.4920411,40.703553 5.9472314,39.468505 5.3658083,38.180211 4.7852298,36.886065 4.3746465,35.502354 4.0847235,34.553345 3.8351283,33.588224 3.6069734,32.615402 3.5970216,32.547817 3.4311299,31.586584 3.53029,31.541245 c 2.8715856,-1.313041 2.3597475,-1.614721 3.0267267,-0.326212 0.1934866,0.52512 0.3504156,1.061351 0.5302199,1.592433 0.1637926,0.548392 0.2889114,1.108277 0.4344542,1.663416 0.1693232,0.63181 0.3600663,1.253482 0.524062,1.88789 0.1481955,0.547752 0.2667938,1.12206 0.510472,1.621944 0.3529483,0.695201 0.7806709,1.33315 1.113538,2.043849 0.329437,0.647372 0.6251032,1.317065 0.9205622,1.987182 0.312919,0.598461 0.599738,1.217468 0.948095,1.78861 0.354231,0.601013 0.831542,1.089058 1.213957,1.664337 0.427786,0.626315 0.88741,1.223654 1.268292,1.894453 0.376121,0.659346 0.76825,1.30597 1.106959,1.994881 0.324507,0.603366 0.643044,1.212903 0.947023,1.831043 0.05023,0.09534 0.277937,0.468145 0.305404,0.581641 0.0049,0.02037 -0.03615,0.01063 -0.05307,0.0042 -0.521265,-0.196461 0.103351,-0.04253 -0.532216,-0.171969 -0.124293,0.0169 -0.252595,0.0097 -0.372873,0.05071 -0.327668,0.111888 -0.608344,0.603946 -0.239824,0.07502 0.209063,-0.376886 0.366121,-0.789881 0.563107,-1.175595 0.182291,-0.335351 0.361008,-0.671572 0.525088,-1.019844 0.190299,-0.435435 0.378657,-0.870326 0.627432,-1.263673 0.183457,-0.317091 0.354322,-0.648322 0.507655,-0.987251 0.21261,-0.507566 0.458564,-0.994522 0.66339,-1.507552 0.272506,-0.582929 0.538929,-1.169854 0.815611,-1.750014 0.36142,-0.787993 0.779815,-1.536514 1.133837,-2.329866 0.126342,-0.244448 0.251596,-0.48968 0.377716,-0.734281 0.03096,-0.06006 0.06315,-0.119223 0.09418,-0.179226 0.02053,-0.0397 0.05915,-0.166491 0.06053,-0.119853 0.0038,0.12963 -0.03513,0.256004 -0.05272,0.384007 0.808141,0.494262 1.585599,1.067925 2.424429,1.482785 0.123525,0.0611 0.509253,-0.817064 0.122568,0.04083 -0.03717,0.08246 -0.07958,0.161384 -0.119372,0.242084 -0.235675,0.465961 -0.508776,0.889018 -0.790385,1.315636 -0.29787,0.482231 -0.554235,1.002574 -0.822418,1.508352 -0.342944,0.691957 -0.675216,1.391663 -0.990307,2.102342 -0.319158,0.706791 -0.616122,1.427356 -0.953695,2.122097 -0.327969,0.750753 -0.624132,1.518564 -0.935059,2.279302 -0.291242,0.585464 -0.584318,1.17001 -0.821604,1.790575 -0.05808,0.114092 -0.08843,0.168552 -0.138787,0.288355 -0.02698,0.06419 -0.03845,0.250114 -0.07686,0.194888 -0.05306,-0.07628 0.02296,-0.200542 0.0055,-0.29751 -0.159725,-0.885598 -0.14119,-0.691341 -0.656605,-1.320642 -0.09178,-0.04773 -0.183206,-0.09643 -0.275339,-0.143173 -0.01775,-0.0089 -0.07344,-0.0262 -0.05424,-0.02405 0.332796,0.03733 0.658242,0.147471 0.980855,0.245388 0.465117,0.159428 0.931404,0.301582 1.378157,0.528769 0.443418,0.197989 0.888639,0.384018 1.306613,0.654661 0.371613,0.194952 0.732628,0.417666 1.128034,0.539597 0.558782,0.171159 1.123707,0.27432 1.688546,0.415701 0.663315,0.200397 1.326129,0.392349 1.967174,0.684581 0.634686,0.272862 1.28639,0.488587 1.943001,0.671512 0.682709,0.185075 1.374449,0.336437 2.039749,0.60123 0.245724,0.08517 0.502012,0.167373 0.74389,0.2677 0.03388,0.01409 0.06283,0.04148 0.09533,0.05956 0.03125,0.01745 0.128124,0.03265 0.09573,0.04675 -0.13987,0.06085 -0.29217,0.0682 -0.438255,0.102281 0.0069,1.121775 -0.0047,2.24392 0.02038,3.365324 5.98e-4,0.02672 0.07536,0.03151 0.05582,0.04449 -0.106126,0.07054 -0.489463,-0.151255 -0.628607,-0.160379 -0.286874,-0.04309 -0.571973,-0.109919 -0.859915,-0.123606 -0.43518,0.0062 -0.870434,0.01773 -1.305642,0.0088 -0.565189,-0.02401 -1.132914,-0.06965 -1.688271,-0.203182 -0.599688,-0.12732 -1.206478,-0.225901 -1.776233,-0.49871 -0.426649,-0.199211 -0.847404,-0.420558 -1.288068,-0.571805 -0.542212,-0.195606 -1.089848,-0.369148 -1.623092,-0.59981 -0.629854,-0.220961 -1.251856,-0.471901 -1.883372,-0.68662 -0.7938,-0.25001 -1.592582,-0.477113 -2.381437,-0.749554 -0.76031,-0.283477 -1.543525,-0.516696 -2.252313,-0.961097 -0.365167,-0.237772 -1.12735,-0.669372 -1.167883,-1.221914 -0.117821,-1.606104 0.05077,-2.102022 0.931634,-2.655018 0.513654,-0.23483 1.038837,-0.36031 1.591204,-0.324186 0.40354,-0.0041 0.807072,-0.01181 1.210633,-0.01076 0.380896,0.0076 0.761558,0.02392 1.14269,0.01514 0.368584,-1.35e-4 0.73717,-2.48e-4 1.105748,-0.0032 0.417134,-0.0039 0.834225,-0.01128 1.251307,-0.01994 0.471722,-0.006 0.942485,-0.02009 1.411829,-0.08563 0.586939,-0.11358 1.161173,-0.288584 1.700287,-0.598072 0.822788,-0.43348 1.627364,-0.916134 2.461724,-1.318965 0.799351,-0.369457 1.628296,-0.643667 2.484707,-0.73671 0.129407,-0.0073 0.754001,-0.05142 0.775822,0.0087 1.070238,2.947723 1.450764,2.797216 0.2736,3.534397 -0.145072,0.09085 -0.127844,0.08033 -0.241009,0.108213 -0.356341,0.133469 -0.706681,0.28781 -1.066874,0.407251 -0.46316,0.168446 -0.931635,0.31209 -1.399767,0.455953 -0.397959,0.1353 -0.803522,0.247945 -1.184765,0.443072 -0.549674,0.26105 -1.114751,0.48819 -1.704468,0.576033 -0.542694,0.131021 -1.091581,0.218419 -1.637729,0.325948 -0.531237,0.05647 -1.049664,0.23192 -1.583768,0.267731 -0.538473,0.06372 -1.072451,0.177738 -1.61283,0.221883 -0.408041,0.072 -0.816626,0.129013 -1.224554,0.195504 -0.38515,0.06708 -0.741375,0.319171 -1.123728,0.41057 -0.542438,0.150165 -1.069658,0.293248 -1.628771,0.145655 -0.189419,-0.08918 -0.392884,-0.143882 -0.568259,-0.267429 -0.665573,-0.46884 -0.98347,-1.391126 -0.965148,-2.280635 5.18e-4,-0.431661 0.0016,-0.863323 0.0013,-1.294986 -0.0012,-0.373667 -9.71e-4,-0.747967 -0.02611,-1.120685 -0.03691,-0.428429 -0.132317,-0.841298 -0.210043,-1.261338 -0.07221,-0.506108 -0.210936,-0.995922 -0.257534,-1.507266 -0.0787,-0.497328 -0.09903,-0.998524 -0.182806,-1.493513 -0.101974,-0.600875 -0.156277,-1.20958 -0.235732,-1.815009 -0.114663,-0.701493 -0.174728,-1.414855 -0.32899,-2.10668 -0.101551,-0.65192 -0.323303,-1.268637 -0.555088,-1.86825 -0.220973,-0.622383 -0.501399,-1.211298 -0.731525,-1.827755 0.01704,-0.04732 -0.08231,-0.148596 -0.03922,-0.147275 0.723623,0.0221 -0.7472588,0.518573 0.698446,0.258541 1.020864,-0.183618 0.920769,-0.240692 1.388247,-0.975876 0.02975,-0.124485 0.0609,-0.248485 0.08923,-0.373434 0.002,-0.0088 0.0014,-0.03614 0.0016,-0.02711 0.0078,0.331402 0.008,0.663101 0.0205,0.994372 0.01455,0.527413 0.02219,1.054544 0.06092,1.580542 0.04715,0.452647 0.106671,0.902473 0.169262,1.352496 0.07289,0.39547 0.144415,0.791012 0.217843,1.185922 0.132831,0.538765 0.246592,1.083826 0.379743,1.622523 0.0695,0.533809 0.180857,1.061064 0.308676,1.579028 0.204213,0.671842 0.405347,1.344798 0.667866,1.988454 0.312703,0.802624 0.638563,1.60482 0.872836,2.445446 0.199134,0.813702 0.419975,1.619434 0.300702,2.479816 -0.255495,0.81044 -0.303665,1.311643 -1.353286,1.553908 C 13.469286,55.29425 12.853938,54.647751 12.497951,53.988007 12.312073,53.644328 12.152265,53.282773 11.959004,52.944608 11.777107,52.655399 11.5986,52.363997 11.391835,52.100318 11.070557,51.721333 10.780561,51.31328 10.473913,50.91758 10.203169,50.511057 9.9030594,50.135125 9.6268047,49.733904 9.3532945,49.352484 9.0220855,49.041941 8.7353539,48.674802 8.4683152,48.297263 8.1846586,47.936718 7.9093418,47.568026 7.5187574,47.076728 7.1197058,46.592303 6.8131598,46.017483 6.5687119,45.587132 6.3124808,45.166011 6.0387974,44.761415 5.7625187,44.332437 5.4799596,43.911176 5.1814636,43.503764 4.8457556,43.12462 4.5044189,42.750963 4.1298744,42.426405 3.7728732,42.117711 3.4193654,41.809204 3.0020566,41.623531 2.5500721,41.336702 2.0678526,41.087417 1.6925492,40.660769 0.85143126,39.778322 1.5504714,40.603329 3.8328079,38.53348 c 0.026576,-0.0241 -0.024409,-0.189064 -0.023243,-0.187907 0.056089,0.05555 0.1615901,0.284228 0.203915,0.371271 0.2872355,0.54757 0.6069115,1.067094 0.9326326,1.582781 0.4789091,0.704874 0.9676043,1.40067 1.5014288,2.048073 0.64946,0.844407 1.3604329,1.616317 2.0187505,2.451159 0.7333081,0.904844 1.4558872,1.821713 2.1735592,2.74428 0.73604,0.913313 1.472375,1.826753 2.268764,2.666196 0.312294,0.340058 0.634768,0.65997 0.965868,0.973612 0.172471,0.163374 0.359814,0.304527 0.52569,0.477383 0.03933,0.04098 0.06649,0.09613 0.09972,0.144194 4.224369,2.524302 2.866606,5.769668 -1.357764,3.245364 z"
         id="path4847"
         style="fill:#502d16;fill-opacity:1;fill-rule:nonzero;stroke:none" />
      <path
         inkscape:connector-curvature="0"
         d="m 4.4777968,43.049172 c 0.042496,0.04721 0.126441,-0.104289 0.1574337,-0.07138 0.035675,0.03788 0.240844,0.70209 0.247058,0.721028 0.4073621,1.13648 0.6834802,2.309844 0.8977193,3.496295 0.117666,0.970631 0.2462492,1.965404 0.1240485,2.942369 C 5.597814,50.881197 5.793612,50.500781 3.7863348,50.518186 3.6935852,50.51899 3.6949701,50.356484 3.6563501,50.272153 3.4695118,49.864173 3.3463985,49.431272 3.215358,49.003486 2.9187911,47.971894 2.8065952,46.9084 2.704196,45.844661 2.675405,45.469353 2.644392,45.092238 2.647791,44.715368 c 7.074e-4,-0.07844 0.00319,-0.157072 0.01199,-0.235019 0.00452,-0.04003 0.00301,-0.149379 0.027801,-0.117621 0.1433382,0.183625 0.2345041,0.402572 0.3517561,0.603858 0.5683911,-0.186939 1.1184003,-0.443718 1.7051735,-0.560816 0.070822,-0.01413 0.041907,0.13853 0.055075,0.209537 0.1271568,0.685709 0.1776824,1.389422 0.25115,2.081957 0.1713424,1.533012 0.3275034,3.067793 0.4682371,4.603894 0.1362321,1.272981 0.1341073,2.551689 0.00562,3.824191 -0.085558,0.419165 -0.088527,0.871177 -0.2560597,1.271374 C 5.224301,56.502386 5.220893,56.665627 5.1125956,56.702951 4.6027078,56.87868 4.0521293,56.900109 3.5218972,56.998689 3.3852391,56.764306 3.2262579,56.541585 3.1119228,56.29554 3.0642972,56.193052 2.9761107,55.629133 2.9635492,55.536672 2.8887238,54.985909 2.8630314,54.431402 2.8343709,53.876896 c -0.05167,-1.298554 0.05335,-2.594394 0.3005263,-3.868859 0.1053579,-0.355743 0.1355738,-0.775694 0.3502623,-1.093194 0.112851,-0.166893 0.1779398,-0.470256 0.3794064,-0.470478 1.7368532,-0.0019 1.5902337,0.07109 1.8824129,1.017203 0.2311154,1.530215 0.1308289,3.088365 0.086529,4.628985 -0.050528,1.601998 -0.1795586,3.200001 -0.3563839,4.792574 -0.069026,0.308779 -0.073334,0.849144 -0.2694299,1.128325 C 5.0306683,60.263483 4.9379092,60.75765 4.6308866,60.733264 3.1364233,60.614558 3.1545863,60.258592 2.9901378,59.481977 2.8846975,58.346741 3.177088,57.21425 3.6327463,56.179923 3.7377825,55.941495 3.8620073,55.71199 3.9766378,55.478024 4.529577,54.500444 5.1827135,53.553543 6.0436134,52.819493 6.1708728,52.710985 6.3088285,52.615687 6.441436,52.513785 c 0.6620639,-0.449551 1.5850951,-0.803562 2.2476168,-0.03511 0.4476756,0.519253 0.2896495,0.980136 0.2099939,1.528636 -0.4161869,1.476892 -1.2860751,2.757542 -2.1337828,4.015591 -1.0361209,1.463709 -2.1267749,2.889638 -3.3072182,4.240039 -0.2339979,0.215294 -0.4099092,0.489771 -0.644046,0.705618 -0.020233,0.01865 -0.074262,0.05722 -0.076978,0.02983 -0.022829,-0.230141 0.1553885,-0.512963 0.011124,-0.693722 -0.9772787,-1.224495 -1.42476,-0.257405 -1.0269543,-0.962086 1.4919408,-1.483451 3.1684617,-2.76268 4.8656625,-3.999123 0.3510578,-0.239978 0.6991028,-0.484423 1.0531734,-0.719932 0.3775928,-0.251155 0.7522459,-0.507533 1.1416518,-0.739951 1.2144858,-0.72487 2.5081469,-1.275084 3.8376209,-1.745906 0.640534,-0.169193 1.459203,-0.49855 2.137142,-0.349594 0.210446,0.04624 0.441945,0.08471 0.606354,0.223976 0.244772,0.207341 0.381223,0.516027 0.571835,0.774041 0.0062,0.25546 0.0467,0.512382 0.01872,0.766381 -0.02863,0.259854 -0.262073,0.808327 -0.375671,1.045819 -0.296183,0.619211 -0.670943,1.182362 -1.056961,1.747581 -0.833141,1.148857 -1.737473,2.257897 -2.762061,3.243158 -0.186692,0.179525 -0.384323,0.347316 -0.576485,0.520974 -0.168476,0.139038 -0.332654,0.283455 -0.505428,0.417114 -0.04161,0.03219 -0.554611,0.417522 -0.668622,0.427159 -0.03781,0.0032 0.0071,-0.08188 -0.014797,-0.112869 -1.2404055,-1.755145 -1.6382995,-1.087317 -1.0032481,-1.87999 1.3706781,-1.318322 3.0299721,-2.27551 4.6888261,-3.179787 1.384315,-0.671665 2.814607,-1.336992 4.333649,-1.644776 0.189994,-0.0385 0.383564,-0.05655 0.575346,-0.08483 0.177635,-0.0016 0.356067,-0.02163 0.532905,-0.0048 0.848802,0.08101 1.467456,0.513996 1.540846,1.448001 0.04758,0.605477 -0.290679,1.08718 -0.554013,1.580237 -0.968553,1.412344 -2.313612,2.511914 -3.800178,3.34622 -0.359268,0.201632 -0.734194,0.373999 -1.101291,0.560999 -1.459131,0.670668 -3.018287,1.067922 -4.607481,1.269587 -0.8050958,0.102165 -1.0971159,0.103595 -1.8873309,0.14479 -0.6694684,0.01825 -1.339156,0.013 -2.0073219,-0.0339 C 6.4283403,64.343863 6.1497105,64.324521 5.8798223,64.259239 5.7626257,64.230892 5.6499355,64.186393 5.5349921,64.14997 5.2940132,63.942602 4.8868645,63.836858 4.8120555,63.527866 c -0.1072869,-0.443139 0.072794,-0.923894 0.2465872,-1.345414 0.076645,-0.185895 0.30082,-0.268399 0.4660416,-0.383 0.5671617,-0.393395 1.2403179,-0.625008 1.8768344,-0.872988 2.0940411,-0.766585 4.2616653,-1.312319 6.4122503,-1.894412 2.136836,-0.574718 4.264359,-1.18249 6.412318,-1.714762 0.841721,-0.184669 1.685242,-0.431274 2.553009,-0.439836 -0.547929,0.536894 0.08286,-0.116635 0.475531,2.001099 0.01115,0.06014 -0.107753,0.05792 -0.161614,0.08691 -0.329953,0.177601 -0.671231,0.298781 -1.023583,0.426864 -1.591448,0.514451 -3.244239,0.792234 -4.892391,1.051271 -2.164476,0.285367 -4.329003,0.572956 -6.495322,0.844785 C 9.562815,61.404858 8.4493946,61.654579 7.3200308,61.636094 6.5105976,61.501677 6.3846142,61.615711 5.996357,60.3794 5.929256,60.165734 6.2831667,59.56264 6.3908946,59.332802 c 0.132598,-0.282898 0.2468123,-0.574054 0.3694405,-0.861414 0.073535,-0.193538 0.162368,-0.381937 0.2206053,-0.580614 0.075241,-0.256684 0.11963,-0.521422 0.178887,-0.78226 0.069151,-0.304388 0.1390116,-0.608619 0.2063349,-0.913416 0.2030264,-0.919174 0.3839619,-1.842721 0.5781343,-2.763766 0.1323438,-0.600541 0.2616024,-1.202132 0.4065468,-1.799828 0.024443,-0.100794 0.045083,-0.202844 0.07781,-0.301261 0.010089,-0.03034 0.028707,-0.106209 0.049659,-0.08206 0.061433,0.07081 0.070245,0.173832 0.1053677,0.260748 0.5958768,0.06772 1.1917536,0.135438 1.7876309,0.203157 0.02781,0.0026 0.07661,-0.01941 0.08342,0.0077 0.01885,0.07487 -0.04661,0.705216 -0.04839,0.720929 -0.06181,0.545005 -0.09296,0.685006 -0.186114,1.248082 -0.2488621,1.466284 -0.6444869,2.897402 -1.1756559,4.285156 -0.2647917,0.602818 -0.790575,1.683364 -1.6324658,1.598597 C 6.3988461,59.470504 6.3483648,59.037511 6.022115,58.363409 5.5321242,56.685159 5.7139967,54.908912 5.8808211,53.19506 c 0.1890164,-1.753823 0.4711652,-3.494936 0.7707228,-5.232634 0.023746,-0.129104 0.1216413,-0.686782 0.1687655,-0.866756 0.017063,-0.06517 0.020646,-0.238945 0.067453,-0.1905 0.1031051,0.106714 0.00801,0.38464 0.1525512,0.418203 1.9778884,0.459283 1.6694737,-0.600325 1.859488,0.244071 -0.01721,1.731092 -0.2722657,3.448397 -0.5155488,5.158907 -0.2682625,1.728625 -0.622666,3.444707 -1.1069031,5.126008 C 7.0911278,58.335591 6.7353935,59.17961 6.1227319,59.253008 5.7032488,59.303264 5.2691716,59.12651 4.8990633,58.922766 4.6017551,58.759099 4.3663875,58.044854 4.2528557,57.764529 3.7247083,56.128341 3.5464722,54.41222 3.3311916,52.714511 3.112791,51.050189 2.9274613,49.382248 2.758186,47.712321 2.661032,46.974241 2.662058,46.222778 2.5398802,45.487809 c 0.033332,0.04333 0.08596,0.114092 0.123456,0.13093 0.2178664,0.09784 0.4346895,0.254014 0.6733386,0.24485 0.2467623,-0.0095 0.4557143,-0.190859 0.6787931,-0.29677 0.051887,-0.02463 0.099013,-0.129273 0.1443834,-0.09405 0.062287,0.04836 0.023798,0.155901 0.035697,0.233851 0.058731,1.412745 0.1461468,2.82367 0.2261277,4.235295 0.099207,1.633596 0.2248815,3.265701 0.3050534,4.900396 0.032988,0.974114 0.055269,1.949383 0.04471,2.924138 -0.0163,0.579419 -0.1465831,1.269908 -0.6983858,1.595719 C 3.8722212,59.480749 3.6455976,59.584145 3.4125375,59.59298 3.1518637,59.602862 2.9043153,59.475065 2.6502042,59.416107 2.4783384,59.268394 2.2852318,59.142288 2.1346068,58.972969 2.0015981,58.823453 1.9029402,58.645407 1.8079212,58.469288 1.3160982,57.557688 1.1823369,56.506801 1.0341443,55.498988 0.87345495,54.053297 0.86109997,52.59334 0.9811787,51.144047 c 0.073934,-0.892348 0.1393405,-1.246872 0.2672499,-2.119943 0.1206076,-0.799944 0.3093877,-1.5866 0.534798,-2.362763 0.1137706,-0.391751 0.2307833,-0.755426 0.4222432,-1.114466 0.6492236,-0.869745 0.3818557,-0.81002 2.1307436,0.177025 0.132846,0.07498 0.076556,0.295542 0.1052477,0.445363 0.1156667,0.603973 0.1381258,1.216326 0.1662476,1.828733 0.02221,1.704514 0.00134,3.40949 -0.013713,5.114053 -0.029517,1.693026 -0.015038,3.385758 -0.00927,5.078845 -0.011263,0.621664 -0.016687,1.243515 -0.018011,1.865283 -4.005e-4,0.188082 0.041574,0.563281 -0.025295,0.757692 -0.9244768,-1.035548 -0.03448,-0.365235 -1.9159225,-0.17932 -0.076172,0.0075 -0.053632,-0.145163 -0.061155,-0.221335 -0.073358,-0.742745 0.030393,-1.520811 0.084056,-2.259571 0.1810921,-2.333161 0.6684382,-4.625529 1.2470638,-6.888241 0.4099265,-1.322299 0.6931685,-2.691042 1.2132622,-3.977087 0.4813295,-0.922549 0.6886671,-0.988282 2.1826659,-0.440418 0.1901653,0.06973 0.1621292,0.372039 0.2232873,0.565133 0.0955,0.301525 0.1549488,0.776539 0.2014182,1.077524 0.1951166,1.693044 0.2128221,3.400464 0.2070557,5.102711 7.054e-4,1.251705 -0.010329,2.503057 -0.04373,3.754278 -0.00968,0.05339 0.012663,0.194888 -0.029039,0.160172 -0.1040965,-0.08666 -0.068035,-0.332885 -0.2020464,-0.352545 -0.5613782,-0.08235 -1.133359,0.05954 -1.7005757,0.07343 -0.043882,0.0011 -0.1168666,0.01368 -0.1285364,-0.02863 -0.051642,-0.18726 0.00292,-1.128857 0.0067,-1.22789 0.1101434,-1.643373 0.4719985,-3.26567 1.029887,-4.814303 0.111574,-0.309717 0.2395645,-0.613271 0.3593467,-0.919906 0.3212768,-0.727954 0.6635098,-1.45497 1.1510748,-2.089541 0.2063219,-0.26853 0.5756419,-0.681694 0.8988276,-0.820416 0.2696784,-0.115755 0.5692936,-0.142855 0.8539401,-0.214282 0.332598,0.153915 0.713851,0.230039 0.997795,0.461744 0.217162,0.17721 0.324457,0.460648 0.443512,0.714398 0.100504,0.21421 0.156135,0.447682 0.209836,0.678123 0.191696,0.822594 0.182546,1.654717 0.174397,2.492464 -0.07116,1.856248 -0.397863,3.68942 -0.777567,5.503778 -0.13791,0.580339 -0.270005,1.164657 -0.475974,1.725752 -0.02323,0.06329 -0.01872,0.209273 -0.08163,0.185045 -0.0777,-0.02992 0.0045,-0.19473 -0.06451,-0.241324 -0.429133,-0.289747 -0.9146205,-0.485698 -1.3719309,-0.728548 -0.058708,-0.005 -0.1802165,0.04375 -0.176124,-0.01503 0.00924,-0.13272 0.1287817,-0.233095 0.2011722,-0.344718 0.1043314,-0.160875 0.2138028,-0.318555 0.3285859,-0.472147 0.5249858,-0.702488 1.0269288,-1.168407 1.6796968,-1.747071 1.113857,-0.914031 2.404226,-1.74243 3.863755,-1.943685 0.21577,-0.02975 0.435062,-0.02212 0.652592,-0.03318 0.602395,0.136253 1.039237,0.128678 1.407247,0.798997 0.165845,0.302083 0.174868,0.677125 0.159836,1.02141 -0.02727,0.624529 -0.677637,1.488737 -1.019193,1.982011 -1.022743,1.341366 -2.292363,2.456105 -3.625458,3.47709 -0.2001,0.146975 -0.567266,0.424636 -0.796933,0.56824 -0.04886,0.03055 -0.15041,0.134513 -0.15475,0.07705 -0.0088,-0.117017 0.178303,-0.215228 0.136042,-0.324705 -0.459093,-1.189269 -0.376,-1.104802 -0.941191,-1.437037 0.994612,-0.806693 2.092663,-1.48248 3.175385,-2.163808 0.273127,-0.161024 0.544221,-0.325548 0.819383,-0.483071 0.318523,-0.182346 0.634412,-0.370057 0.961545,-0.536463 1.017402,-0.517532 2.089918,-0.881995 3.190237,-1.172225 0.717728,-0.17743 1.45799,-0.257076 2.186393,-0.110352 0.800483,0.269879 1.148294,0.72479 0.927039,1.644585 -0.06168,0.256404 -0.341079,0.472301 -0.527715,0.640162 -0.116686,-0.03436 -0.166118,0.204168 -0.281468,0.201474 -0.03016,-7.05e-4 0.04907,-0.04014 0.05903,-0.06862 0.0914,-0.261277 0.326785,-0.530384 0.242767,-0.794127 -0.501176,-1.573242 -0.949719,-0.474497 -0.744491,-0.949979 1.039701,-0.408843 2.135548,-0.665722 3.228435,-0.887791 1.036488,-0.181573 2.09349,-0.371204 3.149928,-0.300973 0.0592,0.0089 0.206842,-0.02551 0.17761,0.02674 -0.04497,0.08038 -0.232545,0.01974 -0.253763,0.109372 -0.839668,3.547117 -0.549368,1.106971 0.06793,1.895618 0.0218,0.02785 -0.07004,0.01 -0.104791,0.01652 -0.04223,0.0079 -0.08405,0.01786 -0.126069,0.02679 -0.638364,0.113336 -1.234948,0.373628 -1.815494,0.65289 -0.158968,0.07741 -0.319728,0.151243 -0.476903,0.232231 -0.922391,0.475283 -0.16948,0.121102 -1.116093,0.583373 -0.513845,0.250932 -1.038265,0.476761 -1.564044,0.701052 -0.133131,0.05297 -0.26521,0.108676 -0.399394,0.158924 -0.09332,0.03495 -0.187894,0.06658 -0.282922,0.09658 -0.05148,0.01625 -0.111102,0.0715 -0.156395,0.04212 -0.03369,-0.02185 0.07926,-0.0617 0.06718,-0.09999 -0.577084,-1.828926 -0.0486,-1.676977 -0.875257,-1.814559 0.820201,-0.553502 1.729318,-0.961308 2.62818,-1.368509 0.922183,-0.426059 1.851807,-0.832832 2.810324,-1.170212 0.07859,-0.02232 0.172382,-0.118515 0.235762,-0.06697 0.0519,0.04222 -0.141016,0.09101 -0.126027,0.156217 0.142744,0.620955 0.396615,1.211131 0.580578,1.821145 0.0084,0.02801 0.0166,0.06784 -0.0049,0.08764 -0.07364,0.06769 -0.171571,0.102859 -0.257669,0.153761 -0.124302,0.07349 -0.249019,0.146277 -0.373529,0.219416 -1.422415,0.824574 -2.8356,1.66449 -4.250093,2.502575 -1.238973,0.760728 -2.505442,1.48063 -3.89709,1.926522 -0.865923,0.277446 -1.039051,0.26682 -1.908657,0.390981 -0.916653,0.03869 -1.908435,-0.0078 -2.679203,-0.577131 -0.463695,-0.342495 -0.496322,-0.497296 -0.781565,-0.969714 -0.05772,-0.185085 -0.132384,-0.365715 -0.173166,-0.555253 -0.202244,-0.939954 0.06301,-1.917204 0.276723,-2.82927 0.243677,-1.025588 0.600951,-2.01556 0.997154,-2.990315 0.185828,-0.464992 -0.0012,-0.01494 0.161029,0.203667 0.144693,0.194976 0.331102,0.363712 0.537492,0.491598 0.378668,0.234636 0.39553,-0.08536 0.363193,0.152016 -0.586935,0.69515 -1.068398,1.471034 -1.553954,2.238042 -0.545387,0.739984 -0.982399,1.577177 -1.623519,2.244584 -0.09008,0.09378 -0.192095,0.175309 -0.288142,0.262964 -0.63125,0.352359 -0.866043,0.630224 -1.7579988,0.02187 C 9.0634942,59.32183 9.0041494,58.93865 8.9087941,58.629034 8.7248836,58.03188 9.0002589,57.024302 9.1398647,56.450017 9.5909816,55.047659 10.337641,53.753246 11.261012,52.6086 c 0.147252,-0.18254 0.306951,-0.354678 0.460426,-0.532016 0.141954,-0.140001 0.274381,-0.29037 0.425863,-0.420001 0.457071,-0.391139 1.217145,-0.828556 1.849094,-0.523091 0.834326,0.403288 0.767179,0.792867 0.889166,1.494391 -0.06701,1.255129 -0.558516,2.438094 -1.183904,3.514964 -0.149695,0.257762 -0.31667,0.505093 -0.475004,0.75764 -0.761823,1.070177 -1.639705,2.109005 -2.788031,2.781772 -0.163408,0.09573 -0.338665,0.169635 -0.5079972,0.254453 -0.6835315,0.232611 -1.4173075,0.3563 -1.9940968,-0.273755 -0.2187671,-0.23897 -0.3097375,-0.580983 -0.3675894,-0.89976 -0.088088,-0.485387 0.1558656,-0.994088 0.3099336,-1.427561 0.6268509,-1.255442 1.6251285,-2.25624 2.8571258,-2.924518 0.22265,-0.120773 0.458488,-0.215468 0.687732,-0.323202 0.838251,-0.302536 1.848859,-0.587677 2.640618,0.04299 0.563492,0.448847 0.519762,0.793817 0.629991,1.412666 -0.02188,0.202031 -0.02214,0.407589 -0.06563,0.606092 -0.225279,1.028187 -0.927642,1.744071 -1.675651,2.423436 -0.845123,0.735278 -1.824286,1.278036 -2.811871,1.793753 C 9.5905303,60.664391 8.9870504,60.858833 8.4609764,61.20029 8.1530609,61.421966 7.8871609,61.695191 7.6470447,61.987424 7.2418294,62.504803 6.826285,63.013528 6.3755398,63.4923 5.7623124,64.119968 5.1161619,64.654706 4.1272066,63.888694 3.8838982,63.700235 3.9979153,63.286908 3.9332696,62.986015 3.9813932,62.62559 4.0205004,62.269452 3.9557995,61.909853 3.8526218,61.458092 3.5962299,61.062377 3.3887442,60.652896 2.850654,59.632045 2.6564643,58.493159 2.51067,57.361724 2.4028244,56.300097 2.2956276,55.240642 2.1124592,54.188938 1.9954854,53.48786 1.8022583,52.802719 1.6505059,52.109375 1.5232455,51.527933 1.5167631,51.404531 1.4328037,50.815537 1.3146316,49.684244 1.1590062,48.558697 1.0024465,47.432279 0.86707716,46.481708 0.80311616,45.524289 0.71167827,44.569186 c -0.0640296,-0.727144 -0.095114,-1.456081 -0.0996204,-2.185864 0.0151407,-0.512601 0.00466,-1.081582 0.24479591,-1.553018 0.0577012,-0.113279 0.13924173,-0.21274 0.20886252,-0.31911 0.2012868,-0.133282 0.3653724,-0.362377 0.6038604,-0.399845 0.6981671,-0.109688 0.9906111,0.117921 1.3267207,0.606847 0.14622,0.2127 0.2374843,0.629774 0.3009629,0.881864 0.1657779,0.837371 0.2076091,1.692956 0.2477912,2.543688 0.088314,1.268461 0.185979,2.536289 0.3148926,3.801316 0.1584354,1.331588 0.3140712,2.663456 0.470415,3.995288 0.10925,0.996513 0.1492517,1.997888 0.1594169,2.999675 0.019228,0.792556 -0.030333,1.583839 -0.088405,2.373788 -0.046734,0.582524 -0.136373,1.160209 -0.2101784,1.739675 -0.00312,0.200613 -0.1007105,0.392077 -0.09258,0.593479 8.232e-4,0.02039 0.0067,-0.04037 0.00746,-0.06077 0.021306,0.06621 0.096338,0.180462 0.1587296,0.212271 0.012706,0.0065 -0.013783,-0.03549 -0.00151,-0.04276 0.018197,-0.01078 0.042098,0.0042 0.063147,0.0062 0.031659,2.21e-4 0.063598,-0.0035 0.094978,6.64e-4 0.5998555,0.08037 -0.1845105,0.0075 0.5126898,0.08267 0.4099605,0.04418 0.8235574,0.04938 1.2352589,0.06046 1.1316531,0.0303 2.2629973,-0.02301 3.3940246,-0.05588 1.0736295,-0.02399 2.1475215,-0.0084 3.2213155,-0.0083 0.941322,0.01646 1.881395,-0.01508 2.816887,-0.120918 0.898102,-0.08826 1.793119,-0.200323 2.693392,-0.265196 0.829477,-0.05485 1.656583,-0.136148 2.487907,-0.156548 0.665352,-0.01856 1.330929,-0.01177 1.995736,0.01957 0.07661,0.0044 0.153436,0.006 0.22984,0.01316 0.04992,0.0047 0.215633,0.02614 0.277802,0.05146 0.01493,0.0061 0.0368,0.0153 0.03676,0.03142 -0.0038,2.032759 0.606947,1.846899 -0.143799,2.032031 -0.30866,0.07643 -0.627873,0.100048 -0.938246,0.166548 -0.234913,0.05033 -0.464874,0.121502 -0.697299,0.182296 -1.020753,0.294179 -2.050485,0.533 -3.102064,0.683392 -0.596699,0.103597 -1.202365,0.126824 -1.803551,0.186542 -0.22116,0.02197 -0.44085,0.0571 -0.661823,0.08087 -0.519494,0.05589 -0.75329,0.06713 -1.272031,0.102974 -0.957002,0.05384 -1.913364,0.113627 -2.871049,0.154771 -0.713456,0.04634 -1.425851,0.0023 -2.1377471,-0.04132 -0.4586808,-0.0282 -0.9136746,0.02175 -1.3647538,0.09972 -0.3988608,0.07723 -0.802306,0.140389 -1.1992962,0.227091 -0.3801322,0.05136 -0.7444563,0.162522 -1.1151741,0.25463 C 5.719519,63.654147 5.402841,63.688296 5.098805,63.766923 4.7957258,63.850153 4.4846803,63.890787 4.1720015,63.91391 3.9010929,63.92978 3.6296064,63.92942 3.3583407,63.92959 2.8357034,63.947081 2.3552434,63.712017 2.0638748,63.272325 2.0048197,63.183207 1.9712146,63.079628 1.9248844,62.98328 1.8246767,62.717249 1.8251505,62.425515 1.7286421,62.159165 1.6437253,61.819431 1.5466972,61.484555 1.487979,61.138701 1.3976024,60.740763 1.3203743,60.33934 1.2494556,59.937408 1.2136207,59.506541 1.1313564,59.083697 1.0478223,58.660352 0.93677735,58.101591 0.89635937,57.533367 0.89355261,56.964674 c 0.0224479,-0.40069 -0.0261448,-0.796977 -0.056288,-1.195529 -0.0365615,-0.363091 -0.0337549,-0.728448 -0.0310811,-1.092886 0.0420123,-0.59895 0.28308089,-1.334848 1.15375849,-1.308784 0.8141549,0.02437 0.8851398,0.52285 1.0122478,0.999206 0.089441,0.493573 0.1036404,0.996924 0.1229223,1.497039 -0.00728,0.752108 -0.045893,1.503317 -0.069384,2.254985 -0.00383,0.660161 -0.046788,1.319605 -0.05172,1.979639 0.011979,0.42084 0.039949,0.840978 0.047722,1.261898 0.03736,0.352469 0.00101,0.709889 0.027522,1.061969 -0.0048,0.0093 -0.00912,0.03703 -0.014405,0.02797 -0.4787319,-0.820827 1.1358087,-0.196504 -2.04658521,0.261317 -0.0600418,0.0086 -0.0393876,-0.114888 -0.0543615,-0.173671 C 0.88170163,62.332916 0.85712858,62.156805 0.82157137,61.94615 0.67981038,61.008321 0.66525361,60.057894 0.6532339,59.111392 c 0.005223,-0.95809 0.007732,-1.916155 0.0205272,-2.874178 0.009958,-0.795385 0.0289056,-1.590636 0.0399168,-2.385973 0.0158321,-0.630218 -0.0333623,-1.25856 -0.10566004,-1.883863 -0.0777722,-0.689589 -0.10539703,-1.382049 -0.121731,-2.075227 -0.005515,-0.56655 0.009929,-1.132997 0.0344534,-1.698944 0.0218192,-0.361489 0.005535,-0.718174 -0.0285028,-1.077483 -0.0353236,-0.362666 -0.0580047,-0.72315 -0.0159346,-1.085186 0.15948855,-0.525088 0.18186323,-0.788052 1.10972114,-0.948005 0.2871152,-0.0495 0.543206,0.221727 0.7851763,0.384008 0.1880776,0.126138 0.4050525,0.615666 0.507528,0.82147 0.3723408,0.79441 0.6182836,1.637797 0.8550488,2.479973 0.2552522,1.041848 0.52925,2.079244 0.8902148,3.089928 0.3440619,0.972993 0.7956851,1.901974 1.2245358,2.839165 0.4688959,1.030302 0.6462977,2.139807 0.7247749,3.258893 0.043403,0.726466 0.011223,1.45424 -0.033787,2.179684 -0.025283,0.336073 -0.047539,0.672285 -0.057829,1.009169 -0.012842,0.250427 0.00226,0.528659 -0.090675,0.766723 -0.00931,0.02386 0.00698,-0.05075 0.010466,-0.07613 -0.026529,-0.289702 0.00112,-0.270397 -0.1622661,-0.564899 -0.1040123,-0.187483 -0.08212,-0.06177 -0.1860952,-0.193606 -0.019785,-0.02509 0.060914,-0.02289 0.092851,-0.02378 0.436322,0.01561 0.8723117,-0.0074 1.3085325,-0.01228 0.6285933,-0.01977 1.255447,-0.01693 1.8822588,0.03484 0.5045139,0.05187 1.0107314,0.07911 1.5175414,0.09326 0.485943,0.01052 0.972035,0.01001 1.458066,0.01012 0.527137,-0.01494 1.054596,-0.0085 1.581859,-0.0057 0.399956,-0.02299 0.803234,-0.03405 1.200115,-0.09174 0.492461,-0.05803 0.98174,-0.136706 1.474216,-0.194299 0.565537,-0.03833 1.126102,-0.121644 1.691094,-0.166592 0.583844,-0.04747 1.169824,-0.08586 1.746123,-0.193776 0.63529,-0.09732 1.260437,-0.240443 1.881082,-0.405592 0.715016,-0.214404 1.423725,-0.454861 2.128562,-0.701876 0.474769,-0.192316 0.950138,-0.386653 1.408798,-0.615339 0.405333,-0.221443 0.829001,-0.405729 1.260059,-0.570372 0.457118,-0.186581 0.926675,-0.325346 1.411587,-0.415784 0.394594,-0.03788 0.784144,-0.134887 1.181991,-0.132671 0.0018,0.0085 0.0036,0.01703 0.0054,0.02555 -0.174184,0.104309 -0.527939,0.10997 -0.522554,0.312927 0.01571,0.592014 0.405446,1.113595 0.575462,1.680888 0.0066,0.02199 -0.04157,0.02191 -0.06439,0.02441 -0.109111,0.01196 -0.403858,0.01262 -0.513995,0.01386 -0.780322,-0.0052 -1.558539,0.03269 -2.336296,0.09314 -0.80352,0.074 -1.599002,0.235955 -2.406405,0.269587 -0.517824,0.02157 -0.941459,-0.01007 -1.455409,-0.03517 -1.001645,-0.07186 -1.991101,-0.264382 -2.958376,-0.529693 -0.499549,-0.13376 -0.970347,-0.334603 -1.406568,-0.610247 -0.743603,-0.613434 -0.759847,-1.232267 -0.588208,-2.119676 0.238675,-1.065966 0.755104,-2.025192 1.305365,-2.957305 0.49505,-0.826709 1.082979,-1.584066 1.743751,-2.283364 0.293004,-0.328184 0.665714,-0.566049 1.043292,-0.784802 0.34624,-0.274749 0.702142,-0.54002 1.08016,-0.770526 0.432215,-0.253451 0.946434,-0.557375 1.474952,-0.453405 0.184886,0.03637 0.352837,0.132396 0.529256,0.198594 0.12106,0.125832 0.261051,0.235865 0.36318,0.377494 0.359325,0.4983 0.192226,1.139874 -0.03865,1.641827 -0.205442,0.444681 -0.513458,0.818447 -0.863072,1.155868 -0.862703,0.690407 -1.230252,0.674079 -2.051318,-0.685737 -0.08754,-0.144986 0.113841,-0.31903 0.170762,-0.478546 0.08687,-0.142951 0.168105,-0.267495 0.276389,-0.394781 0.0066,-0.0078 0.02751,-0.0293 0.02338,-0.01993 -0.171712,0.389572 -0.02874,-0.197317 -0.150942,0.633136 0.353965,0.735985 0.08842,0.472645 0.756387,0.828645 -3.126948,-0.445778 -2.840392,-2.455856 0.286557,-2.010079 l 0,0 c 0.829415,0.374755 0.501058,0.07938 0.957281,0.916059 -0.01957,0.194206 -0.01585,0.392193 -0.05872,0.582618 -0.04125,0.183263 -0.220548,0.433531 -0.361907,0.571873 -0.005,0.0049 -0.0077,-0.01165 -0.01148,-0.01748 0.215783,-0.800635 0.273507,-0.588542 -1.058352,-1.448748 -0.10181,-0.06576 -0.230441,0.07523 -0.345,0.114795 -0.01779,0.0061 -0.06103,0.03873 -0.05189,0.02228 0.02329,-0.04194 0.09448,-0.09712 0.137724,-0.132416 0.18083,-0.180247 0.326125,-0.389446 0.465759,-0.602639 0.0096,-0.0096 0.01549,-0.02572 0.02869,-0.02892 0.02044,-0.005 0.01411,0.04793 0.03088,0.121533 0.06403,0.281018 0.171668,0.414262 0.418927,0.589937 0.131935,0.03865 0.259755,0.09618 0.395805,0.11596 0.08146,0.01184 0.164134,-0.0133 0.24592,-0.02266 0.02001,-0.0023 0.06343,-0.03196 0.05916,-0.01227 -0.01121,0.05176 -0.461705,0.265824 -0.445316,0.305237 -0.435311,0.289479 -0.878452,0.566813 -1.360335,0.773501 -0.147676,0.03957 -0.03221,-0.01955 -0.01851,-0.02119 0.150976,-0.01814 -0.284445,0.36519 -0.180373,0.32579 -0.276348,0.437786 -0.556277,0.872283 -0.849885,1.298841 -0.09389,0.136406 -0.195621,0.26747 -0.285612,0.40648 -0.08779,0.135611 -0.164894,0.277848 -0.247341,0.416772 -0.435711,0.757943 -0.875783,1.515959 -1.2843,2.287774 -0.02193,0.05102 -0.03217,0.108869 -0.0658,0.153067 -0.02276,0.02991 -0.06703,-0.03836 -0.08965,-0.06837 -0.08083,-0.107217 -0.161471,-0.219398 -0.280904,-0.287227 0.205885,0.06737 0.533163,0.140152 0.785179,0.170348 0.840572,0.125738 1.688654,0.192325 2.539022,0.1945 1.218402,7.6e-4 2.438801,0.05628 3.652249,-0.08581 0.889649,-0.04076 1.78287,-0.03659 2.663945,0.11147 0.900888,0.162025 -0.160726,-0.04097 0.38955,0.09013 0.06014,0.01433 0.154459,-0.02354 0.182788,0.03141 0.770113,1.493851 1.216949,1.584507 0.04434,2.073857 -0.35753,0.09969 -0.730509,0.140078 -1.095727,0.202235 -0.352911,0.05127 -0.697643,0.14335 -1.025292,0.286153 -0.358995,0.129587 -0.697297,0.310289 -1.027359,0.500546 -0.51014,0.263408 -1.019795,0.527421 -1.532065,0.786219 -0.786406,0.358366 -1.604745,0.628439 -2.450087,0.811602 -0.682272,0.152547 -1.369622,0.283534 -2.057887,0.406061 -0.642099,0.09407 -1.289585,0.154982 -1.937598,0.188118 -0.538946,0.04078 -1.076901,0.09141 -1.615331,0.138464 -0.487145,0.05328 -0.97492,0.09881 -1.461907,0.153161 -0.485975,0.05187 -0.97294,0.09511 -1.459591,0.140499 -0.527681,0.0031 -1.055556,0.01024 -1.583123,-0.0044 -0.502956,-1.21e-4 -1.005941,1.09e-4 -1.508852,-0.0076 -0.540523,-0.01047 -1.080781,-0.02987 -1.620275,-0.06586 -0.577753,-0.03134 -1.1555686,-0.02054 -1.7339395,-0.03127 -0.5385857,-0.0086 -1.079534,-0.02862 -1.6137846,-0.09992 -0.6531023,-0.132642 -1.1642204,-0.341421 -1.420779,-1.020403 -0.04637,-0.122719 -0.041674,-0.259045 -0.062512,-0.388567 0.022381,-0.31726 0.058396,-0.352287 0.041462,-0.615251 -0.0067,-0.335815 -0.021624,-0.67133 -0.04364,-1.006504 C 4.3118004,59.470727 4.2736487,58.813619 4.2206106,58.157491 4.1325023,57.316284 4.0161659,56.473369 3.6522282,55.699242 3.1987671,54.702609 2.7025282,53.724337 2.3216882,52.696286 1.9198694,51.609093 1.6340981,50.487998 1.4018993,49.352839 1.2377307,48.601551 1.0734896,47.848557 0.84397223,47.113956 c -0.0123382,-0.04333 -0.0943553,-0.312004 -0.0818459,-0.330147 0.0167494,-0.02429 0.052274,0.02763 0.0796755,0.03857 0.22568277,0.09015 0.44440647,0.326788 0.67934647,0.264632 0.3842229,-0.101651 0.6597404,-0.445716 0.9653858,-0.699765 0.036357,-0.03022 0.026768,-0.09068 0.040152,-0.136027 0.0027,-0.0183 0.00363,-0.07286 0.00811,-0.05491 0.050711,0.203034 0.00886,0.471129 0.072983,0.677179 0.058225,0.43855 0.091149,0.877847 0.081046,1.320589 0.023608,0.54928 0.039468,1.098822 0.05367,1.648438 0.012761,0.628203 0.030796,1.2581 0.1066343,1.882354 0.071432,0.706805 0.1471067,1.415555 0.1435326,2.126832 0.010687,0.795495 0.029032,1.59091 0.038134,2.38646 0.011959,0.951574 0.012591,1.903245 0.02849,2.854773 0.00224,0.882152 4.352e-4,1.764313 -0.022002,2.64623 -3.562e-4,0.184171 0.014998,0.657219 0.00561,0.661582 -1.677227,0.779328 -1.8126145,1.29174 -2.10731548,0.207219 -0.0349503,-0.38025 -0.0297537,-0.759647 -0.0322191,-1.141109 -0.0370489,-0.421209 -0.0936422,-0.839228 -0.14224286,-1.25917 -0.0620853,-0.717744 -0.0508969,-1.439504 -0.0347245,-2.159232 0.0217532,-0.727775 0.0589051,-1.454539 0.13306271,-2.179072 0.0141075,-0.412538 0.0153121,-0.83063 0.0759312,-1.238928 0.18410043,0.360625 0.35664593,0.738602 0.95831033,0.728257 1.5001383,-0.0258 0.7756107,-0.350522 1.0076297,-0.742636 0.0045,-0.0076 0.020428,0.03773 0.00186,0.02643 0.013115,0.307572 0.037374,0.614328 0.061055,0.921236 0.052845,0.441829 0.1082447,0.883786 0.1126451,1.329506 0.029258,0.456451 0.036793,0.916166 0.1091319,1.368484 0.077209,0.440259 0.1394485,0.881828 0.1927292,1.325434 0.05957,0.400982 0.1433244,0.797667 0.2026287,1.198762 0.049255,0.295844 0.1197029,0.586631 0.1845392,0.879491 0.027491,0.141709 0.054965,0.283645 0.080084,0.425809 0.010945,0.06194 0.023121,0.123732 0.0311,0.186127 7.502e-4,0.0059 -5.823e-4,0.02077 -0.00513,0.01699 -0.012039,-0.01003 -0.01561,-0.02717 -0.023414,-0.04076 -0.1116876,-0.172663 -0.2326277,-0.290153 -0.4284669,-0.369283 -0.048478,-0.01959 -0.1015858,-0.02501 -0.1529389,-0.03485 -0.01031,-0.002 -0.041986,-4.34e-4 -0.031489,-4.69e-4 0.040619,-1.39e-4 0.081238,1.07e-4 0.1218568,1.6e-4 0.2217081,-3e-5 0.4435914,9.48e-4 0.665081,-0.01033 0.1936433,-0.01328 0.3846337,-0.04112 0.5703541,-0.100312 0.2954549,-0.07269 0.5879961,-0.148462 0.8726146,-0.258856 0.4073987,-0.118193 0.8125725,-0.242338 1.2362845,-0.286835 0.4074305,-0.07964 0.8108929,-0.171501 1.2138136,-0.271775 0.6326229,-0.134161 1.271385,-0.227904 1.9208796,-0.19248 0.6173435,0.04019 1.2312585,0.04415 1.8479365,-0.01977 0.935004,-0.08334 1.858318,-0.255926 2.791382,-0.357515 0.421418,-0.0479 0.891655,-0.107058 1.314196,-0.130858 0.218921,-0.01233 0.43861,-0.0053 0.657598,-0.01639 0.562482,-0.0284 1.123046,-0.1008 1.683627,-0.151471 0.42169,-0.04629 0.569867,-0.05553 0.98441,-0.12829 0.652579,-0.114541 1.287906,-0.308943 1.94041,-0.424512 0.69518,-0.119927 1.415577,-0.231692 2.11872,-0.113522 0.741358,0.194038 0.120838,-0.0011 0.133733,2.031137 8.5e-5,0.01331 -0.01306,0.02552 -0.02521,0.03097 -0.05498,0.02467 -0.231646,0.04738 -0.271049,0.05124 -0.07476,0.0073 -0.149954,0.0093 -0.224931,0.01397 -0.632956,0.03576 -1.266519,0.05411 -1.899567,0.08809 -0.798379,0.05437 -1.596646,0.106169 -2.394352,0.169109 -0.879995,0.08889 -1.755059,0.21848 -2.632637,0.327977 -1.017496,0.107398 -2.038736,0.146583 -3.06194,0.134552 -1.05452,0.0127 -2.107924,0.05272 -3.1617029,0.09309 C 8.4287924,62.363254 7.2174964,62.425786 6.010958,62.31053 5.0384934,62.214108 4.0515746,62.093354 3.1847904,61.606421 3.0760667,61.528177 2.9603075,61.458881 2.8586193,61.371689 2.5018992,61.065821 2.2668582,60.665968 2.1155655,60.225501 2.088496,60.124964 2.054117,60.026116 2.034357,59.923891 1.969486,59.588292 2.010116,59.249073 2.0351496,58.912325 c 0.00643,-0.574392 0.040911,-1.147884 0.092655,-1.719959 0.024567,-0.728205 0.088301,-1.456161 0.036131,-2.184968 C 2.1189285,54.097081 2.0445259,53.187738 1.8710237,52.29153 1.6402763,50.926023 1.409951,49.559126 1.2893051,48.178359 1.1823145,46.84645 1.1175695,45.510949 1.1393855,44.174271 c 0.016957,-0.72785 0.052327,-1.457301 0.011832,-2.184877 -0.00392,-0.06015 -0.00732,-0.120334 -0.011769,-0.180446 -0.00357,-0.04823 -0.035154,-0.10196 -0.012275,-0.14457 0.013002,-0.02421 0.038395,0.03941 0.058939,0.05766 0.096342,0.08562 0.1682583,0.216597 0.2916332,0.253898 0.8042743,0.243161 0.7310603,0.130639 1.2738533,-0.281599 0.03189,-0.05261 0.063948,-0.105112 0.09567,-0.15782 0.00261,-0.0043 0.00712,-0.01838 0.00733,-0.01332 0.010995,0.269605 -0.030711,0.542538 0.00336,0.812147 0.024765,0.655363 0.04832,1.312807 0.1550416,1.961194 0.1315111,0.926464 0.2766408,1.851004 0.3967229,2.779109 0.1778537,1.128282 0.3402765,2.258407 0.4951264,3.3901 0.1552809,1.106722 0.3353855,2.206905 0.5827733,3.297361 0.2004449,1.08995 0.3439493,2.187116 0.4699829,3.287994 0.066147,0.530345 0.1446249,1.055311 0.2304962,1.582684 0.041693,0.256053 0.055032,0.517746 0.119365,0.769068 0.024835,0.09702 0.069937,0.18769 0.1049055,0.281535 0.2817325,0.629804 0.6314701,1.238258 0.7272192,1.933245 0.067326,0.585172 0.08793,1.207802 -0.1746348,1.753176 C 5.8868802,63.140832 5.9388722,62.806021 5.730726,62.680878 5.3493162,62.451565 4.8552081,62.520566 4.4174492,62.44041 4.3732412,62.46296 4.3311852,62.52578 4.284825,62.50806 4.249967,62.49474 4.320117,62.44217 4.340857,62.41115 4.4887863,62.18989 4.5063776,62.183094 4.6914346,61.965049 5.1149409,61.479573 5.5708609,61.025765 6.0093395,60.554181 6.3783467,60.154164 6.74915,59.755638 7.18001,59.419887 7.7466242,58.98857 8.375932,58.665141 8.9903251,58.308316 c 0.4053797,-0.24457 0.7987659,-0.506 1.1996359,-0.757811 0.15436,-0.09696 0.684281,-0.418028 0.835992,-0.523194 0.125735,-0.08716 0.243708,-0.185014 0.365562,-0.27752 0.412928,-0.324948 0.801736,-0.652374 1.070759,-1.111211 0.37575,0.367064 0.282013,0.282797 0.776979,0.383835 0.0083,0.0017 -0.01567,0.0062 -0.02342,0.0095 -0.374134,0.159575 -0.183404,0.07336 -0.641602,0.306717 -0.497496,0.283705 -1.019558,0.56494 -1.469739,0.922185 -0.399804,0.317268 -0.743525,0.708277 -1.068215,1.099123 C 9.617632,58.841288 9.9001515,58.43854 9.4340547,58.142776 9.2552448,58.029293 9.0302939,58.014813 8.828412,57.95084 8.771933,57.96148 8.7115908,58.00588 8.658976,57.98276 8.62405,57.96741 8.721789,57.93945 8.753195,57.91779 c 0.8848458,-0.674868 1.574105,-1.558381 2.208053,-2.465149 0.356235,-0.545644 0.497318,-0.763596 0.852782,-1.30094 0.115683,-0.174875 0.243604,-0.342115 0.348456,-0.52369 0.185299,-0.32089 0.286492,-0.68515 0.488934,-0.99679 0.204451,0.147945 0.687274,0.498812 0.742478,0.514701 0.203026,0.05843 0.42069,-0.0402 0.630256,-0.06697 0.02706,-0.0035 0.08671,-0.04951 0.07838,-0.02353 -0.02336,0.07285 -0.08718,0.125745 -0.131225,0.188301 -0.08743,0.124177 -0.175461,0.247929 -0.263192,0.371894 -0.785283,1.16608 -1.525648,2.369131 -2.132478,3.638657 -0.08042,0.172018 -0.16083,0.344037 -0.241244,0.516055 -0.05068,0.12339 -0.09635,0.248961 -0.152049,0.37017 -0.02889,0.06288 -0.03716,0.20717 -0.101311,0.18121 -0.155989,-0.06312 -0.189812,-0.312203 -0.349974,-0.363834 -0.8689423,-0.280118 -0.8355726,-0.231347 -1.2963891,0.06856 0.4139727,-0.856924 0.9215261,-1.670902 1.4545101,-2.457556 0.714322,-1.025574 1.449835,-2.085599 2.537551,-2.747674 0.393785,-0.174103 0.801219,-0.421452 1.270981,-0.271651 1.027829,0.327762 1.137223,1.129143 0.988337,2.014872 -0.220332,0.996145 -0.515604,1.973206 -0.83306,2.942421 -0.172106,0.571651 -0.34901,1.142789 -0.476424,1.725905 -0.0093,0.0099 -0.01574,0.02379 -0.02796,0.02981 -0.01366,0.0067 -0.03938,-0.0078 -0.04525,0.0062 -0.01302,0.0312 0.114113,0.05618 0.224247,0.05894 0.318103,0.008 0.481004,-0.04469 0.811852,-0.106291 1.751451,-0.48679 3.358094,-1.224431 4.918632,-2.156399 1.526213,-0.856909 3.062554,-1.712327 4.719401,-2.295124 0.425969,-0.132059 0.616776,-0.214535 1.044236,-0.268094 0.153069,-0.01918 0.374538,-0.153812 0.462023,-0.02675 0.922429,1.339701 1.210886,1.633384 0.299519,2.214115 -0.889884,0.502236 -1.787246,0.996054 -2.728109,1.397539 -0.929524,0.397365 -1.868023,0.796205 -2.853277,1.034352 -1.077112,0.177407 -0.722712,0.291496 -1.262533,-1.691232 -0.026,-0.0955 0.12988,-0.149814 0.20174,-0.217878 0.246456,-0.233436 0.549882,-0.400992 0.835245,-0.579159 1.05856,-0.621933 2.157067,-1.16931 3.311426,-1.591787 0.885237,-0.331969 1.790358,-0.633711 2.749051,-0.610484 0.179827,0.01402 1.074511,0.09137 1.115891,0.297669 0.327897,1.634712 0.269752,1.672599 -0.64616,2.008561 -0.943002,0.273108 -1.930952,0.368641 -2.883946,0.601932 -1.165323,0.225615 -2.328398,0.505622 -3.519461,0.54818 -0.664573,-0.03989 -1.038932,0.02915 -1.459825,-0.928678 -0.226727,-0.515965 0.32715,-1.095479 0.718758,-1.323603 0.07451,0.121348 -0.06826,-0.127611 -0.102381,0.277896 -0.04328,0.51435 0.0015,1.039359 0.574928,1.195087 -0.225219,-0.01746 -0.734985,0.332224 -0.951601,0.38787 -0.922885,0.448209 -1.828322,0.934161 -2.756103,1.371777 -0.290795,0.137163 -0.59225,0.25142 -0.880371,0.394116 -0.27047,0.133954 -0.529365,0.290109 -0.794047,0.435164 -0.725976,0.402704 -1.450691,0.808333 -2.190958,1.184511 -0.298663,0.15177 -0.849109,0.423501 -1.170976,0.549649 -0.175286,0.0687 -0.356803,0.120294 -0.535204,0.180442 -1.052065,0.10545 -1.003688,0.294679 -1.6926199,-1.293911 -0.074695,-0.172237 0.1192305,-0.357107 0.2008049,-0.526193 0.205232,-0.425405 0.594991,-0.736742 0.902212,-1.080367 1.081475,-1.082747 2.236263,-2.086789 3.330404,-3.156422 0.135376,-0.137018 0.270941,-0.27385 0.40613,-0.411054 0.08962,-0.09096 0.164185,-0.199516 0.268309,-0.27344 0.03545,-0.02517 0.102971,-0.04339 0.130099,-0.0094 0.109567,0.137239 0.114453,0.345082 0.237736,0.470146 0.269382,0.273273 0.390479,0.285391 0.652084,0.339426 -0.64565,0.212847 -1.238757,0.57684 -1.839374,0.888407 -0.213334,0.110666 -0.439676,0.198085 -0.642837,0.326476 -0.209276,0.132255 -0.392804,0.301424 -0.589206,0.452136 -0.320357,0.260029 -0.752302,0.603456 -1.062173,0.881985 -0.580243,0.521556 -1.088751,1.127541 -1.760007,1.540834 -0.5249484,-0.209152 -1.1023182,-0.317562 -1.5748451,-0.627455 -0.1402823,-0.092 -0.098012,-0.321916 -0.1251856,-0.48746 -0.1149116,-0.700037 0.1323745,-1.41204 0.1495486,-2.108124 0.2060939,-1.744311 0.5195277,-3.473075 0.7323623,-5.2164 0.078943,-0.749036 0.08115,-0.669064 0.1180829,-1.386224 0.00858,-0.166592 0.011998,-0.333412 0.018774,-0.500087 0.00421,-0.103468 -0.042779,-0.22385 0.01417,-0.310338 0.1523335,-0.231344 1.0041319,1.088403 0.8179299,0.146697 0.139156,-0.06274 0.274567,-0.134557 0.417468,-0.188224 0.0098,-0.0037 0.0045,0.02207 -1.6e-4,0.0315 -0.04913,0.100391 -0.10982,0.194814 -0.159573,0.294897 -0.285801,0.574911 -0.5112397,1.177205 -0.7077351,1.787849 -0.586586,1.680084 -1.0575787,3.394951 -1.4369151,5.133844 -0.091231,0.360084 -0.1997729,0.819008 -0.317325,1.179455 -0.066452,0.20376 -0.020873,0.518439 -0.2167983,0.605311 C 6.2629837,58.8083 6.0176097,58.700906 5.5995635,57.617052 5.2966408,56.299205 5.2045597,54.947224 5.1764144,53.597753 c -0.011125,-1.663527 0.00793,-3.32795 0.1055384,-4.989068 0.012597,-0.168441 0.021651,-0.337185 0.037792,-0.505323 0.01,-0.10415 -0.02154,-0.227069 0.040594,-0.311251 0.030482,-0.0413 0.085118,0.06957 0.1364129,0.07144 0.5615007,0.02044 1.1271141,0.0564 1.6856104,-0.0051 0.1920063,-0.02114 0.1483541,-0.451168 0.1533737,-0.0089 -0.1230687,1.359455 -0.3770612,2.703958 -0.6205724,4.045705 -0.4230773,2.224235 -0.8721074,4.443371 -1.3337842,6.659884 -0.1702033,0.75823 -0.318527,1.53425 -0.5605985,2.274413 -0.057891,0.177009 -0.045648,0.415732 -0.1983794,0.522301 C 4.1598241,61.67462 3.6423365,62.022134 3.0787501,62.045063 2.7956707,62.056624 2.6815661,61.640995 2.4829754,61.438938 2.4334685,61.333553 2.3740164,61.232291 2.3344547,61.122784 2.0191363,60.249981 2.0493255,59.171561 1.9503079,58.259453 1.8667069,56.535297 1.8286437,54.810367 1.8619798,53.084051 c 0.01994,-1.711899 0.057113,-3.424808 0.1826927,-5.132717 0.01967,-0.221496 0.03989,-0.442944 0.05901,-0.664488 0.017017,-0.197179 0.054925,-0.774295 0.1044022,-1.002643 0.013169,-0.06078 0.011643,-0.177888 0.073502,-0.171479 2.0190797,0.209174 1.3694998,0.890484 2.0040549,-0.0081 0.053878,0.333523 3.837e-4,0.681564 -0.028,1.015285 -0.06346,0.746128 -0.1447382,1.490483 -0.213682,2.236104 -0.1749549,1.959603 -0.3559184,3.922765 -0.3431576,5.892243 0.020889,0.634034 0.042388,1.26413 0.1073004,1.895362 0.011149,0.108418 0.032884,0.215931 0.037349,0.324829 0.0017,0.04137 0.020869,0.111576 -0.018998,0.122745 -0.068026,0.01906 -0.1354078,-0.04035 -0.2031117,-0.06052 -0.4357048,-0.01788 -0.4740959,-0.09516 -0.8362561,0.179112 -0.072343,0.05479 -0.1222342,0.13631 -0.1658816,0.215872 -0.030661,0.05589 -0.035575,0.122434 -0.053303,0.183668 -0.00156,0.0054 -0.00361,0.02177 -0.00457,0.01624 C 2.552847,58.064984 2.547156,58.00367 2.539068,57.942723 2.3741858,56.984645 2.2484056,56.021487 2.1638877,55.052737 1.9704692,53.391312 1.7471558,51.73054 1.6862333,50.057307 1.6425822,48.503684 1.6209256,46.93828 1.9225766,45.405459 c 0.073641,-0.280227 0.192011,-0.865386 0.4079422,-1.0745 0.2352022,-0.227776 0.5146096,-0.45911 0.8375301,-0.513189 0.6507069,-0.108973 1.0515249,0.350911 1.3517728,0.79767 0.055386,0.109362 0.1166163,0.215955 0.1661582,0.328085 0.3345781,0.757265 0.4413298,1.59767 0.6204447,2.398165 0.3132465,1.666873 0.5484568,3.34847 0.7744641,5.029055 0.1140411,0.925338 0.2292991,1.850611 0.308297,2.779799 0.1695961,1.994821 -0.022372,-0.207949 0.077456,1.514445 0.00918,0.158431 0.033213,0.315652 0.04982,0.473478 -0.00114,0.08733 0.040929,0.186748 -0.00342,0.261987 -0.024491,0.04155 -0.096193,-0.0072 -0.1442349,-0.01149 -0.3234471,-0.02869 -0.6563232,-0.170491 -0.9702251,-0.08738 -0.4921935,0.130313 -0.5704162,0.93009 -0.529912,0.109198 0.018441,-0.247498 0.077745,-1.056384 0.097011,-1.251027 0.1285282,-1.298504 0.349263,-2.586022 0.5500619,-3.87455 0.2933475,-1.775557 0.6043342,-3.565415 1.1919506,-5.270884 0.4218655,-0.895952 0.2947972,-0.957237 2.1291374,-0.664414 0.1981991,0.03164 0.1616689,0.367862 0.2279318,0.557317 0.1446835,0.41367 0.094787,0.872784 0.1096629,1.300017 -0.046789,1.780843 -0.2280311,3.553797 -0.5004449,5.314273 -0.1945939,1.40804 -0.378852,2.819059 -0.4778646,4.237508 -0.3406148,-0.01687 -0.648397,-0.282411 -0.9888479,-0.262503 -0.2296377,0.01343 -0.4017818,0.224193 -0.6000668,0.340799 -0.022048,0.01297 -0.059351,0.07308 -0.060252,0.04751 -0.00272,-0.07708 0.036717,-0.149839 0.053993,-0.225012 0.030272,-0.131729 0.059098,-0.263786 0.088647,-0.395679 0.3013228,-1.390458 0.645676,-2.770747 1.0576371,-4.132997 0.1303851,-0.449118 0.2090328,-0.72529 0.3422465,-1.165128 0.088743,-0.293007 0.1700962,-0.5826 0.2950533,-0.862785 0.062451,-0.140031 0.056802,-0.384289 0.207903,-0.410309 0.615966,-0.106069 1.2495878,0.03449 1.874382,0.05174 0.05167,0.127701 0.112748,0.251989 0.155025,0.383101 0.0675,0.209341 0.101164,0.500878 0.113544,0.714585 0.03939,0.679876 -0.01746,1.359844 -0.07907,2.03645 -0.09313,0.761888 -0.136367,1.232438 -0.293017,1.998298 -0.272821,1.333815 -0.7202149,2.612063 -1.4377301,3.774858 -0.2228948,0.340396 -0.4057548,0.644549 -0.6660846,0.954907 -0.0572,0.06819 -0.1147855,0.228648 -0.1924239,0.185124 -0.087097,-0.04883 0.042377,-0.215142 -0.011304,-0.299333 C 7.4045941,59.471394 7.6217758,59.5704 6.9454838,59.493367 c 0.3290412,-0.158308 0.668208,-0.26932 1.0172042,-0.377216 0.7421211,-0.229437 1.4935026,-0.426279 2.253065,-0.589607 2.181211,-0.460029 4.386382,-0.765445 6.611276,-0.918326 1.546721,-0.137518 3.09983,-0.24515 4.632283,-0.50429 0.36076,-0.05609 0.721097,-0.144733 1.08275,-0.191651 0.05982,-0.0078 0.155782,-0.05984 0.180887,-0.005 0.839658,1.83437 1.216267,1.501707 0.587676,1.974572 -0.125616,0.154483 -0.412875,0.259622 -0.582439,0.336238 -0.560207,0.253127 -1.135409,0.473745 -1.706965,0.69915 -2.121128,0.777009 -4.255733,1.52969 -6.452122,2.068868 -2.126725,0.512629 -4.267956,0.958508 -6.4045285,1.427763 -0.402353,0.08708 -0.8030254,0.182049 -1.2063841,0.264348 -0.1092097,0.02228 -0.2182509,0.06564 -0.3294084,0.05744 -0.033906,-0.0025 -0.054346,-0.05183 -0.055126,-0.08581 -0.032909,-1.434079 0.3750518,-0.862018 -0.6127436,-1.592891 0.00873,-0.01126 0.012387,-0.03023 0.026186,-0.03377 0.2135908,-0.05473 0.4371445,-0.05823 0.6561759,-0.08357 0.6040554,-0.06987 1.2094785,-0.127757 1.8116504,-0.213283 1.8671133,-0.272674 3.7319603,-0.637118 5.4792573,-1.374179 0.307989,-0.139432 0.620966,-0.268334 0.923967,-0.418297 1.186304,-0.587129 2.283739,-1.334561 3.235825,-2.255764 0.09343,-0.08241 0.157091,-0.228754 0.280297,-0.247223 0.07603,-0.0114 0.09558,0.120649 0.138476,0.184448 0.10626,0.158022 0.169868,0.35038 0.308762,0.480651 0.109249,0.102467 0.2683,0.133864 0.40692,0.190603 0.02673,0.01094 0.103668,-0.01167 0.08593,0.01113 -0.02979,0.03829 -0.09042,0.03516 -0.135626,0.05274 -1.39893,0.620464 -2.76247,1.31994 -4.12897,2.007601 -1.58758,0.822762 -3.150525,1.693184 -4.752504,2.487571 -1.0049437,0.416277 -0.5171243,0.362269 -1.8871064,-1.287857 -0.088428,-0.10651 0.5071571,-0.807225 0.5436307,-0.848949 0.1327113,-0.151816 0.2713583,-0.298339 0.4070375,-0.447508 1.0500532,-1.139057 2.1045242,-2.274858 3.1069792,-3.456506 0.358041,-0.428034 0.711369,-0.855516 1.040509,-1.306338 0.06691,-0.09165 0.124263,-0.190648 0.197894,-0.276988 0.02719,-0.03189 0.07172,-0.103566 0.101535,-0.07413 0.07201,0.0711 0.07333,0.188639 0.109993,0.282958 0.156705,0.151859 0.288949,0.333935 0.470114,0.455577 0.09105,0.06114 0.213618,0.0498 0.320321,0.07515 0.01393,0.0033 0.05318,0.0024 0.04157,0.01082 -0.0547,0.03944 -0.121224,0.05914 -0.181243,0.08988 -0.432709,0.221663 -0.399808,0.208702 -0.871582,0.468662 -1.10635,0.629129 -2.19805,1.281572 -3.284488,1.944401 -0.347696,0.212127 -0.703318,0.411702 -1.04371,0.635362 -0.3419565,0.224701 -0.6680787,0.4726 -1.002116,0.708891 C 6.6133036,61.062355 4.8800072,62.36445 2.9581948,63.340235 2.1127677,63.667246 1.8208702,63.94272 0.7980397,62.983555 0.58077538,62.779814 0.72285003,62.389219 0.74024993,62.091878 0.76673229,61.639331 1.2071061,61.08785 1.4066158,60.707506 2.3758479,59.223478 3.4423092,57.807064 4.5358412,56.41272 c 0.7689864,-0.991176 1.5500857,-1.976049 2.2098612,-3.045482 0.3496156,-0.03147 -0.2715168,-0.0043 0.4007693,0.508287 0.2012927,0.153478 0.4646208,0.213377 0.7133432,0.260403 0.1017429,0.01924 0.2001372,-0.0568 0.3030492,-0.06824 0.016024,-0.0018 -0.020034,0.02527 -0.030052,0.0379 -0.056293,0.05232 -0.1125871,0.104633 -0.1688807,0.156949 -0.6677616,0.707126 -1.2370941,1.50172 -1.6943485,2.360857 -0.4506715,0.880525 -0.8595952,1.786418 -1.063404,2.760279 -0.1986567,0.841929 0.1847886,-0.466137 -1.5804749,-0.378071 -0.2574644,0.01284 -0.4880905,1.088481 -0.5763179,0.561566 -0.017521,-0.10464 -0.024293,-0.210901 -0.030776,-0.3168 -0.00932,-0.152161 -0.011069,-0.304691 -0.016604,-0.457037 -0.058986,-1.613474 -0.015539,-3.226026 0.066063,-4.838301 0.098074,-1.424695 0.2083971,-2.853918 0.4684276,-4.259781 0.7337452,-0.225377 -1.390509,0.409871 1.7379666,0.221221 0.1529025,-0.0092 0.1581497,-0.268559 0.2736426,-0.369185 0.031598,-0.02753 0.00743,0.0837 0.00595,0.125586 -0.00768,0.217568 -0.046992,0.433385 -0.044202,0.651613 -0.073589,1.177757 -0.1337468,2.355935 -0.1838945,3.534907 -0.020381,0.527948 -0.037572,1.056434 -0.086087,1.582789 -0.00969,0.105185 -0.017804,0.210791 -0.036034,0.314837 -0.00786,0.04485 -0.00587,0.157831 -0.041903,0.130001 -0.1491477,-0.115197 -0.2381232,-0.292162 -0.3571847,-0.438243 -0.5087715,0.116342 -1.0286866,0.191704 -1.5263143,0.349027 -0.0574,0.01815 -0.041881,0.116764 -0.083774,0.159996 -0.013374,0.0138 -0.017191,-0.03549 -0.018278,-0.05468 -0.016709,-0.294905 0.01788,-0.592969 -0.00392,-0.887958 C 3.148121,53.865901 3.048268,52.718682 2.9154938,51.577247 2.7250947,50.000179 2.5403504,48.419778 2.499679,46.830296 2.498229,46.083818 2.485565,45.32423 2.6136662,44.585663 c 0.016811,-0.09692 -0.022356,-0.237676 0.06183,-0.288564 0.5387793,-0.325674 1.1446919,-0.524469 1.7170378,-0.786704 0.1236667,0.207247 0.2535673,0.4109 0.3710002,0.621742 0.051905,0.09319 0.092959,0.278724 0.1118703,0.370542 0.072182,0.35045 0.1176887,0.706571 0.1763986,1.059293 0.1377193,0.955356 0.2797593,1.909793 0.4799815,2.854621 0.079856,0.402927 0.1722534,0.80528 0.2191275,1.213866 0.00917,0.07992 0.094224,0.211823 0.019094,0.240577 C 3.8391855,50.610022 4.0746934,50.98455 3.7178207,50.255633 3.5036033,49.393917 3.4663369,48.495055 3.2844075,47.626372 3.1001815,46.50392 2.8874038,45.386636 2.6318677,44.278119 2.4654832,43.457193 2.2801857,42.539636 2.8466568,41.825817 c 1.9030938,-2.537459 3.5342338,-1.314104 1.63114,1.223355 z"
         id="path4849"
         style="fill:#502d16;fill-opacity:1;fill-rule:nonzero;stroke:none" />
    </g>
    <path
       style="fill:#502d16;fill-opacity:1;fill-rule:nonzero;stroke:none"
       id="path4859"
       d="m 2.3971477,62.177764 c -0.931446,0.148112 -0.3770291,-0.942447 -0.2525402,-2.077997 0.00768,-0.07009 0.1323423,-0.04873 0.1984533,-0.07325 0.1036943,-0.03847 0.2073081,-0.07715 0.3109621,-0.115731 1.2996558,-0.441362 2.5714201,-0.959444 3.8413774,-1.478713 1.4020718,-0.552757 2.7396439,-1.243239 4.0520497,-1.979651 0.785488,-0.444172 1.506993,-0.981774 2.209625,-1.544468 0.111692,-0.0894 0.211809,-0.191966 0.320597,-0.284632 0.02266,-0.0193 0.0586,-0.0795 0.07195,-0.0529 0.01872,0.0373 -0.05362,0.08007 -0.03874,0.119064 0.186158,0.487966 0.299691,1.030491 0.631243,1.434024 0.119164,0.145034 0.375199,0.01283 0.562799,0.01924 -0.0046,0.02363 0.001,0.05188 -0.01371,0.0709 -0.06636,0.08552 -0.420657,0.400402 -0.465522,0.441096 -0.393509,0.356931 -0.786468,0.712746 -1.172528,1.077808 -1.020156,0.983284 -2.110844,1.886764 -3.236144,2.746177 -0.7873267,0.591525 -1.6291144,1.108566 -2.5083999,1.55107 -0.1675477,0.07475 -0.2976704,0.143299 -0.4701981,0.190426 -0.7219079,0.197196 -1.3241777,-1.371668 -0.8447332,-1.91805 0.416843,-0.321126 0.8270543,-0.645899 1.207003,-1.010437 0.6247729,-0.613858 1.1654104,-1.303651 1.7413575,-1.961813 0.7033595,-0.794615 1.5425687,-1.443156 2.4292657,-2.018156 0.665074,-0.425753 1.378404,-0.765424 2.063458,-1.156864 0.293856,-0.181518 0.611342,-0.350466 0.819127,-0.633732 0.325175,-0.46198 0.694423,-0.890047 1.055149,-1.324079 0.307555,-0.381274 0.633086,-0.747009 0.941311,-1.12774 0.192075,-0.265796 0.395212,-0.522767 0.596987,-0.781158 0.275283,-0.370537 0.632564,-0.815728 1.149109,-0.824314 0.253766,-0.0042 0.497351,0.101494 0.746027,0.152242 0.172334,0.19074 0.381892,0.353528 0.517001,0.57222 0.09456,0.153054 0.12048,0.340343 0.155769,0.516756 0.140863,0.704195 -0.09682,1.42916 -0.299655,2.09345 -0.516763,1.366628 -1.252095,2.633458 -2.018364,3.872146 -0.351941,0.528127 -0.697263,1.060935 -1.057547,1.583477 -0.158503,0.229885 -0.324122,0.487278 -0.509958,0.700235 0.0359,-0.447295 0.0968,-0.51133 -0.35791,-0.988302 -0.12145,-0.127396 -0.342345,-0.109214 -0.481232,-0.217336 -0.0329,-0.02561 0.03234,-0.08037 0.06407,-0.107418 0.08253,-0.07035 0.70863,-0.457977 0.727822,-0.470045 1.181856,-0.793227 2.378755,-1.561841 3.605953,-2.283146 1.022898,-0.583789 2.074119,-1.116219 3.150833,-1.59298 0.459955,-0.187924 1.23423,-0.572978 1.741576,-0.471677 0.227357,0.0454 0.434989,0.160603 0.652483,0.240905 0.158814,0.233778 0.364834,0.441685 0.476441,0.701335 0.257919,0.600038 -0.263932,1.793078 -0.500784,2.348391 -0.574185,1.2102 -1.169547,2.410107 -1.824601,3.578667 -0.286882,0.474791 -0.290934,0.484971 -0.563803,0.924676 -0.05843,0.09416 -0.112971,0.190936 -0.176488,0.281747 -0.01087,0.01553 -0.04132,0.05345 -0.04495,0.03484 -0.176613,-0.904443 0.309003,-0.140168 -0.775827,-1.157701 -0.06612,-0.02818 -0.189477,-0.01321 -0.198368,-0.08453 -0.0097,-0.07755 0.106835,-0.114757 0.167364,-0.164194 0.114962,-0.0939 0.238937,-0.176183 0.357964,-0.26487 0.499881,-0.372461 1.004346,-0.734835 1.516254,-1.090704 1.155632,-0.806826 2.358937,-1.542701 3.649566,-2.111529 0.75983,-0.339193 1.558121,-0.555192 2.384237,-0.639272 0.402142,-0.03062 0.805276,-0.03148 1.204594,0.02359 0.111932,0.03806 0.233989,0.05408 0.335796,0.114186 0.621142,0.366726 0.804728,0.887441 0.570106,1.575843 -0.112268,0.329404 -0.363105,0.504061 -0.604345,0.724373 -0.994013,0.714048 -2.116353,1.224532 -3.234214,1.710569 -1.714398,0.756513 -3.531762,1.183568 -5.367678,1.514748 -1.660985,0.247524 -3.323366,0.483979 -4.979394,0.763189 -1.336006,0.248141 -2.679651,0.448586 -4.034147,0.558292 -0.934536,0.06457 -1.871009,0.03686 -2.8065977,0.02676 -0.6372119,-0.02984 -1.2739898,-0.01032 -1.9106574,0.01808 -0.4344544,0.0065 -0.8649184,0.02154 -1.297342,0.06202 -0.102357,-0.01192 -0.2860842,0.15327 -0.082014,-0.0023 0.1543143,-0.199796 0.2605803,-0.480839 0.1862344,-0.736259 -0.037292,-0.128117 -0.1079399,-0.24471 -0.1754646,-0.359798 -0.026636,-0.0454 -0.091025,-0.06725 -0.1048897,-0.118031 -0.00616,-0.02255 0.045517,-0.0107 0.068276,-0.01606 0.7925706,0.03018 1.583073,-0.01671 2.3722652,-0.08557 1.7372709,-0.179256 3.4578129,-0.476183 5.1782839,-0.770194 1.985227,-0.316464 3.943306,-0.774969 5.898429,-1.237599 1.61546,-0.375607 3.232713,-0.741709 4.85853,-1.069868 1.156021,-0.229741 2.316698,-0.437355 3.467275,-0.69351 0.755438,-0.164561 1.510788,-0.31879 2.278833,-0.409782 0.552195,-0.06989 1.108053,-0.124023 1.649034,-0.258438 0.485152,-0.137647 0.958372,-0.310904 1.444078,-0.446711 0.260591,-0.06031 0.52509,-0.09891 0.7875,-0.150269 3.200342,-0.752466 3.684045,1.304792 0.483703,2.057257 l 0,0 c -0.220639,0.06048 -0.443023,0.114014 -0.66306,0.176523 -0.522357,0.162812 -1.018527,0.407024 -1.553362,0.531197 -0.622343,0.134771 -1.248593,0.241243 -1.881496,0.312718 -0.66988,0.08162 -1.302797,0.30144 -1.944129,0.504109 -1.158722,0.34081 -2.330899,0.625311 -3.505898,0.904024 -1.589076,0.387915 -3.165716,0.820692 -4.745119,1.245846 -2.028617,0.534131 -4.057503,1.082891 -6.143214,1.350413 -1.831365,0.248479 -3.668609,0.476133 -5.5204174,0.474894 C 7.8680867,63.706086 6.7878494,63.66701 5.7732032,63.32094 5.5467654,63.217176 5.2373909,63.098433 5.064699,62.911287 4.5401088,62.342792 4.5309804,61.757622 4.9431436,61.133932 c 0.07283,-0.07419 0.1398758,-0.15453 0.2184892,-0.222557 0.3144242,-0.27208 0.7294685,-0.421835 1.1283699,-0.509646 0.4747453,-0.08367 0.9534543,-0.137391 1.4342079,-0.173272 0.6807723,-0.06075 1.3603481,-0.0865 2.0438266,-0.08858 0.8607088,-0.02235 1.7201918,-0.0845 2.5753348,-0.185704 1.277603,-0.158025 2.538491,-0.411047 3.793469,-0.696546 1.644083,-0.341452 3.303857,-0.585462 4.962637,-0.844043 0.519843,-0.103194 1.151254,-0.224267 1.66766,-0.343865 1.099834,-0.25472 2.170991,-0.610486 3.24355,-0.959449 0.978616,-0.337941 1.953952,-0.689088 2.93668,-1.01316 0.05994,0.125491 1.4e-5,-0.02939 -0.03097,0.229181 -0.01868,0.155898 -0.05764,0.317437 -0.02263,0.470497 0.08405,0.367416 0.347716,0.62389 0.704871,0.695998 0.01193,7.88e-4 0.04773,0.0017 0.0358,0.0024 -0.152984,0.0089 -0.303006,0.0079 -0.454753,0.03493 -0.04474,0.008 -0.08901,0.01838 -0.133514,0.02757 -0.577543,0.154502 -1.119459,0.410086 -1.636861,0.707549 -1.133662,0.641911 -2.234537,1.338783 -3.33383,2.03754 -0.716798,0.450359 -1.432108,0.935928 -2.212149,1.272891 -0.176052,0.07605 -0.35099,0.160923 -0.537738,0.20455 -0.23157,0.0541 -0.472101,0.05767 -0.708152,0.08651 -0.343053,-0.239847 -0.766537,-0.393594 -1.02916,-0.71954 -0.150997,-0.187406 -0.113027,-0.470894 -0.123724,-0.711324 -0.02605,-0.585451 0.450602,-1.425208 0.662144,-1.951896 0.600986,-1.177463 1.244772,-2.33093 1.958572,-3.444415 0.109474,-0.178756 0.278119,-0.451873 0.389673,-0.641346 0.03521,-0.0598 0.0612,-0.125536 0.103077,-0.180863 0.01225,-0.01619 0.04027,-0.04178 0.05446,-0.02726 0.180502,0.184699 -0.03763,0.657438 0.477716,0.609951 0.157249,0.04132 0.311323,0.09752 0.471746,0.123947 0.0523,0.0086 0.107709,-0.03781 0.157713,-0.02023 0.03009,0.01058 -0.05565,0.0312 -0.0838,0.04621 -0.253996,0.135378 -0.506471,0.273282 -0.755128,0.41841 -0.96567,0.572917 -1.90571,1.188422 -2.874586,1.756278 -1.256841,0.765677 -2.498627,1.56395 -3.822054,2.21221 -0.380374,0.162938 -1.223337,0.56225 -1.630196,0.554175 -0.309724,-0.0061 -0.655792,0.009 -0.915495,-0.159903 -0.713679,-0.464101 -0.603011,-0.810019 -0.61766,-1.451115 0.03571,-0.14477 0.06182,-0.29225 0.107121,-0.434312 0.103496,-0.324562 0.227054,-0.549876 0.38405,-0.852489 0.296347,-0.571215 0.611101,-1.132665 0.94873,-1.680606 0.671714,-1.107514 1.3585,-2.207195 1.983863,-3.341745 0.128274,-0.277279 0.250471,-0.556351 0.369965,-0.83727 0.01707,-0.04012 0.003,-0.113415 0.04561,-0.122579 0.208456,-0.04481 0.09064,1.042161 0.489323,0.411973 0.196042,0.0224 0.391427,0.08283 0.588125,0.0672 0.306341,-0.02433 0.530513,-0.408684 0.268466,-0.06353 -0.03173,0.0418 -0.06239,0.0844 -0.09358,0.126602 -0.195294,0.265833 -0.409764,0.517399 -0.571059,0.80734 -0.304415,0.437094 -0.595758,0.88396 -0.945698,1.287413 -0.365782,0.42049 -0.743002,0.8301 -1.106808,1.252268 -0.374746,0.428971 -0.800128,0.806418 -1.26298,1.139134 -0.63614,0.449182 -1.309865,0.834233 -1.970965,1.244321 -0.702386,0.475767 -1.38717,0.984777 -1.946844,1.628466 -0.6458664,0.719559 -1.2563648,1.476513 -1.9951003,2.10592 -0.5585852,0.4691 -1.1536971,0.910401 -1.8337473,1.187907 -0.079723,0.02836 -0.190574,0.154356 -0.23917,0.08508 C 5.156421,60.717901 4.8184568,60.746736 5.75665,60.110668 6.465633,59.590165 7.1670956,59.06009 7.8412375,58.494599 8.9087588,57.610194 9.9509819,56.69508 11.031049,55.825927 c 0.758901,-0.586154 1.532124,-1.171653 2.409382,-1.57154 0.259745,-0.02661 0.587732,-0.257327 0.779236,-0.07984 1.144953,1.061154 0.746921,1.573111 0.10638,2.368497 -0.726615,0.797902 -1.550273,1.49995 -2.452504,2.093659 -1.389,0.90404 -2.8435883,1.70238 -4.3865037,2.315314 -1.4235912,0.540027 -2.8783707,1.061246 -4.4034358,1.212425 -0.1437203,0.0086 -0.2872563,0.02119 -0.4311608,0.02573 -0.097824,0.0031 -0.2684316,0.09169 -0.2936024,-0.0029 -0.3019322,-1.134519 -0.8934842,-2.195136 0.038307,-2.048438 3.1718229,0 3.1718229,2.038925 0,2.038925 z"
       inkscape:connector-curvature="0" />
  </g>
</svg>
