<?xml version="1.0" encoding="UTF-8" standalone="no"?>
<!-- Created with Inkscape (http://www.inkscape.org/) -->

<svg
   xmlns:dc="http://purl.org/dc/elements/1.1/"
   xmlns:cc="http://creativecommons.org/ns#"
   xmlns:rdf="http://www.w3.org/1999/02/22-rdf-syntax-ns#"
   xmlns:svg="http://www.w3.org/2000/svg"
   xmlns="http://www.w3.org/2000/svg"
   xmlns:sodipodi="http://sodipodi.sourceforge.net/DTD/sodipodi-0.dtd"
   xmlns:inkscape="http://www.inkscape.org/namespaces/inkscape"
   width="419.46393"
   height="131.0256"
   id="svg2"
   version="1.1"
   inkscape:version="0.48.4 r9939"
   sodipodi:docname="mouth2_none.svg">
  <defs
     id="defs4" />
  <sodipodi:namedview
     id="base"
     pagecolor="#ffffff"
     bordercolor="#666666"
     borderopacity="1.0"
     inkscape:pageopacity="0.0"
     inkscape:pageshadow="2"
     inkscape:zoom="1.0990218"
     inkscape:cx="244.55841"
     inkscape:cy="10.20618"
     inkscape:document-units="px"
     inkscape:current-layer="layer1"
     showgrid="false"
     inkscape:window-width="1366"
     inkscape:window-height="705"
     inkscape:window-x="-8"
     inkscape:window-y="-8"
     inkscape:window-maximized="1"
     fit-margin-top="0"
     fit-margin-left="0"
     fit-margin-right="0"
     fit-margin-bottom="0"
     showguides="true"
     inkscape:guide-bbox="true">
    <inkscape:grid
       type="xygrid"
       id="grid3129"
       empspacing="5"
       visible="true"
       enabled="true"
       snapvisiblegridlinesonly="true"
       originx="-147.40381px"
       originy="-784.33386px" />
  </sodipodi:namedview>
  <metadata
     id="metadata7">
    <rdf:RDF>
      <cc:Work
         rdf:about="">
        <dc:format>image/svg+xml</dc:format>
        <dc:type
           rdf:resource="http://purl.org/dc/dcmitype/StillImage" />
        <dc:title></dc:title>
      </cc:Work>
    </rdf:RDF>
  </metadata>
  <g
     inkscape:label="Layer 1"
     inkscape:groupmode="layer"
     id="layer1"
     transform="translate(-147.40381,-137.00272)">
    <path
       style="fill:#000000;fill-opacity:1;fill-rule:nonzero;stroke:none"
       id="path3823"
       d="m 200.01208,167.97686 c 2.27636,5.85575 6.78539,10.42436 11.12723,14.799 9.03144,8.40956 19.44393,15.17968 30.45816,20.69623 2.89729,1.45113 5.86572,2.75565 8.79858,4.13347 14.64733,6.28366 30.07804,10.59663 45.75559,13.3925 11.07497,1.97508 15.66932,2.27628 26.87893,3.4901 18.01241,1.61942 36.17816,2.11365 54.22024,0.61573 10.93451,-0.90783 13.7347,-1.59728 24.43198,-3.38279 14.24522,-2.71263 28.1376,-7.01386 41.49251,-12.64841 7.89501,-3.33097 9.81001,-4.46161 17.36014,-8.28489 12.27079,-6.41454 23.54796,-14.41815 34.31175,-23.07365 2.99886,-2.57536 6.18828,-4.90548 9.40141,-7.20094 2.44529,-1.68341 5.0905,2.15899 2.64522,3.84239 l 0,0 c -3.2193,2.13118 -6.4073,4.30878 -9.43511,6.70987 -11.2107,8.46753 -22.9137,16.27251 -35.4781,22.61798 -7.64188,3.75922 -9.72989,4.94227 -17.70167,8.21796 -13.58855,5.58368 -27.70962,9.81465 -42.18035,12.39356 -11.01514,1.72108 -13.47464,2.32921 -24.72488,3.16323 -18.16834,1.34687 -36.44736,0.82632 -54.58039,-0.74403 -4.56099,-0.47841 -9.13238,-0.86634 -13.68297,-1.43523 -20.50362,-2.56324 -40.83514,-7.03381 -60.03004,-14.80526 -3.00998,-1.34844 -6.05428,-2.62273 -9.02992,-4.04532 -11.45217,-5.47505 -22.31045,-12.23893 -31.87696,-20.60888 -5.11796,-4.83253 -10.24353,-9.90488 -13.23172,-16.39395 -0.92194,-3.22676 4.14843,-4.67544 5.07037,-1.44867 z"
       inkscape:connector-curvature="0" />
    <path
       style="fill:#000000;fill-opacity:1;fill-rule:nonzero;stroke:none"
       id="path3825"
       d="m 181.51773,178.87911 c 1.87841,-3.87415 3.361,-7.89239 5.49401,-11.64121 3.64836,-6.06497 8.38401,-7.94045 14.94785,-9.69514 6.27048,-1.51721 12.69172,-1.4593 19.08635,-1.19684 2.94649,0.14815 2.71369,4.77811 -0.2328,4.62995 l 0,0 c -5.91145,-0.35461 -11.83013,-0.41452 -17.61958,1.07097 -5.22261,1.47131 -9.00087,2.80443 -11.93798,7.63866 -2.0843,3.55614 -3.43415,7.42605 -4.89885,11.26747 -1.31979,3.07953 -6.1588,1.00567 -4.839,-2.07386 z"
       inkscape:connector-curvature="0" />
    <path
       style="fill:#000000;fill-opacity:1;fill-rule:nonzero;stroke:none"
       id="path3827"
       d="m 489.15253,157.92952 c 5.47911,-1.08534 10.25702,2.0645 14.63808,4.9086 6.67575,4.68736 12.70522,10.15533 18.02301,16.32651 2.56913,3.47925 1.40634,1.72643 3.51537,5.24044 1.5259,2.65475 -2.64563,5.05246 -4.17153,2.39772 l 0,0 c -1.68281,-3.08514 -0.73448,-1.52435 -2.88201,-4.65968 -4.87529,-5.93955 -10.54598,-11.11973 -16.96479,-15.37327 -3.05758,-1.86725 -6.67753,-4.49194 -10.48285,-3.81449 -3.19842,1.06615 -4.8737,-3.95969 -1.67528,-5.02583 z"
       inkscape:connector-curvature="0" />
    <path
       style="fill:#000000;fill-opacity:1;fill-rule:nonzero;stroke:none"
       id="path3829"
       d="m 331.05206,244.34776 c 6.23404,-1.57567 12.58438,-2.39898 18.97341,-3.01507 8.65792,-0.80214 17.3443,-0.83783 26.028,-0.67926 2.93705,0.094 2.78939,4.7091 -0.14766,4.61513 l 0,0 c -8.47861,-0.38953 -16.96618,-0.44933 -25.42018,0.46494 -6.09531,0.68886 -12.19698,1.55211 -17.98489,3.68463 -3.22676,0.92193 -4.67544,-4.14844 -1.44868,-5.07037 z"
       inkscape:connector-curvature="0" />
  </g>
</svg>
