<?xml version="1.0" encoding="UTF-8" standalone="no"?>
<!-- Created with Inkscape (http://www.inkscape.org/) -->

<svg
   xmlns:dc="http://purl.org/dc/elements/1.1/"
   xmlns:cc="http://creativecommons.org/ns#"
   xmlns:rdf="http://www.w3.org/1999/02/22-rdf-syntax-ns#"
   xmlns:svg="http://www.w3.org/2000/svg"
   xmlns="http://www.w3.org/2000/svg"
   xmlns:sodipodi="http://sodipodi.sourceforge.net/DTD/sodipodi-0.dtd"
   xmlns:inkscape="http://www.inkscape.org/namespaces/inkscape"
   width="419.46393"
   height="131.0256"
   id="svg2"
   version="1.1"
   inkscape:version="0.48.4 r9939"
   sodipodi:docname="mouth1_none.svg">
  <defs
     id="defs4" />
  <sodipodi:namedview
     id="base"
     pagecolor="#ffffff"
     bordercolor="#666666"
     borderopacity="1.0"
     inkscape:pageopacity="0.0"
     inkscape:pageshadow="2"
     inkscape:zoom="1.0990218"
     inkscape:cx="244.55841"
     inkscape:cy="10.20618"
     inkscape:document-units="px"
     inkscape:current-layer="layer1"
     showgrid="false"
     inkscape:window-width="1366"
     inkscape:window-height="705"
     inkscape:window-x="-8"
     inkscape:window-y="-8"
     inkscape:window-maximized="1"
     fit-margin-top="0"
     fit-margin-left="0"
     fit-margin-right="0"
     fit-margin-bottom="0"
     showguides="true"
     inkscape:guide-bbox="true">
    <inkscape:grid
       type="xygrid"
       id="grid3129"
       empspacing="5"
       visible="true"
       enabled="true"
       snapvisiblegridlinesonly="true"
       originx="-147.40381px"
       originy="-784.33386px" />
  </sodipodi:namedview>
  <metadata
     id="metadata7">
    <rdf:RDF>
      <cc:Work
         rdf:about="">
        <dc:format>image/svg+xml</dc:format>
        <dc:type
           rdf:resource="http://purl.org/dc/dcmitype/StillImage" />
        <dc:title></dc:title>
      </cc:Work>
    </rdf:RDF>
  </metadata>
  <g
     inkscape:label="Layer 1"
     inkscape:groupmode="layer"
     id="layer1"
     transform="translate(-147.40381,-137.00272)">
    <path
       style="fill:#000000;fill-opacity:1;fill-rule:nonzero;stroke:none"
       id="path3787"
       d="m 53.644922,66.388609 c 4.25058,-0.05955 8.501886,-0.06044 12.752833,-0.0702 6.227527,0.120704 12.441858,-0.152917 18.660266,-0.438638 7.451391,-0.346003 14.91095,-0.425051 22.368929,-0.487847 7.95695,-0.08851 15.90857,-0.0819 23.86039,0.220316 7.78992,0.348785 15.58609,0.50744 23.38264,0.601924 7.38404,-0.05698 14.75657,0.161816 22.13175,0.49106 7.05121,0.278664 14.10381,0.371521 21.15214,0.721164 6.86386,0.245415 13.7169,0.633994 20.57185,1.05228 6.52694,0.357923 13.03873,0.906283 19.5706,1.185512 5.96452,0.229364 11.93385,0.269148 17.90201,0.292775 5.31693,0.01204 10.63385,0.01286 15.95079,0.0085 5.47492,-0.0021 10.94983,-0.0135 16.42475,-0.01502 5.27402,0.0069 10.54804,0.01055 15.82206,0.01302 5.21932,-8.7e-4 10.43863,-0.0044 15.65795,-0.0061 5.4071,-0.256554 10.80946,-0.575548 16.2205,-0.745577 4.74416,0.0066 9.46908,-0.219294 14.19896,-0.55567 4.06621,-0.292517 8.1417,-0.405628 12.21713,-0.456015 2.92833,-0.02841 5.85691,-0.02224 8.78532,-0.01249 1.92545,0.01461 3.83372,0.102344 5.73677,-0.207424 1.0663,-0.175797 0.61856,-0.0484 1.36203,-0.308531 0,0 1.60591,5.286787 1.60591,5.286787 l 0,0 c -1.4615,0.417499 -0.76127,0.264844 -2.09436,0.48604 -2.19643,0.346276 -4.39346,0.332533 -6.61354,0.300352 -2.89842,0.0063 -5.79689,0.0099 -8.69507,0.05399 -3.97128,0.07467 -7.943,0.180265 -11.90508,0.477619 -4.80363,0.34062 -9.60203,0.596717 -14.42023,0.60581 -5.47027,0.17123 -10.93126,0.503697 -16.39835,0.744404 -5.21932,-0.0018 -10.43864,-0.0053 -15.65796,-0.0062 -5.27385,0.0024 -10.5477,0.006 -15.82155,0.01355 -5.47391,-5.88e-4 -10.94782,-0.01068 -16.42174,-0.0062 -5.32425,0.0022 -10.64848,0.01706 -15.97273,0.01032 -6.04378,-0.01534 -12.08897,-0.03978 -18.12935,-0.264926 -6.56386,-0.28452 -13.1087,-0.819929 -19.66717,-1.189357 -6.83656,-0.403373 -13.6708,-0.783527 -20.51553,-1.024904 -7.03558,-0.353097 -14.07556,-0.450788 -21.1145,-0.722288 -7.31507,-0.307474 -14.62658,-0.535876 -21.9499,-0.465409 -7.84739,-0.08635 -15.69413,-0.239665 -23.53475,-0.592072 -7.8647,-0.297473 -15.72883,-0.30521 -23.59873,-0.225965 -7.38659,0.04805 -14.774641,0.13342 -22.155511,0.44773 -6.303896,0.275439 -12.604674,0.532683 -18.916694,0.385461 -4.250947,-0.0098 -8.502253,-0.01065 -12.752833,-0.0702 0,0 0,-5.527581 0,-5.527581 z"
       inkscape:connector-curvature="0"
       transform="translate(147.40381,137.00272)" />
    <path
       style="fill:#000000;fill-opacity:1;fill-rule:nonzero;stroke:none"
       id="path3795"
       d="m 49.198508,58.562994 c 1.113603,1.842037 2.393582,3.57464 3.533542,5.400294 1.374948,1.913471 2.132187,4.079878 2.551889,6.374932 0.308001,3.057808 -1.22273,5.528243 -3.186646,7.706712 -0.232191,0.250519 -0.464383,0.501038 -0.696574,0.751557 -2.390932,2.591339 -6.462828,-1.165648 -4.071896,-3.756987 l 0,0 c 0.235063,-0.2559 0.470125,-0.5118 0.705188,-0.7677 0.796455,-0.809843 1.672176,-1.802138 1.802629,-2.973479 -0.267588,-1.61365 -0.823984,-3.077658 -1.809372,-4.405541 -1.224605,-1.973893 -2.665202,-3.808639 -3.762931,-5.862702 -1.570044,-3.140087 3.364128,-5.607173 4.934171,-2.467086 z"
       inkscape:connector-curvature="0"
       transform="translate(147.40381,137.00272)" />
    <path
       style="fill:#000000;fill-opacity:1;fill-rule:nonzero;stroke:none"
       id="path3797"
       d="m 380.65899,63.75978 c -0.66711,1.748481 -1.7026,3.590956 -1.42722,5.514404 0.33909,1.100339 1.10329,1.61399 1.91129,2.376613 1.42562,1.213637 2.56602,2.706099 3.87426,4.033501 2.45378,2.517699 -1.50241,6.373434 -3.95618,3.855736 l 0,0 c -1.2466,-1.288293 -2.37914,-2.683602 -3.7179,-3.882116 -1.86852,-1.779721 -3.26054,-3.347375 -3.6475,-6.030464 -0.10572,-3.01665 0.6779,-5.645601 2.02908,-8.334759 1.57005,-3.140088 6.50422,-0.673002 4.93417,2.467085 z"
       inkscape:connector-curvature="0"
       transform="translate(147.40381,137.00272)" />
    <path
       style="fill:#000000;fill-opacity:1;fill-rule:nonzero;stroke:none"
       id="path3801"
       d="m 182.85073,92.775711 c 4.24981,-0.0559 8.50025,-0.0592 12.75038,-0.07543 7.08377,-0.03084 14.16765,-0.03589 21.25149,-0.04043 6.81386,0.0053 13.62774,0.01215 20.44158,0.03421 4.75833,0.01271 9.5104,-0.07859 14.25599,0.307397 3.21879,0.482244 6.41924,1.045645 9.66002,1.36326 0.27802,-0.0069 0.55604,-0.01378 0.83407,-0.02067 3.53071,-0.05426 3.61597,5.493717 0.0853,5.547977 l 0,0 c -0.4816,0.0048 -0.9632,0.0096 -1.4448,0.01435 -3.21032,-0.29508 -6.38637,-0.808731 -9.56958,-1.310659 -4.60203,-0.340093 -9.20882,-0.225742 -13.82096,-0.210764 -6.81384,0.02207 -13.62772,0.02892 -20.44158,0.03421 -7.08384,-0.0045 -14.16772,-0.0096 -21.25149,-0.04043 -4.25013,-0.01623 -8.50057,-0.01954 -12.75038,-0.07543 -3.51773,0 -3.51773,-5.527581 0,-5.527581 z"
       inkscape:connector-curvature="0"
       transform="translate(147.40381,137.00272)" />
  </g>
</svg>
