<?xml version="1.0" encoding="UTF-8" standalone="no"?>
<!-- Created with Inkscape (http://www.inkscape.org/) -->

<svg
   xmlns:dc="http://purl.org/dc/elements/1.1/"
   xmlns:cc="http://creativecommons.org/ns#"
   xmlns:rdf="http://www.w3.org/1999/02/22-rdf-syntax-ns#"
   xmlns:svg="http://www.w3.org/2000/svg"
   xmlns="http://www.w3.org/2000/svg"
   xmlns:sodipodi="http://sodipodi.sourceforge.net/DTD/sodipodi-0.dtd"
   xmlns:inkscape="http://www.inkscape.org/namespaces/inkscape"
   width="398.56607"
   height="129.14642"
   id="svg3258"
   version="1.1"
   inkscape:version="0.48.4 r9939"
   sodipodi:docname="mouth1_smile.svg">
  <defs
     id="defs3260" />
  <sodipodi:namedview
     id="base"
     pagecolor="#ffffff"
     bordercolor="#666666"
     borderopacity="1.0"
     inkscape:pageopacity="0.0"
     inkscape:pageshadow="2"
     inkscape:zoom="0.98994949"
     inkscape:cx="239.00717"
     inkscape:cy="35.1704"
     inkscape:document-units="px"
     inkscape:current-layer="layer1"
     showgrid="false"
     inkscape:window-width="1366"
     inkscape:window-height="705"
     inkscape:window-x="-8"
     inkscape:window-y="-8"
     inkscape:window-maximized="1"
     fit-margin-top="0"
     fit-margin-left="0"
     fit-margin-right="0"
     fit-margin-bottom="0" />
  <metadata
     id="metadata3263">
    <rdf:RDF>
      <cc:Work
         rdf:about="">
        <dc:format>image/svg+xml</dc:format>
        <dc:type
           rdf:resource="http://purl.org/dc/dcmitype/StillImage" />
        <dc:title></dc:title>
      </cc:Work>
    </rdf:RDF>
  </metadata>
  <g
     inkscape:label="Layer 1"
     inkscape:groupmode="layer"
     id="layer1"
     transform="translate(-167.63972,-432.69018)">
    <g
       id="g3131"
       transform="translate(31.54193,71.979569)">
      <path
         inkscape:connector-curvature="0"
         id="path3109"
         d="m 344.85213,383.58563 -136.48501,-1.8198 c 0,0 -33.66631,-7.2792 -56.41381,31.8465 -22.7475,39.12571 113.73751,79.16131 182.88992,75.52171 69.1524,-3.6396 10.0089,-105.54841 10.0089,-105.54841 z"
         style="fill:#000000;stroke:#000000;stroke-width:1px;stroke-linecap:butt;stroke-linejoin:miter;stroke-opacity:1" />
      <path
         inkscape:connector-curvature="0"
         id="path3109-1"
         d="m 321.69926,382.82799 136.48501,-1.8198 c 0,0 33.66631,-7.2792 56.41381,31.8465 22.7475,39.12571 -113.73751,79.16131 -182.88992,75.52171 -69.1524,-3.6396 -10.0089,-105.54841 -10.0089,-105.54841 z"
         style="fill:#000000;stroke:#000000;stroke-width:1px;stroke-linecap:butt;stroke-linejoin:miter;stroke-opacity:1" />
    </g>
    <path
       style="fill:#ffffff;stroke:#000000;stroke-width:0.65869915px;stroke-linecap:butt;stroke-linejoin:miter;stroke-opacity:1"
       d="m 234.09208,466.9186 17.87962,19.41359 223.49517,0 8.9398,-19.41359 z"
       id="path3135"
       inkscape:connector-curvature="0" />
    <path
       style="fill:#ffffff;stroke:#000000;stroke-width:0.59292901px;stroke-linecap:butt;stroke-linejoin:miter;stroke-opacity:1"
       d="m 265.69208,540.89679 13.20483,-21.29918 165.06033,0 6.60241,21.29918 z"
       id="path3135-9"
       inkscape:connector-curvature="0" />
    <path
       style="fill:#000000"
       id="path3217"
       d="m 168.60709,450.84757 c 4.0054,-3.36655 8.06193,-6.72758 12.68824,-9.22316 1.2868,-0.69414 2.62555,-1.2873 3.93833,-1.93095 8.54214,-3.51806 17.7834,-4.4123 26.88176,-5.36663 3.94837,-0.37766 4.48246,5.20617 0.5341,5.58383 l 0,0 c -8.401,0.72317 -16.9134,1.62572 -24.69884,5.11067 -5.12902,2.73082 -10.18953,5.78997 -13.95609,10.31582 -3.17461,3.80954 -8.56211,-0.68004 -5.3875,-4.48958 z"
       inkscape:connector-curvature="0" />
    <path
       style="fill:#000000"
       id="path3289"
       d="m 520.68975,432.80502 c 10.63227,3.10124 20.19169,8.59826 29.46656,14.51221 4.926,3.19187 9.80871,6.76035 12.87286,11.88997 1.31808,2.20657 1.61794,3.37524 2.45337,5.71323 0.20083,0.79511 0.40165,1.59022 0.60248,2.38533 1.13759,5.12229 -6.10643,6.73108 -7.24401,1.60879 l 0,0 c -0.10406,-0.57775 -0.20813,-1.15549 -0.31219,-1.73323 -0.4716,-1.67984 -0.6186,-2.49482 -1.42868,-4.09931 -2.27517,-4.50634 -6.36029,-7.66126 -10.36866,-10.54018 -8.4291,-5.68817 -17.39729,-10.86347 -27.62144,-12.36482 -5.21278,-1.11703 -3.63307,-8.48902 1.57971,-7.37199 z"
       inkscape:connector-curvature="0" />
  </g>
</svg>
