<?xml version="1.0" encoding="UTF-8" standalone="no"?>
<!-- Created with Inkscape (http://www.inkscape.org/) -->

<svg
   xmlns:dc="http://purl.org/dc/elements/1.1/"
   xmlns:cc="http://creativecommons.org/ns#"
   xmlns:rdf="http://www.w3.org/1999/02/22-rdf-syntax-ns#"
   xmlns:svg="http://www.w3.org/2000/svg"
   xmlns="http://www.w3.org/2000/svg"
   xmlns:sodipodi="http://sodipodi.sourceforge.net/DTD/sodipodi-0.dtd"
   xmlns:inkscape="http://www.inkscape.org/namespaces/inkscape"
   width="419.46393"
   height="131.0256"
   id="svg2"
   version="1.1"
   inkscape:version="0.48.4 r9939"
   sodipodi:docname="mouth2_happy.svg">
  <defs
     id="defs4" />
  <sodipodi:namedview
     id="base"
     pagecolor="#ffffff"
     bordercolor="#666666"
     borderopacity="1.0"
     inkscape:pageopacity="0.0"
     inkscape:pageshadow="2"
     inkscape:zoom="1.0990218"
     inkscape:cx="244.55841"
     inkscape:cy="10.20618"
     inkscape:document-units="px"
     inkscape:current-layer="layer1"
     showgrid="false"
     inkscape:window-width="1366"
     inkscape:window-height="705"
     inkscape:window-x="-8"
     inkscape:window-y="-8"
     inkscape:window-maximized="1"
     fit-margin-top="0"
     fit-margin-left="0"
     fit-margin-right="0"
     fit-margin-bottom="0"
     showguides="true"
     inkscape:guide-bbox="true">
    <inkscape:grid
       type="xygrid"
       id="grid3129"
       empspacing="5"
       visible="true"
       enabled="true"
       snapvisiblegridlinesonly="true"
       originx="-147.40381px"
       originy="-784.33386px" />
  </sodipodi:namedview>
  <metadata
     id="metadata7">
    <rdf:RDF>
      <cc:Work
         rdf:about="">
        <dc:format>image/svg+xml</dc:format>
        <dc:type
           rdf:resource="http://purl.org/dc/dcmitype/StillImage" />
        <dc:title></dc:title>
      </cc:Work>
    </rdf:RDF>
  </metadata>
  <g
     inkscape:label="Layer 1"
     inkscape:groupmode="layer"
     id="layer1"
     transform="translate(-147.40381,-137.00272)">
    <path
       style="fill:#000000;fill-opacity:1;fill-rule:nonzero;stroke:none"
       id="path3831"
       d="m 37.087407,97.343656 c 1.914654,-3.695406 3.362037,-7.60822 5.084115,-11.393876 2.463642,-5.652599 5.938451,-10.765259 9.663654,-15.648241 5.960156,-7.526717 13.421719,-13.517017 21.171236,-19.08146 10.308882,-7.113001 21.199375,-13.37049 32.516968,-18.735262 2.768,-1.312085 5.58273,-2.523197 8.3741,-3.784796 15.58058,-6.695233 31.88577,-11.787245 48.58932,-14.785991 3.45022,-0.619409 6.9301,-1.060427 10.39515,-1.590641 21.67929,-2.7833733 43.56147,-2.88404 65.36443,-2.060172 13.68472,0.827578 27.34451,2.626626 40.59183,6.240707 7.90465,2.156518 10.15269,3.199771 17.78133,6.062235 11.09529,4.574803 21.53853,10.586963 31.31213,17.532948 5.7717,4.101872 8.21331,6.223546 13.69384,10.666128 10.28681,8.736095 20.20259,18.029268 28.71527,28.537167 1.50114,1.852988 2.88876,3.795137 4.33314,5.692705 5.17254,7.184194 9.00336,15.171373 12.48508,23.272703 1.0842,2.70462 -3.1657,4.40826 -4.24989,1.70364 l 0,0 c -2.94882,-7.94113 -6.45202,-15.695327 -11.28082,-22.69565 -1.37005,-1.860805 -2.68182,-3.765956 -4.11014,-5.582416 C 359.29041,71.229787 349.5267,62.08484 339.44652,53.443209 333.84033,48.864142 331.92719,47.151539 326.0162,42.92921 316.47169,36.111382 306.30148,30.150444 295.45548,25.647036 c -7.25318,-2.759841 -9.86431,-3.936287 -17.37061,-6.051729 -13.02246,-3.670014 -26.47014,-5.58833 -39.95389,-6.441169 -3.62288,-0.152407 -7.24362,-0.369099 -10.86863,-0.45722 -18.00128,-0.437599 -36.04985,0.448093 -53.92423,2.598829 -8.89908,1.369859 -11.5691,1.604867 -20.33388,3.655094 -12.94498,3.028045 -25.58073,7.34847 -37.71878,12.760263 -13.87927,6.525187 -27.514877,13.626645 -39.838131,22.841103 -7.284756,5.447347 -14.322219,11.270977 -19.914537,18.51528 -3.422194,4.672563 -6.603486,9.543544 -8.925172,14.870281 -1.709774,3.877056 -3.23249,7.830884 -4.790583,11.770703 -1.504959,3.009919 -6.23459,0.645099 -4.72963,-2.364815 z"
       inkscape:connector-curvature="0"
       transform="translate(147.40381,137.00272)" />
    <path
       style="fill:#000000;fill-opacity:1;fill-rule:nonzero;stroke:none"
       id="path3879"
       d="m 174.17954,40.953579 c 6.57632,-1.67076 13.09088,-3.561677 19.72011,-5.062324 11.9578,-2.286863 24.16825,-3.272738 36.34015,-3.139346 2.66092,0.02916 5.31921,0.177231 7.97882,0.265846 7.3905,0.483687 14.78493,1.289356 22.04521,2.791095 5.22831,1.081439 6.9497,1.718694 11.95362,3.231943 2.4867,0.782898 1.2565,4.690374 -1.23021,3.907477 l 0,0 c -4.66861,-1.530579 -6.53078,-2.256685 -11.41651,-3.363714 -7.0567,-1.598935 -14.26683,-2.462698 -21.47656,-2.964255 -2.60084,-0.09311 -5.20012,-0.256147 -7.80252,-0.279324 -11.87906,-0.105792 -23.79694,1.043904 -35.39628,3.615133 -6.75652,1.785602 -13.36507,3.957617 -19.96932,6.223027 -3.32553,0.475075 -4.07204,-4.750483 -0.74651,-5.225558 z"
       inkscape:connector-curvature="0"
       transform="translate(147.40381,137.00272)" />
    <path
       style="fill:#000000;fill-opacity:1;fill-rule:nonzero;stroke:none"
       id="path3881"
       d="m 30.126611,101.0987 c 2.855567,-1.687189 5.167559,-2.606414 8.515048,-2.269994 2.84205,0.696183 4.665568,2.733344 6.263874,5.037794 0.174157,0.21093 0.348314,0.42187 0.522471,0.6328 2.079993,2.59397 -1.996031,5.86236 -4.076024,3.26839 l 0,0 c -0.242714,-0.30894 -0.485427,-0.61789 -0.728141,-0.92684 -0.76372,-1.09728 -1.504555,-2.24937 -2.755213,-2.84058 -1.666592,-0.57705 -3.477583,0.63293 -4.815955,1.48752 -2.7932,1.86213 -5.71926,-2.52696 -2.92606,-4.38909 z"
       inkscape:connector-curvature="0"
       transform="translate(147.40381,137.00272)" />
    <path
       style="fill:#000000;fill-opacity:1;fill-rule:nonzero;stroke:none"
       id="path3883"
       d="m 374.40339,114.97653 c 1.11895,-2.8305 2.69548,-5.33382 5.0028,-7.32189 2.58859,-1.97343 5.56387,-1.79238 8.62668,-1.54126 3.58765,0.33957 7.14957,0.87179 10.74409,1.15406 0.47736,0.0292 0.95471,0.0583 1.43207,0.0875 3.24491,0.2439 2.86165,5.34279 -0.38326,5.09888 l 0,0 c -0.50219,-0.0445 -1.00439,-0.0889 -1.50659,-0.1334 -3.55195,-0.36293 -7.0898,-0.89287 -10.65364,-1.10616 -1.69284,-0.10341 -3.44164,-0.42191 -4.97948,0.47023 -1.66858,1.20561 -2.62618,3.03722 -3.25683,4.96733 -1.06615,3.19843 -6.09198,1.52315 -5.02584,-1.67527 z"
       inkscape:connector-curvature="0"
       transform="translate(147.40381,137.00272)" />
  </g>
</svg>
