<?xml version="1.0" encoding="UTF-8" standalone="no"?>
<!-- Created with Inkscape (http://www.inkscape.org/) -->

<svg
   xmlns:dc="http://purl.org/dc/elements/1.1/"
   xmlns:cc="http://creativecommons.org/ns#"
   xmlns:rdf="http://www.w3.org/1999/02/22-rdf-syntax-ns#"
   xmlns:svg="http://www.w3.org/2000/svg"
   xmlns="http://www.w3.org/2000/svg"
   xmlns:sodipodi="http://sodipodi.sourceforge.net/DTD/sodipodi-0.dtd"
   xmlns:inkscape="http://www.inkscape.org/namespaces/inkscape"
   width="398.56607"
   height="129.14642"
   id="svg3258"
   version="1.1"
   inkscape:version="0.48.4 r9939"
   sodipodi:docname="mouth1_frown.svg">
  <defs
     id="defs3260" />
  <sodipodi:namedview
     id="base"
     pagecolor="#ffffff"
     bordercolor="#666666"
     borderopacity="1.0"
     inkscape:pageopacity="0.0"
     inkscape:pageshadow="2"
     inkscape:zoom="3.0258471"
     inkscape:cx="199.28304"
     inkscape:cy="64.573212"
     inkscape:document-units="px"
     inkscape:current-layer="layer1"
     showgrid="false"
     inkscape:window-width="1366"
     inkscape:window-height="705"
     inkscape:window-x="-8"
     inkscape:window-y="-8"
     inkscape:window-maximized="1"
     fit-margin-top="0"
     fit-margin-left="0"
     fit-margin-right="0"
     fit-margin-bottom="0" />
  <metadata
     id="metadata3263">
    <rdf:RDF>
      <cc:Work
         rdf:about="">
        <dc:format>image/svg+xml</dc:format>
        <dc:type
           rdf:resource="http://purl.org/dc/dcmitype/StillImage" />
        <dc:title></dc:title>
      </cc:Work>
    </rdf:RDF>
  </metadata>
  <g
     inkscape:label="Layer 1"
     inkscape:groupmode="layer"
     id="layer1"
     transform="translate(-167.63972,-432.69018)">
    <path
       style="fill:#000000;stroke:#000000;stroke-width:1px;stroke-linecap:butt;stroke-linejoin:miter;stroke-opacity:1"
       d="m 349.73114,452.74013 c 0,0 -96.97464,-1.01015 -130.30967,33.33503 -33.33504,34.34519 -14.14214,61.61931 15.15228,56.56855 29.29443,-5.05077 47.47717,-38.3858 101.01526,-34.34519 53.53808,4.04061 47.47717,-41.41626 47.47717,-41.41626 z"
       id="path3297"
       inkscape:connector-curvature="0" />
    <path
       style="fill:#000000;stroke:#000000;stroke-width:1px;stroke-linecap:butt;stroke-linejoin:miter;stroke-opacity:1"
       d="m 346.1159,452.94451 c 0,0 96.97464,-1.01016 130.30967,33.33503 33.33504,34.34519 14.14214,61.61931 -15.15228,56.56855 -29.29443,-5.05077 -47.47717,-38.3858 -101.01526,-34.34519 -53.53808,4.04061 -47.47717,-41.41626 -47.47717,-41.41626 z"
       id="path3297-5"
       inkscape:connector-curvature="0" />
    <path
       style="fill:#ffffff;stroke:#000000;stroke-width:1px;stroke-linecap:butt;stroke-linejoin:miter;stroke-opacity:1"
       d="m 77.994687,45.863961 c 0,0 34.701023,-24.125475 99.145793,-19.498672 64.44476,4.626804 99.14578,15.863326 99.14578,15.863326 L 257.77905,55.77854 92.536069,56.769998 z"
       id="path5359"
       inkscape:connector-curvature="0"
       transform="translate(167.63972,432.69018)" />
    <path
       style="fill:#000000"
       id="path5363"
       d="m 114.94827,104.60213 c 4.02307,-3.40675 9.05527,-5.253515 13.94264,-7.028103 5.80197,-2.011054 11.83929,-3.115462 17.89422,-4.018726 8.5089,-1.418178 17.15434,-1.685586 25.7636,-1.723293 5.03693,-0.0036 10.06707,0.389286 15.04374,1.154226 0.83775,0.08259 1.65886,0.350007 2.50306,0.385797 0.21699,0.0092 1.9118,-0.04969 1.95313,-0.05039 0.52099,-0.0089 1.04211,-0.007 1.56316,-0.01046 4.67414,-0.06567 9.36106,0.512959 13.91499,1.556378 0.98638,0.226002 1.96092,0.500839 2.94137,0.751258 4.21403,1.244184 8.40518,2.485308 12.44245,4.230931 4.13755,1.556878 1.93579,7.408258 -2.20176,5.851378 l 0,0 c -3.91655,-1.24259 -7.88002,-2.34102 -11.8597,-3.36128 -5.11205,-1.15154 -10.24772,-2.26198 -15.47484,-2.741697 -2.11849,-0.180259 -4.23665,-0.383996 -6.36372,-0.421715 -4.76233,-0.149351 -9.52304,-0.102446 -14.28336,0.130972 -8.35034,0.364724 -16.70895,0.55443 -25.05358,1.04072 -1.83576,0.20321 -3.19186,0.30463 -4.98674,0.68393 -3.88226,0.82043 -7.61389,2.28201 -11.41792,3.37846 -4.59007,1.52171 -9.16568,3.10305 -13.50456,5.26073 -3.58441,1.99133 -6.40058,-3.07778 -2.81618,-5.06912 z"
       inkscape:connector-curvature="0"
       transform="translate(167.63972,432.69018)" />
    <path
       style="fill:#000000"
       id="path5365"
       d="m 319.54449,119.38719 c 2.4404,-1.60292 4.84374,-3.26544 7.14441,-5.06386 0.96217,-0.92022 1.87894,-1.70589 2.6488,-2.80782 0.86213,-1.23398 1.24719,-2.35321 1.75332,-3.77219 0.61061,-1.71189 0.93649,-2.86506 1.45823,-4.59259 0.7619,-2.64139 0.38453,-1.35067 1.13092,-3.872509 1.14878,-4.422743 7.40349,-2.798122 6.25471,1.624619 l 0,0 c -0.57521,2.57689 -0.27557,1.2217 -0.89715,4.06597 -0.22866,0.87416 -0.42183,1.75839 -0.68598,2.6225 -1.53003,5.00507 -3.60001,8.64925 -7.70915,11.9513 -2.80545,2.06817 -5.7077,4.19913 -9.07278,5.24545 -3.819,1.43212 -5.84432,-3.96875 -2.02533,-5.40087 z"
       inkscape:connector-curvature="0"
       transform="translate(167.63972,432.69018)" />
    <path
       style="fill:#000000"
       id="path5369"
       d="m 22.101787,91.973262 c 0.887069,2.635422 1.706923,5.292854 2.613859,7.922289 0.538024,1.400369 1.14287,2.794219 1.897052,4.094579 0.59173,1.02026 1.329246,1.95647 2.062826,2.87561 0.925249,1.17475 2.008135,2.17681 3.206003,3.0622 3.480235,2.46307 -0.0031,7.38487 -3.483304,4.9218 l 0,0 c -1.661212,-1.14366 -3.130038,-2.50104 -4.459408,-4.02003 -0.722558,-0.8326 -1.262936,-1.41835 -1.911787,-2.32719 -1.411252,-1.97672 -2.446482,-4.1752 -3.270291,-6.45387 -1.157576,-3.072942 -2.316479,-6.233792 -2.443089,-9.549193 -0.372076,-4.092833 5.416064,-4.619028 5.788139,-0.526195 z"
       inkscape:connector-curvature="0"
       transform="translate(167.63972,432.69018)" />
  </g>
</svg>
