<?xml version="1.0" encoding="UTF-8" standalone="no"?>
<!-- Created with Inkscape (http://www.inkscape.org/) -->

<svg
   xmlns:dc="http://purl.org/dc/elements/1.1/"
   xmlns:cc="http://creativecommons.org/ns#"
   xmlns:rdf="http://www.w3.org/1999/02/22-rdf-syntax-ns#"
   xmlns:svg="http://www.w3.org/2000/svg"
   xmlns="http://www.w3.org/2000/svg"
   xmlns:sodipodi="http://sodipodi.sourceforge.net/DTD/sodipodi-0.dtd"
   xmlns:inkscape="http://www.inkscape.org/namespaces/inkscape"
   width="398.56607"
   height="129.14642"
   id="svg3258"
   version="1.1"
   inkscape:version="0.48.4 r9939"
   sodipodi:docname="mouth1_frown.svg">
  <defs
     id="defs3260" />
  <sodipodi:namedview
     id="base"
     pagecolor="#ffffff"
     bordercolor="#666666"
     borderopacity="1.0"
     inkscape:pageopacity="0.0"
     inkscape:pageshadow="2"
     inkscape:zoom="0.76022527"
     inkscape:cx="199.28304"
     inkscape:cy="64.573212"
     inkscape:document-units="px"
     inkscape:current-layer="layer1"
     showgrid="false"
     inkscape:window-width="463"
     inkscape:window-height="423"
     inkscape:window-x="515"
     inkscape:window-y="98"
     inkscape:window-maximized="0"
     fit-margin-top="0"
     fit-margin-left="0"
     fit-margin-right="0"
     fit-margin-bottom="0" />
  <metadata
     id="metadata3263">
    <rdf:RDF>
      <cc:Work
         rdf:about="">
        <dc:format>image/svg+xml</dc:format>
        <dc:type
           rdf:resource="http://purl.org/dc/dcmitype/StillImage" />
        <dc:title></dc:title>
      </cc:Work>
    </rdf:RDF>
  </metadata>
  <g
     inkscape:label="Layer 1"
     inkscape:groupmode="layer"
     id="layer1"
     transform="translate(-167.63972,-432.69018)">
    <path
       style="fill:#000000;stroke:#000000;stroke-width:1px;stroke-linecap:butt;stroke-linejoin:miter;stroke-opacity:1"
       d="m 370.77753,450.10933 c 0,0 -96.97464,-1.01015 -130.30967,33.33503 -33.33504,34.34519 -14.14214,61.61931 15.15228,56.56855 29.29443,-5.05077 47.47717,-38.3858 101.01526,-34.34519 53.53808,4.04061 47.47717,-41.41626 47.47717,-41.41626 z"
       id="path3297"
       inkscape:connector-curvature="0" />
    <path
       style="fill:#000000;stroke:#000000;stroke-width:1px;stroke-linecap:butt;stroke-linejoin:miter;stroke-opacity:1"
       d="m 367.16229,450.31371 c 0,0 96.97464,-1.01016 130.30967,33.33503 33.33504,34.34519 14.14214,61.61931 -15.15228,56.56855 -29.29443,-5.05077 -47.47717,-38.3858 -101.01526,-34.34519 -53.53808,4.04061 -47.47717,-41.41626 -47.47717,-41.41626 z"
       id="path3297-5"
       inkscape:connector-curvature="0" />
    <path
       style="fill:#ffffff;stroke:#000000;stroke-width:1px;stroke-linecap:butt;stroke-linejoin:miter;stroke-opacity:1"
       d="m 266.6808,475.92334 c 0,0 34.70102,-24.12547 99.14579,-19.49867 64.44476,4.6268 99.14578,15.86333 99.14578,15.86333 l -18.50721,13.54992 -165.24298,0.99146 z"
       id="path5359"
       inkscape:connector-curvature="0" />
    <path
       style="fill:#000000"
       id="path5363"
       d="m 303.63438,534.66151 c 4.02307,-3.40675 9.05527,-5.25351 13.94264,-7.0281 5.80197,-2.01106 11.83929,-3.11546 17.89422,-4.01873 8.5089,-1.41818 17.15434,-1.68558 25.7636,-1.72329 5.03693,-0.004 10.06707,0.38928 15.04374,1.15422 0.83775,0.0826 1.65886,0.35001 2.50306,0.3858 0.21699,0.009 1.9118,-0.0497 1.95313,-0.0504 0.52099,-0.009 1.04211,-0.007 1.56316,-0.0105 4.67414,-0.0657 9.36106,0.51296 13.91499,1.55638 0.98638,0.226 1.96092,0.50084 2.94137,0.75126 4.21403,1.24418 8.40518,2.48531 12.44245,4.23093 4.13755,1.55688 1.93579,7.40826 -2.20176,5.85138 l 0,0 c -3.91655,-1.24259 -7.88002,-2.34102 -11.8597,-3.36128 -5.11205,-1.15154 -10.24772,-2.26198 -15.47484,-2.7417 -2.11849,-0.18026 -4.23665,-0.384 -6.36372,-0.42172 -4.76233,-0.14935 -9.52304,-0.10244 -14.28336,0.13098 -8.35034,0.36472 -16.70895,0.55443 -25.05358,1.04072 -1.83576,0.20321 -3.19186,0.30463 -4.98674,0.68393 -3.88226,0.82043 -7.61389,2.28201 -11.41792,3.37846 -4.59007,1.52171 -9.16568,3.10305 -13.50456,5.26073 -3.58441,1.99133 -6.40058,-3.07778 -2.81618,-5.06912 z"
       inkscape:connector-curvature="0" />
    <path
       style="fill:#000000"
       id="path5365"
       d="m 508.2306,549.44657 c 2.4404,-1.60292 4.84374,-3.26544 7.14441,-5.06386 0.96217,-0.92022 1.87894,-1.70589 2.6488,-2.80782 0.86213,-1.23398 1.24719,-2.35321 1.75332,-3.77219 0.61061,-1.71189 0.93649,-2.86506 1.45823,-4.59259 0.7619,-2.64139 0.38453,-1.35067 1.13092,-3.87251 1.14878,-4.42274 7.40349,-2.79812 6.25471,1.62462 l 0,0 c -0.57521,2.57689 -0.27557,1.2217 -0.89715,4.06597 -0.22866,0.87416 -0.42183,1.75839 -0.68598,2.6225 -1.53003,5.00507 -3.60001,8.64925 -7.70915,11.9513 -2.80545,2.06817 -5.7077,4.19913 -9.07278,5.24545 -3.819,1.43212 -5.84432,-3.96875 -2.02533,-5.40087 z"
       inkscape:connector-curvature="0" />
    <path
       style="fill:#000000"
       id="path5369"
       d="m 210.7879,522.03264 c 0.88707,2.63542 1.70692,5.29286 2.61386,7.92229 0.53802,1.40037 1.14287,2.79422 1.89705,4.09458 0.59173,1.02026 1.32925,1.95647 2.06283,2.87561 0.92525,1.17475 2.00813,2.17681 3.206,3.0622 3.48024,2.46307 -0.003,7.38487 -3.4833,4.9218 l 0,0 c -1.66122,-1.14366 -3.13004,-2.50104 -4.45941,-4.02003 -0.72256,-0.8326 -1.26294,-1.41835 -1.91179,-2.32719 -1.41125,-1.97672 -2.44648,-4.1752 -3.27029,-6.45387 -1.15758,-3.07294 -2.31648,-6.23379 -2.44309,-9.54919 -0.37207,-4.09284 5.41607,-4.61903 5.78814,-0.5262 z"
       inkscape:connector-curvature="0" />
  </g>
</svg>
